<svg width="328" height="300" viewBox="0 0 328 300" fill="none" xmlns="http://www.w3.org/2000/svg">
<mask id="mask0_5_492" style="mask-type:luminance" maskUnits="userSpaceOnUse" x="154" y="100" width="159" height="178">
<path d="M154.509 100.326H312.088V277.814H154.509V100.326Z" fill="white"/>
</mask>
<g mask="url(#mask0_5_492)">
<path d="M305.324 141.603C304.224 140.047 303.121 138.495 302.015 136.945C300.112 136.8 298.211 136.652 296.311 136.499C295.206 134.951 294.099 133.405 292.989 131.863C291.091 131.711 289.193 131.556 287.297 131.396C286.189 129.854 285.078 128.316 283.964 126.781C282.069 126.622 280.176 126.459 278.284 126.292C277.172 124.758 276.056 123.227 274.939 121.699C273.048 121.533 271.159 121.363 269.271 121.189C268.154 119.662 267.035 118.138 265.913 116.617C264.027 116.444 262.142 116.267 260.258 116.086C259.137 114.566 258.014 113.049 256.888 111.536C255.006 111.355 253.125 111.171 251.245 110.983C250.121 109.47 248.994 107.961 247.863 106.454C245.985 106.267 244.109 106.075 242.233 105.88C241.104 104.374 239.973 102.872 238.839 101.373C214.257 144.707 186.413 186.118 155.556 225.232C157.372 225.717 159.191 226.198 161.011 226.676C161.9 228.339 162.785 230.005 163.668 231.674C165.489 232.153 167.312 232.628 169.138 233.099C170.021 234.768 170.902 236.441 171.779 238.116C173.605 238.589 175.434 239.057 177.264 239.521C178.142 241.197 179.018 242.877 179.89 244.558C181.721 245.024 183.555 245.486 185.39 245.944C186.263 247.626 187.134 249.312 188.001 251C189.837 251.459 191.676 251.915 193.516 252.366C194.384 254.056 195.25 255.748 196.112 257.442C197.953 257.895 199.797 258.344 201.642 258.789C202.505 260.484 203.365 262.183 204.222 263.884C206.069 264.33 207.917 264.772 209.768 265.211C210.626 266.913 211.481 268.618 212.332 270.325C214.184 270.765 216.038 271.201 217.893 271.633C218.746 273.341 219.596 275.053 220.443 276.767C254.01 234.217 284.301 189.169 311.041 142.028C309.134 141.89 307.229 141.749 305.324 141.603Z" fill="#6DA552"/>
<path d="M220.443 277.814C220.407 277.814 220.37 277.812 220.333 277.808C219.976 277.771 219.663 277.553 219.504 277.23C218.734 275.672 217.952 274.096 217.176 272.541C215.495 272.149 213.787 271.747 212.091 271.344C211.789 271.272 211.534 271.07 211.396 270.792C210.619 269.236 209.832 267.665 209.052 266.117C207.376 265.719 205.671 265.311 203.976 264.901C203.677 264.829 203.425 264.629 203.287 264.355C202.503 262.799 201.711 261.233 200.928 259.693C199.241 259.286 197.539 258.871 195.862 258.459C195.566 258.386 195.316 258.188 195.178 257.917C194.396 256.379 193.598 254.818 192.803 253.269C191.117 252.855 189.419 252.434 187.747 252.016C187.454 251.943 187.207 251.747 187.069 251.478C186.279 249.941 185.476 248.384 184.678 246.845C182.993 246.424 181.298 245.996 179.632 245.573C179.342 245.499 179.098 245.305 178.96 245.04C178.166 243.508 177.357 241.956 176.553 240.421C174.875 239.994 173.183 239.561 171.517 239.13C171.23 239.056 170.988 238.864 170.851 238.602C170.055 237.081 169.24 235.534 168.428 233.997C166.761 233.566 165.072 233.126 163.402 232.687C163.118 232.613 162.879 232.423 162.742 232.164C161.934 230.636 161.114 229.093 160.302 227.572C158.632 227.133 156.947 226.687 155.285 226.243C154.945 226.152 154.673 225.896 154.562 225.562C154.451 225.227 154.515 224.859 154.733 224.583C185.46 185.635 213.451 144.007 237.928 100.856C238.101 100.549 238.418 100.351 238.769 100.328C239.121 100.304 239.461 100.46 239.673 100.741C240.714 102.116 241.763 103.509 242.796 104.885C244.501 105.063 246.239 105.24 247.967 105.412C248.259 105.441 248.525 105.591 248.701 105.826C249.721 107.186 250.766 108.584 251.81 109.987C253.526 110.158 255.265 110.328 256.988 110.493C257.282 110.521 257.551 110.673 257.728 110.911C258.749 112.283 259.789 113.686 260.823 115.088C262.531 115.252 264.273 115.415 266.009 115.575C266.306 115.602 266.578 115.755 266.755 115.995C267.773 117.374 268.808 118.783 269.837 120.189C271.554 120.347 273.298 120.504 275.03 120.656C275.331 120.682 275.605 120.837 275.783 121.081C276.817 122.494 277.848 123.908 278.851 125.291C280.595 125.444 282.342 125.594 284.051 125.738C284.355 125.763 284.632 125.919 284.811 126.166C285.829 127.568 286.855 128.988 287.866 130.392C289.58 130.536 291.33 130.68 293.073 130.819C293.379 130.844 293.659 131.001 293.839 131.251C294.857 132.665 295.878 134.09 296.88 135.494C298.583 135.63 300.335 135.767 302.094 135.901C302.403 135.924 302.686 136.084 302.867 136.336C303.857 137.723 304.874 139.154 305.895 140.596C307.617 140.727 309.371 140.857 311.117 140.983C311.475 141.009 311.795 141.217 311.964 141.533C312.134 141.85 312.129 142.232 311.952 142.544C285.27 189.582 254.759 234.959 221.265 277.415C221.065 277.668 220.761 277.814 220.443 277.814V277.814ZM213.051 269.419C214.749 269.822 216.455 270.223 218.131 270.613C218.434 270.683 218.691 270.886 218.83 271.165C219.434 272.374 220.042 273.597 220.646 274.816C253.329 233.254 283.152 188.901 309.312 142.952C307.947 142.851 306.584 142.749 305.244 142.647C304.933 142.623 304.649 142.462 304.469 142.208C303.452 140.77 302.437 139.341 301.447 137.952C299.682 137.817 297.928 137.68 296.226 137.543C295.918 137.518 295.637 137.358 295.458 137.107C294.46 135.708 293.44 134.284 292.422 132.868C290.673 132.728 288.922 132.583 287.209 132.439C286.904 132.413 286.625 132.255 286.447 132.007C285.44 130.607 284.416 129.189 283.398 127.785C281.683 127.64 279.934 127.489 278.192 127.335C277.89 127.309 277.614 127.153 277.436 126.907C276.437 125.529 275.408 124.116 274.373 122.701C272.636 122.547 270.889 122.39 269.174 122.232C268.875 122.204 268.602 122.049 268.425 121.807C267.4 120.405 266.367 118.997 265.349 117.617C263.607 117.457 261.863 117.292 260.157 117.128C259.861 117.1 259.591 116.947 259.415 116.707C258.385 115.31 257.347 113.908 256.325 112.534C254.597 112.368 252.855 112.197 251.141 112.025C250.848 111.995 250.581 111.844 250.405 111.608C249.365 110.209 248.322 108.812 247.301 107.451C245.567 107.277 243.828 107.099 242.124 106.921C241.834 106.891 241.57 106.741 241.395 106.508C240.591 105.436 239.776 104.353 238.962 103.274C214.883 145.561 187.44 186.376 157.363 224.629C158.666 224.976 159.977 225.322 161.276 225.663C161.558 225.737 161.797 225.925 161.934 226.182C162.746 227.701 163.567 229.245 164.378 230.778C166.051 231.217 167.737 231.656 169.399 232.084C169.684 232.158 169.925 232.348 170.063 232.609C170.875 234.144 171.691 235.693 172.49 237.219C174.159 237.649 175.849 238.082 177.521 238.506C177.809 238.579 178.053 238.771 178.191 239.035C178.995 240.569 179.805 242.122 180.602 243.659C182.27 244.082 183.964 244.508 185.643 244.927C185.934 245 186.181 245.194 186.319 245.461C187.117 246.998 187.922 248.557 188.715 250.099C190.389 250.517 192.086 250.937 193.765 251.349C194.06 251.421 194.308 251.618 194.447 251.887C195.242 253.434 196.042 254.997 196.827 256.539C198.506 256.951 200.206 257.365 201.887 257.77C202.185 257.842 202.436 258.041 202.575 258.313C203.358 259.851 204.152 261.419 204.939 262.979C206.635 263.388 208.338 263.796 210.009 264.191C210.309 264.263 210.563 264.463 210.702 264.739C211.482 266.285 212.271 267.858 213.05 269.419L213.051 269.419Z" fill="#6DA552"/>
<path d="M206.284 238.556C206.063 238.556 205.841 238.486 205.652 238.343L191.194 227.373C190.733 227.023 190.643 226.367 190.993 225.906C191.342 225.445 191.999 225.355 192.46 225.705L206.917 236.674C207.378 237.024 207.468 237.681 207.119 238.141C206.913 238.413 206.6 238.556 206.284 238.556Z" fill="white"/>
<path d="M226.34 253.773C226.119 253.773 225.897 253.703 225.707 253.56L213.391 244.215C212.931 243.866 212.841 243.209 213.19 242.748C213.54 242.287 214.197 242.197 214.657 242.547L226.973 251.891C227.434 252.241 227.524 252.898 227.174 253.358C226.968 253.63 226.656 253.773 226.34 253.773Z" fill="white"/>
<path d="M204.623 224.238C204.406 224.238 204.188 224.171 204 224.032L181.724 207.499C181.26 207.155 181.163 206.499 181.507 206.034C181.852 205.57 182.508 205.473 182.972 205.818L205.248 222.35C205.712 222.695 205.809 223.351 205.465 223.815C205.259 224.092 204.943 224.238 204.623 224.238H204.623Z" fill="white"/>
<path d="M232.788 245.141C232.571 245.141 232.352 245.074 232.164 244.934L225.099 239.691C224.635 239.346 224.538 238.69 224.882 238.226C225.227 237.761 225.883 237.664 226.347 238.009L233.412 243.253C233.877 243.597 233.974 244.253 233.629 244.718C233.424 244.994 233.108 245.141 232.788 245.141Z" fill="white"/>
<path d="M239.147 236.445C238.934 236.445 238.719 236.38 238.533 236.245L231.412 231.076C230.944 230.737 230.84 230.082 231.18 229.614C231.52 229.146 232.174 229.042 232.642 229.382L239.763 234.55C240.231 234.89 240.335 235.545 239.995 236.013C239.791 236.295 239.471 236.445 239.147 236.445Z" fill="white"/>
<path d="M218.774 221.657C218.561 221.657 218.346 221.592 218.16 221.457L204.215 211.335C203.747 210.996 203.643 210.341 203.983 209.873C204.322 209.405 204.977 209.301 205.445 209.641L219.39 219.762C219.858 220.102 219.962 220.757 219.622 221.225C219.418 221.507 219.098 221.657 218.774 221.657Z" fill="white"/>
<path d="M200.824 208.628C200.611 208.628 200.396 208.563 200.21 208.428L187.7 199.347C187.232 199.008 187.128 198.353 187.467 197.885C187.807 197.417 188.462 197.313 188.93 197.653L201.44 206.733C201.908 207.073 202.012 207.728 201.672 208.196C201.468 208.478 201.148 208.628 200.824 208.628Z" fill="white"/>
<path d="M214.376 205.652C214.166 205.652 213.955 205.589 213.771 205.459L193.591 191.136C193.12 190.801 193.009 190.147 193.344 189.676C193.678 189.204 194.332 189.093 194.803 189.428L214.983 203.751C215.454 204.086 215.565 204.739 215.231 205.211C215.026 205.498 214.704 205.652 214.376 205.652Z" fill="white"/>
<path d="M245.417 227.685C245.208 227.685 244.996 227.622 244.812 227.492L237.637 222.399C237.166 222.065 237.055 221.411 237.39 220.939C237.724 220.468 238.378 220.357 238.849 220.692L246.024 225.784C246.496 226.119 246.607 226.772 246.272 227.244C246.068 227.532 245.745 227.685 245.417 227.685Z" fill="white"/>
<path d="M251.598 218.863C251.392 218.863 251.184 218.802 251.002 218.676L243.774 213.659C243.299 213.33 243.181 212.677 243.51 212.202C243.84 211.727 244.492 211.609 244.968 211.939L252.196 216.955C252.671 217.285 252.789 217.937 252.459 218.412C252.256 218.705 251.93 218.863 251.598 218.863L251.598 218.863Z" fill="white"/>
<path d="M226.097 201.166C225.891 201.166 225.683 201.106 225.501 200.979L215.788 194.239C215.313 193.909 215.195 193.257 215.525 192.781C215.854 192.306 216.507 192.188 216.982 192.518L226.695 199.259C227.17 199.588 227.288 200.241 226.959 200.716C226.755 201.009 226.429 201.166 226.098 201.166H226.097Z" fill="white"/>
<path d="M212.318 191.604C212.112 191.604 211.904 191.543 211.722 191.417L199.399 182.865C198.924 182.535 198.806 181.883 199.136 181.408C199.465 180.933 200.118 180.815 200.593 181.144L212.916 189.696C213.391 190.026 213.509 190.678 213.179 191.154C212.976 191.447 212.65 191.604 212.318 191.604H212.318Z" fill="white"/>
<path d="M235.415 194.868C235.212 194.868 235.008 194.81 234.828 194.688L205.122 174.536C204.643 174.211 204.518 173.56 204.843 173.082C205.168 172.603 205.819 172.478 206.297 172.803L236.003 192.954C236.482 193.279 236.607 193.93 236.282 194.409C236.08 194.707 235.75 194.868 235.415 194.868Z" fill="white"/>
<path d="M257.688 209.978C257.486 209.978 257.281 209.919 257.101 209.797L249.82 204.858C249.342 204.533 249.217 203.882 249.542 203.404C249.866 202.925 250.517 202.8 250.996 203.125L258.277 208.064C258.756 208.389 258.88 209.04 258.556 209.519C258.353 209.817 258.024 209.978 257.688 209.978Z" fill="white"/>
<path d="M263.688 201.032C263.489 201.032 263.288 200.976 263.11 200.857L255.777 195.996C255.295 195.676 255.164 195.026 255.483 194.544C255.803 194.062 256.452 193.931 256.934 194.25L264.267 199.112C264.749 199.431 264.881 200.081 264.562 200.563C264.36 200.867 264.027 201.032 263.688 201.032Z" fill="white"/>
<path d="M242.707 187.121C242.508 187.121 242.307 187.065 242.129 186.947L227.081 176.97C226.599 176.65 226.467 176.001 226.787 175.519C227.106 175.037 227.756 174.905 228.238 175.224L243.287 185.202C243.769 185.521 243.9 186.171 243.581 186.653C243.379 186.957 243.046 187.121 242.707 187.121Z" fill="white"/>
<path d="M223.534 174.41C223.335 174.41 223.134 174.353 222.956 174.235L210.76 166.149C210.278 165.829 210.146 165.18 210.466 164.698C210.785 164.216 211.435 164.084 211.917 164.404L224.113 172.49C224.595 172.809 224.727 173.459 224.407 173.941C224.206 174.245 223.873 174.41 223.534 174.41Z" fill="white"/>
<path d="M239.777 172.707C239.582 172.707 239.385 172.652 239.209 172.539L216.312 157.705C215.827 157.391 215.688 156.743 216.003 156.257C216.317 155.772 216.965 155.633 217.451 155.948L240.347 170.781C240.833 171.095 240.971 171.744 240.657 172.229C240.456 172.538 240.12 172.707 239.777 172.707Z" fill="white"/>
<path d="M269.597 192.025C269.401 192.025 269.204 191.971 269.028 191.857L261.644 187.073C261.158 186.758 261.02 186.11 261.334 185.625C261.649 185.139 262.297 185.001 262.782 185.315L270.167 190.099C270.652 190.414 270.791 191.062 270.476 191.547C270.276 191.857 269.94 192.025 269.597 192.025Z" fill="white"/>
<path d="M275.413 182.958C275.222 182.958 275.028 182.906 274.854 182.796L267.419 178.091C266.931 177.782 266.785 177.135 267.095 176.646C267.404 176.157 268.051 176.012 268.539 176.321L275.974 181.026C276.463 181.336 276.608 181.983 276.299 182.471C276.1 182.786 275.76 182.958 275.413 182.958Z" fill="white"/>
<path d="M250.579 167.241C250.388 167.241 250.194 167.189 250.02 167.079L241.966 161.981C241.477 161.672 241.332 161.025 241.641 160.537C241.95 160.048 242.597 159.902 243.086 160.212L251.14 165.309C251.629 165.619 251.774 166.265 251.465 166.754C251.266 167.069 250.926 167.241 250.579 167.241Z" fill="white"/>
<path d="M238.343 159.497C238.151 159.497 237.958 159.445 237.784 159.335L221.779 149.205C221.29 148.896 221.145 148.249 221.454 147.76C221.763 147.272 222.41 147.126 222.898 147.436L238.904 157.565C239.392 157.874 239.538 158.521 239.229 159.01C239.029 159.325 238.69 159.497 238.343 159.497Z" fill="white"/>
<path d="M259.724 160.596C259.537 160.596 259.346 160.546 259.175 160.44L227.159 140.649C226.667 140.345 226.515 139.7 226.819 139.208C227.123 138.716 227.768 138.564 228.26 138.868L260.276 158.658C260.768 158.962 260.92 159.608 260.616 160.1C260.418 160.42 260.075 160.596 259.724 160.596Z" fill="white"/>
<path d="M281.138 173.833C280.95 173.833 280.76 173.782 280.588 173.676L273.104 169.05C272.612 168.746 272.46 168.1 272.764 167.609C273.068 167.117 273.713 166.964 274.205 167.268L281.689 171.895C282.181 172.199 282.333 172.844 282.029 173.336C281.831 173.656 281.489 173.833 281.138 173.833Z" fill="white"/>
<path d="M291.842 151.388C291.662 151.388 291.481 151.342 291.314 151.245L240.89 121.75C240.391 121.459 240.223 120.817 240.515 120.318C240.807 119.819 241.448 119.651 241.948 119.943L292.372 149.437C292.871 149.729 293.039 150.37 292.747 150.869C292.552 151.202 292.202 151.388 291.842 151.388L291.842 151.388Z" fill="white"/>
<path d="M279.766 155.44C279.583 155.44 279.398 155.392 279.229 155.291L243.356 133.846C242.86 133.549 242.698 132.907 242.994 132.41C243.291 131.914 243.934 131.752 244.43 132.049L280.304 153.494C280.8 153.791 280.962 154.434 280.665 154.93C280.469 155.258 280.122 155.44 279.766 155.44Z" fill="white"/>
</g>
<mask id="mask1_5_492" style="mask-type:luminance" maskUnits="userSpaceOnUse" x="199" y="216" width="79" height="18">
<path d="M199.452 216.279H277.474V233.581H199.452V216.279Z" fill="white"/>
</mask>
<g mask="url(#mask1_5_492)">
<path d="M271.975 217.33H204.951C202.498 217.33 200.51 219.303 200.51 221.738V227.907C200.51 230.342 202.498 232.316 204.951 232.316H271.975C274.427 232.316 276.416 230.342 276.416 227.907V221.738C276.416 219.303 274.427 217.33 271.975 217.33Z" fill="white"/>
<path d="M271.975 233.367H204.951C201.919 233.367 199.452 230.918 199.452 227.907V221.738C199.452 218.728 201.919 216.279 204.951 216.279H271.975C275.007 216.279 277.474 218.728 277.474 221.738V227.907C277.474 230.918 275.007 233.367 271.975 233.367ZM204.951 218.38C203.086 218.38 201.568 219.886 201.568 221.738V227.907C201.568 229.759 203.086 231.266 204.951 231.266H271.975C273.84 231.266 275.358 229.759 275.358 227.907V221.738C275.358 219.886 273.84 218.38 271.975 218.38H204.951Z" fill="#212121"/>
<path d="M209.188 232.842C208.603 232.842 208.13 232.372 208.13 231.792V217.33C208.13 216.749 208.603 216.279 209.188 216.279C209.772 216.279 210.246 216.749 210.246 217.33V231.792C210.246 232.372 209.772 232.842 209.188 232.842Z" fill="#6DA552"/>
<path d="M217.552 232.842C216.968 232.842 216.494 232.372 216.494 231.792V217.33C216.494 216.749 216.968 216.279 217.552 216.279C218.136 216.279 218.61 216.749 218.61 217.33V231.792C218.61 232.372 218.136 232.842 217.552 232.842Z" fill="#6DA552"/>
<path d="M225.916 233.159C225.332 233.159 224.858 232.688 224.858 232.108V217.646C224.858 217.066 225.332 216.595 225.916 216.595C226.501 216.595 226.975 217.066 226.975 217.646V232.108C226.975 232.688 226.501 233.159 225.916 233.159Z" fill="#6DA552"/>
<path d="M234.281 233.159C233.696 233.159 233.223 232.688 233.223 232.108V217.646C233.223 217.066 233.696 216.595 234.281 216.595C234.865 216.595 235.339 217.066 235.339 217.646V232.108C235.339 232.688 234.865 233.159 234.281 233.159Z" fill="#6DA552"/>
<path d="M242.645 233.159C242.061 233.159 241.587 232.688 241.587 232.108V217.646C241.587 217.066 242.061 216.595 242.645 216.595C243.229 216.595 243.703 217.066 243.703 217.646V232.108C243.703 232.688 243.229 233.159 242.645 233.159Z" fill="#6DA552"/>
<path d="M251.009 233.159C250.425 233.159 249.951 232.688 249.951 232.108V217.646C249.951 217.066 250.425 216.595 251.009 216.595C251.594 216.595 252.068 217.066 252.068 217.646V232.108C252.068 232.688 251.594 233.159 251.009 233.159Z" fill="#6DA552"/>
<path d="M259.374 233.581C258.789 233.581 258.316 233.111 258.316 232.531V218.069C258.316 217.489 258.789 217.018 259.374 217.018C259.958 217.018 260.432 217.489 260.432 218.069V232.531C260.432 233.111 259.958 233.581 259.374 233.581Z" fill="#6DA552"/>
<path d="M267.738 233.581C267.154 233.581 266.68 233.111 266.68 232.531V218.069C266.68 217.489 267.154 217.018 267.738 217.018C268.322 217.018 268.796 217.489 268.796 218.069V232.531C268.796 233.111 268.322 233.581 267.738 233.581Z" fill="#6DA552"/>
<path d="M271.975 233.367H204.951C201.919 233.367 199.452 230.918 199.452 227.907V221.738C199.452 218.728 201.919 216.279 204.951 216.279H271.975C275.007 216.279 277.474 218.728 277.474 221.738V227.907C277.474 230.918 275.007 233.367 271.975 233.367ZM204.951 218.38C203.086 218.38 201.568 219.886 201.568 221.738V227.907C201.568 229.759 203.086 231.266 204.951 231.266H271.975C273.84 231.266 275.358 229.759 275.358 227.907V221.738C275.358 219.886 273.84 218.38 271.975 218.38H204.951Z" fill="#212121"/>
</g>
<mask id="mask2_5_492" style="mask-type:luminance" maskUnits="userSpaceOnUse" x="199" y="246" width="79" height="18">
<path d="M199.452 246.14H277.474V263.442H199.452V246.14Z" fill="white"/>
</mask>
<g mask="url(#mask2_5_492)">
<path d="M271.975 247.19H204.951C202.498 247.19 200.51 249.164 200.51 251.599V257.768C200.51 260.203 202.498 262.177 204.951 262.177H271.975C274.427 262.177 276.416 260.203 276.416 257.768V251.599C276.416 249.164 274.427 247.19 271.975 247.19Z" fill="white"/>
<path d="M271.975 263.227H204.951C201.919 263.227 199.452 260.778 199.452 257.768V251.599C199.452 248.589 201.919 246.14 204.951 246.14H271.975C275.007 246.14 277.474 248.589 277.474 251.599V257.768C277.474 260.778 275.007 263.227 271.975 263.227ZM204.951 248.24C203.086 248.24 201.568 249.747 201.568 251.599V257.768C201.568 259.62 203.086 261.126 204.951 261.126H271.975C273.84 261.126 275.358 259.62 275.358 257.768V251.599C275.358 249.747 273.84 248.24 271.975 248.24H204.951Z" fill="#212121"/>
<path d="M209.188 262.703C208.603 262.703 208.13 262.232 208.13 261.652V247.19C208.13 246.61 208.603 246.14 209.188 246.14C209.772 246.14 210.246 246.61 210.246 247.19V261.652C210.246 262.232 209.772 262.703 209.188 262.703Z" fill="#6DA552"/>
<path d="M217.552 262.703C216.968 262.703 216.494 262.232 216.494 261.652V247.19C216.494 246.61 216.968 246.14 217.552 246.14C218.136 246.14 218.61 246.61 218.61 247.19V261.652C218.61 262.232 218.136 262.703 217.552 262.703Z" fill="#6DA552"/>
<path d="M225.916 263.019C225.332 263.019 224.858 262.549 224.858 261.969V247.506C224.858 246.926 225.332 246.456 225.916 246.456C226.501 246.456 226.975 246.926 226.975 247.506V261.969C226.975 262.549 226.501 263.019 225.916 263.019Z" fill="#6DA552"/>
<path d="M234.281 263.019C233.696 263.019 233.223 262.549 233.223 261.969V247.506C233.223 246.926 233.696 246.456 234.281 246.456C234.865 246.456 235.339 246.926 235.339 247.506V261.969C235.339 262.549 234.865 263.019 234.281 263.019Z" fill="#6DA552"/>
<path d="M242.645 263.019C242.061 263.019 241.587 262.549 241.587 261.969V247.506C241.587 246.926 242.061 246.456 242.645 246.456C243.229 246.456 243.703 246.926 243.703 247.506V261.969C243.703 262.549 243.229 263.019 242.645 263.019Z" fill="#6DA552"/>
<path d="M251.009 263.019C250.425 263.019 249.951 262.549 249.951 261.969V247.506C249.951 246.926 250.425 246.456 251.009 246.456C251.594 246.456 252.068 246.926 252.068 247.506V261.969C252.068 262.549 251.594 263.019 251.009 263.019Z" fill="#6DA552"/>
<path d="M259.374 263.442C258.789 263.442 258.316 262.972 258.316 262.391V247.929C258.316 247.349 258.789 246.879 259.374 246.879C259.958 246.879 260.432 247.349 260.432 247.929V262.391C260.432 262.972 259.958 263.442 259.374 263.442Z" fill="#6DA552"/>
<path d="M267.738 263.442C267.154 263.442 266.68 262.972 266.68 262.391V247.929C266.68 247.349 267.154 246.879 267.738 246.879C268.322 246.879 268.796 247.349 268.796 247.929V262.391C268.796 262.972 268.322 263.442 267.738 263.442Z" fill="#6DA552"/>
<path d="M271.975 263.227H204.951C201.919 263.227 199.452 260.778 199.452 257.768V251.599C199.452 248.589 201.919 246.14 204.951 246.14H271.975C275.007 246.14 277.474 248.589 277.474 251.599V257.768C277.474 260.778 275.007 263.227 271.975 263.227ZM204.951 248.24C203.086 248.24 201.568 249.747 201.568 251.599V257.768C201.568 259.62 203.086 261.126 204.951 261.126H271.975C273.84 261.126 275.358 259.62 275.358 257.768V251.599C275.358 249.747 273.84 248.24 271.975 248.24H204.951Z" fill="#212121"/>
</g>
<mask id="mask3_5_492" style="mask-type:luminance" maskUnits="userSpaceOnUse" x="11" y="117" width="188" height="147">
<path d="M11.0264 117.488H198.056V263.442H11.0264V117.488Z" fill="white"/>
</mask>
<g mask="url(#mask3_5_492)">
<path d="M190.811 297.7C203.833 270.657 216.853 243.615 229.875 216.572C230.729 214.796 229.978 212.662 228.202 211.8C172.831 184.947 119.551 153.982 68.8092 119.167C67.181 118.05 64.9553 118.454 63.8342 120.075C46.7786 144.773 29.7227 169.471 12.6669 194.168C11.5461 195.79 12.0596 198.087 13.818 199.293C68.5638 236.856 126.048 270.264 185.788 299.236C187.707 300.167 189.957 299.476 190.811 297.7Z" fill="#6DA552"/>
<path d="M187.576 300.695C186.81 300.695 186.038 300.522 185.331 300.178C125.74 271.279 67.835 237.626 13.2254 200.157C12.1141 199.394 11.341 198.221 11.1043 196.937C10.8838 195.741 11.1328 194.546 11.8054 193.573L62.9725 119.48C64.4176 117.39 67.3017 116.862 69.4018 118.303C119.934 152.975 173.516 184.115 228.659 210.858C230.951 211.969 231.92 214.736 230.818 217.026L191.755 298.154C191.242 299.22 190.328 300.027 189.179 300.428C188.665 300.607 188.122 300.695 187.576 300.695ZM66.7796 119.584C65.975 119.584 65.1846 119.964 64.6959 120.671L13.5288 194.763C13.1747 195.276 13.0454 195.912 13.1642 196.557C13.3008 197.298 13.7551 197.98 14.4106 198.43C68.9342 235.841 126.748 269.44 186.245 298.294C186.96 298.641 187.778 298.698 188.489 298.45C189.108 298.234 189.598 297.807 189.868 297.246C189.868 297.246 189.868 297.246 189.868 297.245L228.931 216.118C229.533 214.866 229.001 213.352 227.745 212.742C172.508 185.954 118.835 154.761 68.2165 120.03C67.7773 119.729 67.2759 119.584 66.7796 119.584Z" fill="#6DA552"/>
<path d="M175.763 285.282C175.605 285.282 175.446 285.246 175.295 285.171C125.744 260.414 77.2744 232.245 31.2342 201.448C30.754 201.126 30.6247 200.477 30.9453 199.996C33.3805 196.346 32.1774 191.211 28.2638 188.551C27.7855 188.226 27.6614 187.574 27.9865 187.096L62.3088 136.606C62.4649 136.376 62.7059 136.218 62.9788 136.166C63.2519 136.114 63.5342 136.173 63.7637 136.329C65.5789 137.563 67.7536 138.013 69.8874 137.596C71.975 137.189 73.7699 135.997 74.9416 134.241C75.0958 134.01 75.3359 133.849 75.6085 133.795C75.8813 133.741 76.1642 133.797 76.3954 133.952C119.605 162.856 165.094 189.292 211.599 212.527C211.847 212.651 212.037 212.869 212.124 213.133C212.212 213.397 212.191 213.685 212.067 213.933C211.12 215.821 210.973 217.97 211.652 219.985C212.347 222.045 213.814 223.711 215.785 224.678C216.034 224.8 216.225 225.017 216.315 225.279C216.405 225.542 216.387 225.83 216.264 226.079L189.375 280.889C189.12 281.409 188.493 281.623 187.973 281.368C183.724 279.285 178.667 280.781 176.7 284.704C176.516 285.07 176.147 285.282 175.763 285.282ZM33.2209 200.256C78.6667 230.606 126.479 258.393 175.348 282.855C177.932 278.866 183.218 277.273 187.934 279.07L213.945 226.05C211.931 224.8 210.43 222.916 209.667 220.654C208.922 218.441 208.964 216.099 209.773 213.956C163.794 190.937 118.819 164.799 76.0574 136.245C74.595 138.008 72.5808 139.205 70.2887 139.652C67.9459 140.109 65.5652 139.738 63.4816 138.606L30.2806 187.447C34.1763 190.655 35.4081 196.037 33.2209 200.256Z" fill="white"/>
<path d="M107.586 235.877C127.115 247.236 149.46 244.258 157.085 229.948C164.722 215.621 155.605 195.839 137.115 185.079C118.612 174.34 96.9088 176.21 88.2373 189.936C79.5757 203.644 88.0477 224.532 107.586 235.877Z" fill="white"/>
<path d="M132.035 243.87C129.81 243.87 127.535 243.694 125.246 243.339C118.989 242.368 112.87 240.162 107.059 236.782C101.245 233.406 96.2996 229.182 92.3599 224.227C88.6086 219.509 85.9528 214.272 84.6796 209.084C82.8899 201.791 83.814 194.976 87.3518 189.377C91.7011 182.493 99.3501 178.2 108.89 177.291C118.246 176.399 128.457 178.843 137.64 184.173C146.819 189.515 153.997 197.176 157.853 205.746C161.784 214.485 161.84 223.255 158.009 230.441C154.895 236.286 149.431 240.461 142.207 242.516C139.042 243.417 135.602 243.87 132.035 243.87H132.035ZM112.724 179.205C111.5 179.205 110.287 179.262 109.088 179.376C100.209 180.222 93.1181 184.171 89.1226 190.496C85.8961 195.602 85.0631 201.857 86.7139 208.585C89.2156 218.78 97.2146 228.644 108.111 234.971C108.112 234.971 108.112 234.971 108.112 234.971C119.004 241.307 131.535 243.375 141.633 240.502C148.297 238.606 153.32 234.787 156.16 229.456C159.679 222.854 159.602 214.739 155.942 206.606C152.264 198.43 145.39 191.107 136.587 185.984C128.962 181.558 120.618 179.205 112.724 179.205L112.724 179.205Z" fill="white"/>
</g>
<mask id="mask4_5_492" style="mask-type:luminance" maskUnits="userSpaceOnUse" x="21" y="45" width="186" height="211">
<path d="M21.0757 45.7674H206.71V255.767H21.0757V45.7674Z" fill="white"/>
</mask>
<g mask="url(#mask4_5_492)">
<path d="M137.412 254.022C159.757 235.662 182.102 217.302 204.447 198.942C205.914 197.735 206.123 195.566 204.92 194.092C167.419 148.163 133.413 99.4874 103.187 48.4743C102.217 46.8376 100.108 46.2885 98.4708 47.2512C73.5508 61.9253 48.6309 76.5993 23.7108 91.2733C22.0738 92.2361 21.5911 94.4527 22.6386 96.2204C55.2499 151.259 91.9395 203.775 132.399 253.328C133.698 254.92 135.945 255.229 137.412 254.022Z" fill="white"/>
<path d="M135.33 255.768C135.181 255.768 135.031 255.76 134.88 255.745C133.628 255.621 132.439 254.973 131.618 253.967C91.2587 204.537 54.3009 151.636 21.7708 96.7351C21.1087 95.6181 20.9089 94.2785 21.2228 93.0598C21.5151 91.9246 22.2171 90.9814 23.1995 90.4036L97.959 46.3818C100.069 45.1404 102.804 45.8487 104.055 47.96C134.157 98.7625 168.355 147.714 205.702 193.454C207.254 195.355 206.978 198.167 205.088 199.722L138.053 254.802C137.287 255.432 136.334 255.768 135.33 255.768V255.768ZM100.208 47.7874C99.7899 47.7874 99.3672 47.8951 98.9823 48.1213L24.2229 92.1432C23.7057 92.4474 23.3346 92.9516 23.177 93.5633C22.9961 94.2661 23.1162 95.0471 23.5068 95.7061C55.9857 150.521 92.8852 203.338 133.181 252.69C133.665 253.284 134.357 253.665 135.079 253.737C135.707 253.8 136.309 253.624 136.772 253.243C136.772 253.243 136.772 253.243 136.772 253.243L203.806 198.163C204.84 197.312 204.989 195.773 204.138 194.731C166.729 148.913 132.472 99.8779 102.319 48.9891C101.862 48.2178 101.044 47.7874 100.208 47.7874Z" fill="#6DA552"/>
<path d="M142.339 238.969C142.045 238.969 141.754 238.841 141.554 238.595C138.686 235.05 133.659 234.307 130.35 236.938C129.914 237.285 129.28 237.213 128.933 236.778C95.6679 195.04 64.7323 150.76 36.9855 105.166C36.696 104.691 36.8464 104.071 37.3216 103.78C40.9299 101.576 41.9605 96.6003 39.6191 92.6874C39.333 92.2091 39.4886 91.5895 39.9666 91.3033L90.4347 61.0836C90.6643 60.9462 90.939 60.9053 91.1987 60.9705C91.4582 61.0357 91.6813 61.2015 91.8187 61.4311C92.9047 63.246 94.6226 64.5215 96.6562 65.0227C98.6455 65.5133 100.697 65.1994 102.434 64.1389C102.662 63.9994 102.937 63.9563 103.197 64.0194C103.458 64.0827 103.682 64.2466 103.822 64.4756C129.862 107.266 158.896 148.824 190.116 187.994C190.283 188.204 190.359 188.471 190.329 188.737C190.299 189.004 190.164 189.247 189.954 189.414C188.362 190.68 187.362 192.499 187.138 194.536C186.91 196.618 187.517 198.67 188.847 200.314C189.015 200.522 189.094 200.789 189.066 201.055C189.038 201.321 188.905 201.565 188.697 201.734L142.974 238.744C142.787 238.895 142.562 238.969 142.34 238.969H142.339ZM134.939 233.348C137.647 233.348 140.394 234.456 142.452 236.569L186.682 200.768C185.429 198.858 184.881 196.602 185.132 194.315C185.377 192.079 186.365 190.049 187.94 188.503C157.092 149.734 128.387 108.646 102.596 66.3432C100.603 67.2918 98.3572 67.5212 96.1728 66.9825C93.9397 66.432 92.01 65.1418 90.648 63.3079L41.8288 92.5403C43.9324 96.9248 42.8268 102.129 39.2043 104.93C66.6134 149.892 97.1298 193.572 129.917 234.774C131.442 233.814 133.182 233.348 134.939 233.348L134.939 233.348Z" fill="#6DA552"/>
<path d="M121.967 186.448C120.454 186.448 118.9 186.323 117.313 186.071C112.229 185.265 106.988 183.135 102.157 179.912C97.0827 176.526 92.6298 172.116 88.9219 166.805C85.2099 161.496 82.6008 155.798 81.167 149.868C79.8019 144.222 79.6041 138.568 80.5954 133.516C81.9887 126.414 85.5595 120.831 90.9216 117.372C97.5143 113.117 105.939 112.466 114.645 115.54C123.183 118.555 131.115 124.832 136.979 133.216C142.835 141.607 146.001 151.216 145.896 160.271C145.788 169.505 142.28 177.194 136.019 181.923C132.059 184.915 127.265 186.447 121.967 186.448ZM104.058 115.65C99.6433 115.65 95.5357 116.796 92.0156 119.068C87.1252 122.223 83.8609 127.353 82.5756 133.904C80.6278 143.831 83.6185 155.698 90.5756 165.648C90.5757 165.648 90.5758 165.649 90.576 165.649C97.5256 175.604 107.639 182.494 117.628 184.077C124.22 185.122 130.159 183.821 134.803 180.312C140.555 175.968 143.777 168.842 143.878 160.248C143.978 151.61 140.941 142.42 135.325 134.372C129.701 126.331 122.118 120.319 113.973 117.443C110.58 116.245 107.239 115.65 104.058 115.65Z" fill="#6DA552"/>
</g>
<mask id="mask5_5_492" style="mask-type:luminance" maskUnits="userSpaceOnUse" x="209" y="231" width="79" height="18">
<path d="M209.78 231.07H287.803V248.372H209.78V231.07Z" fill="white"/>
</mask>
<g mask="url(#mask5_5_492)">
<path d="M282.303 232.12H215.28C212.827 232.12 210.839 234.094 210.839 236.529V242.698C210.839 245.133 212.827 247.107 215.28 247.107H282.303C284.756 247.107 286.744 245.133 286.744 242.698V236.529C286.744 234.094 284.756 232.12 282.303 232.12Z" fill="white"/>
<path d="M282.303 248.157H215.28C212.247 248.157 209.78 245.708 209.78 242.698V236.529C209.78 233.519 212.247 231.07 215.28 231.07H282.303C285.335 231.07 287.803 233.519 287.803 236.529V242.698C287.803 245.708 285.336 248.157 282.303 248.157ZM215.28 233.171C213.414 233.171 211.897 234.677 211.897 236.529V242.698C211.897 244.55 213.414 246.056 215.28 246.056H282.303C284.168 246.056 285.686 244.55 285.686 242.698V236.529C285.686 234.677 284.168 233.171 282.303 233.171H215.28Z" fill="#212121"/>
<path d="M219.516 247.633C218.932 247.633 218.458 247.163 218.458 246.583V232.12C218.458 231.54 218.932 231.07 219.516 231.07C220.101 231.07 220.574 231.54 220.574 232.12V246.582C220.574 247.163 220.101 247.633 219.516 247.633Z" fill="#6DA552"/>
<path d="M227.881 247.633C227.296 247.633 226.822 247.163 226.822 246.583V232.12C226.822 231.54 227.296 231.07 227.881 231.07C228.465 231.07 228.939 231.54 228.939 232.12V246.582C228.939 247.163 228.465 247.633 227.881 247.633Z" fill="#6DA552"/>
<path d="M236.245 247.949C235.661 247.949 235.187 247.479 235.187 246.899V232.437C235.187 231.856 235.661 231.386 236.245 231.386C236.829 231.386 237.303 231.856 237.303 232.437V246.899C237.303 247.479 236.829 247.949 236.245 247.949Z" fill="#6DA552"/>
<path d="M244.609 247.949C244.025 247.949 243.551 247.479 243.551 246.899V232.437C243.551 231.856 244.025 231.386 244.609 231.386C245.194 231.386 245.667 231.856 245.667 232.437V246.899C245.667 247.479 245.194 247.949 244.609 247.949Z" fill="#6DA552"/>
<path d="M252.974 247.949C252.389 247.949 251.916 247.479 251.916 246.899V232.437C251.916 231.856 252.389 231.386 252.974 231.386C253.558 231.386 254.032 231.856 254.032 232.437V246.899C254.032 247.479 253.558 247.949 252.974 247.949Z" fill="#6DA552"/>
<path d="M261.338 247.949C260.754 247.949 260.28 247.479 260.28 246.899V232.437C260.28 231.856 260.754 231.386 261.338 231.386C261.922 231.386 262.396 231.856 262.396 232.437V246.899C262.396 247.479 261.922 247.949 261.338 247.949Z" fill="#6DA552"/>
<path d="M269.702 248.372C269.118 248.372 268.644 247.902 268.644 247.322V232.859C268.644 232.279 269.118 231.809 269.702 231.809C270.287 231.809 270.761 232.279 270.761 232.859V247.322C270.761 247.902 270.287 248.372 269.702 248.372Z" fill="#6DA552"/>
<path d="M278.067 248.372C277.482 248.372 277.009 247.902 277.009 247.322V232.859C277.009 232.279 277.482 231.809 278.067 231.809C278.651 231.809 279.125 232.279 279.125 232.859V247.322C279.125 247.902 278.651 248.372 278.067 248.372Z" fill="#6DA552"/>
<path d="M282.303 248.157H215.28C212.247 248.157 209.78 245.708 209.78 242.698V236.529C209.78 233.519 212.247 231.07 215.28 231.07H282.303C285.335 231.07 287.803 233.519 287.803 236.529V242.698C287.803 245.708 285.336 248.157 282.303 248.157ZM215.28 233.171C213.414 233.171 211.897 234.677 211.897 236.529V242.698C211.897 244.55 213.414 246.056 215.28 246.056H282.303C284.168 246.056 285.686 244.55 285.686 242.698V236.529C285.686 234.677 284.168 233.171 282.303 233.171H215.28Z" fill="#212121"/>
</g>
<mask id="mask6_5_492" style="mask-type:luminance" maskUnits="userSpaceOnUse" x="13" y="187" width="105" height="105">
<path d="M13.8813 224.889L80.5675 187.738L117.738 254.413L51.0514 291.564L13.8813 224.889Z" fill="white"/>
</mask>
<g mask="url(#mask6_5_492)">
<path d="M83.8847 272.075C101.795 262.097 108.221 239.492 98.2381 221.585C88.2553 203.678 65.6438 197.25 47.7338 207.227C29.8239 217.205 23.3976 239.81 33.3804 257.717C43.3632 275.625 65.9748 282.053 83.8847 272.075Z" fill="white"/>
<path d="M84.3735 273C75.7715 277.793 65.8252 279.073 56.2565 276.599C46.3847 274.046 38.0974 267.803 32.9212 259.02C27.7451 250.236 26.2999 239.964 28.8516 230.095C31.4032 220.226 37.6464 211.942 46.4312 206.768C55.2199 201.592 65.4908 200.151 75.3624 202.703C85.2341 205.256 93.5214 211.499 98.6976 220.282C103.874 229.066 105.319 239.338 102.767 249.207C100.216 259.076 93.9724 267.36 85.1878 272.534C84.9181 272.693 84.646 272.849 84.3735 273ZM48.2539 208.135C47.9986 208.277 47.7467 208.422 47.4936 208.571C30.3533 218.665 24.6252 240.82 34.7246 257.958C44.6748 274.842 66.3353 280.653 83.3649 271.167C83.6202 271.025 83.8723 270.88 84.1254 270.731C92.4286 265.841 98.3295 258.011 100.741 248.683C103.153 239.355 101.787 229.646 96.8945 221.344C86.9443 204.46 65.283 198.648 48.254 208.135L48.2539 208.135Z" fill="#212121"/>
<path d="M79.9202 264.983C66.2314 272.609 48.8221 267.938 40.8237 254.366C32.706 240.591 37.3103 222.783 51.0874 214.669C64.8631 206.554 82.6772 211.162 90.795 224.936C98.9127 238.711 94.3085 256.519 80.5313 264.633C80.3287 264.752 80.1245 264.869 79.9202 264.983ZM52.717 216.147C52.5265 216.253 52.3387 216.361 52.1498 216.472C39.367 224 35.095 240.523 42.6269 253.304C50.1587 266.085 66.6849 270.358 79.4688 262.83C92.2509 255.302 96.5216 238.779 88.9917 225.998C81.571 213.406 65.4168 209.072 52.717 216.147Z" fill="#6DA552"/>
<path d="M62.811 245.991C63.0879 245.933 63.3779 246.051 63.5206 246.295C64.355 247.722 65.8228 248.378 67.7383 247.976C70.0391 247.494 70.5153 246.243 70.2628 245.039C69.9315 243.459 68.8821 242.903 65.3363 242.698C57.451 242.245 55.0101 239.819 54.1909 235.913C53.1518 230.959 56.6147 226.861 62.5843 225.61C69.1928 224.226 72.9483 226.454 74.4209 230.35C74.5665 230.735 74.3362 231.161 73.933 231.245L68.0174 232.484C67.723 232.546 67.4272 232.402 67.286 232.136C66.7954 231.213 65.9115 230.202 63.6924 230.667C61.7264 231.079 61.3177 232.327 61.5372 233.373C61.8381 234.808 62.8738 235.195 66.9455 235.458C74.4217 235.882 76.8903 238.346 77.7391 242.464C78.898 248.133 75.0729 251.774 68.6774 253.114C61.9675 254.519 57.786 252.208 56.2597 248.147C56.116 247.765 56.3507 247.344 56.7505 247.261L62.811 245.991L62.811 245.991ZM60.1979 227.14L59.6487 224.522C59.5729 224.161 59.8044 223.806 60.1659 223.73L64.2653 222.872C64.6267 222.796 64.9811 223.027 65.057 223.389L65.6063 226.007C65.682 226.369 65.4505 226.723 65.089 226.799L60.9897 227.658C60.6282 227.733 60.2738 227.502 60.1979 227.14ZM66.4588 255.935L65.6124 251.899C65.5367 251.538 65.7682 251.183 66.1296 251.108L70.2556 250.243C70.617 250.167 70.9714 250.399 71.0474 250.76L71.8938 254.796C71.9696 255.158 71.7381 255.512 71.3766 255.588L67.2506 256.452C66.8892 256.528 66.5348 256.296 66.4588 255.935Z" fill="#212121"/>
</g>
<mask id="mask7_5_492" style="mask-type:luminance" maskUnits="userSpaceOnUse" x="51" y="154" width="69" height="68">
<path d="M51.2238 154.186H119.057V222H51.2238V154.186Z" fill="white"/>
</mask>
<g mask="url(#mask7_5_492)">
<path d="M85.1404 220.919C103.275 220.919 117.975 206.222 117.975 188.093C117.975 169.964 103.275 155.267 85.1404 155.267C67.0062 155.267 52.3055 169.964 52.3055 188.093C52.3055 206.222 67.0062 220.919 85.1404 220.919Z" fill="#6DA552"/>
<path d="M85.1329 222.01C80.5616 222.01 75.9975 221.073 71.6759 219.204C63.3634 215.609 56.9491 208.992 53.6144 200.574C50.2796 192.155 50.4239 182.942 54.0203 174.632C57.6168 166.322 64.2351 159.91 72.656 156.576C81.0768 153.242 90.2922 153.386 98.6048 156.982C106.917 160.577 113.332 167.194 116.666 175.612C120.001 184.031 119.857 193.243 116.26 201.554C112.664 209.864 106.046 216.276 97.6248 219.61C93.582 221.21 89.3544 222.009 85.133 222.01L85.1329 222.01ZM85.1472 156.323C81.1925 156.323 77.2336 157.071 73.446 158.571C57.1629 165.017 49.1614 183.505 55.6097 199.784C60.5431 212.238 72.528 219.846 85.1785 219.847C89.0629 219.847 93.0093 219.13 96.8348 217.615C104.723 214.492 110.922 208.486 114.291 200.702C117.66 192.918 117.795 184.288 114.671 176.402C111.548 168.516 105.539 162.319 97.7528 158.951C93.7052 157.2 89.4289 156.323 85.1475 156.323H85.1472Z" fill="#212121"/>
<path d="M85.1348 213.895C81.6572 213.895 78.1849 213.183 74.8973 211.761C68.5736 209.026 63.6937 203.992 61.1568 197.588C58.62 191.184 58.7295 184.175 61.4656 177.853C64.2017 171.531 69.2365 166.652 75.6428 164.116C82.049 161.58 89.0597 161.69 95.3836 164.425C101.707 167.16 106.587 172.194 109.124 178.598C114.361 191.819 107.863 206.835 94.6381 212.07C91.5624 213.288 88.3463 213.895 85.1348 213.895ZM85.1456 164.437C82.201 164.437 79.2531 164.994 76.4329 166.111C70.5596 168.436 65.9437 172.909 63.4352 178.705C60.9266 184.501 60.8262 190.926 63.152 196.798C65.4779 202.67 69.9517 207.284 75.7494 209.792C81.547 212.3 87.9744 212.4 93.8479 210.075C105.972 205.275 111.93 191.509 107.129 179.388C104.803 173.516 100.329 168.902 94.5315 166.394C91.5176 165.09 88.3335 164.437 85.1456 164.437Z" fill="white"/>
<path d="M84.6694 194.278C84.8798 194.142 85.1566 194.148 85.3517 194.304C86.4923 195.219 87.9119 195.296 89.3671 194.359C91.1149 193.233 91.1125 192.049 90.5232 191.135C89.7499 189.935 88.7071 189.807 85.714 190.759C79.0582 192.879 76.2749 191.647 74.3626 188.68C71.9375 184.917 73.5014 180.437 78.0361 177.516C83.0564 174.282 86.8628 174.935 89.3114 177.687C89.5535 177.96 89.4978 178.384 89.1915 178.581L84.6978 181.475C84.474 181.62 84.1843 181.594 83.9836 181.419C83.2863 180.812 82.2366 180.257 80.5508 181.342C79.0575 182.304 79.1144 183.464 79.6269 184.259C80.3292 185.349 81.3068 185.341 84.7529 184.27C91.0617 182.256 93.8801 183.511 95.8836 186.644C98.6338 190.959 96.6261 195.176 91.7679 198.305C86.6707 201.588 82.4861 201.002 79.9411 198.131C79.7014 197.86 79.7623 197.439 80.066 197.243L84.67 194.278L84.6697 194.278L84.6694 194.278ZM76.5488 179.535L75.2669 177.546C75.09 177.271 75.1692 176.906 75.4438 176.729L78.5578 174.723C78.8323 174.546 79.1983 174.625 79.3753 174.9L80.6571 176.889C80.8341 177.163 80.7548 177.529 80.4803 177.706L77.3663 179.712C77.0918 179.889 76.7258 179.809 76.5488 179.535ZM90.8275 201.337L88.8519 198.271C88.6749 197.997 88.7542 197.631 89.0287 197.454L92.1629 195.435C92.4374 195.258 92.8034 195.337 92.9803 195.612L94.956 198.678C95.1329 198.952 95.0537 199.318 94.7791 199.495L91.645 201.514C91.3704 201.691 91.0045 201.611 90.8275 201.337Z" fill="white"/>
</g>
<mask id="mask8_5_492" style="mask-type:luminance" maskUnits="userSpaceOnUse" x="210" y="261" width="79" height="18">
<path d="M210.06 261.07H288.082V278.372H210.06V261.07Z" fill="white"/>
</mask>
<g mask="url(#mask8_5_492)">
<path d="M282.582 262.12H215.559C213.106 262.12 211.118 264.094 211.118 266.529V272.698C211.118 275.133 213.106 277.107 215.559 277.107H282.582C285.035 277.107 287.023 275.133 287.023 272.698V266.529C287.023 264.094 285.035 262.12 282.582 262.12Z" fill="white"/>
<path d="M282.582 278.157H215.559C212.527 278.157 210.06 275.708 210.06 272.698V266.529C210.06 263.519 212.527 261.07 215.559 261.07H282.582C285.615 261.07 288.082 263.519 288.082 266.529V272.698C288.082 275.708 285.615 278.157 282.582 278.157ZM215.559 263.171C213.693 263.171 212.176 264.677 212.176 266.529V272.698C212.176 274.55 213.693 276.056 215.559 276.056H282.582C284.448 276.056 285.965 274.55 285.965 272.698V266.529C285.965 264.677 284.448 263.171 282.582 263.171H215.559Z" fill="#212121"/>
<path d="M219.795 277.633C219.211 277.633 218.737 277.163 218.737 276.583V262.12C218.737 261.54 219.211 261.07 219.795 261.07C220.38 261.07 220.854 261.54 220.854 262.12V276.582C220.854 277.163 220.38 277.633 219.795 277.633Z" fill="#6DA552"/>
<path d="M228.16 277.633C227.575 277.633 227.101 277.163 227.101 276.583V262.12C227.101 261.54 227.575 261.07 228.16 261.07C228.744 261.07 229.218 261.54 229.218 262.12V276.582C229.218 277.163 228.744 277.633 228.16 277.633Z" fill="#6DA552"/>
<path d="M236.524 277.949C235.94 277.949 235.466 277.479 235.466 276.899V262.437C235.466 261.856 235.94 261.386 236.524 261.386C237.108 261.386 237.582 261.856 237.582 262.437V276.899C237.582 277.479 237.108 277.949 236.524 277.949Z" fill="#6DA552"/>
<path d="M244.888 277.949C244.304 277.949 243.83 277.479 243.83 276.899V262.437C243.83 261.856 244.304 261.386 244.888 261.386C245.473 261.386 245.947 261.856 245.947 262.437V276.899C245.947 277.479 245.473 277.949 244.888 277.949Z" fill="#6DA552"/>
<path d="M253.253 277.949C252.668 277.949 252.195 277.479 252.195 276.899V262.437C252.195 261.856 252.668 261.386 253.253 261.386C253.837 261.386 254.311 261.856 254.311 262.437V276.899C254.311 277.479 253.837 277.949 253.253 277.949Z" fill="#6DA552"/>
<path d="M261.617 277.949C261.033 277.949 260.559 277.479 260.559 276.899V262.437C260.559 261.856 261.033 261.386 261.617 261.386C262.201 261.386 262.675 261.856 262.675 262.437V276.899C262.675 277.479 262.201 277.949 261.617 277.949Z" fill="#6DA552"/>
<path d="M269.982 278.372C269.397 278.372 268.923 277.902 268.923 277.322V262.859C268.923 262.279 269.397 261.809 269.982 261.809C270.566 261.809 271.04 262.279 271.04 262.859V277.322C271.04 277.902 270.566 278.372 269.982 278.372Z" fill="#6DA552"/>
<path d="M278.346 278.372C277.761 278.372 277.288 277.902 277.288 277.322V262.859C277.288 262.279 277.761 261.809 278.346 261.809C278.93 261.809 279.404 262.279 279.404 262.859V277.322C279.404 277.902 278.93 278.372 278.346 278.372Z" fill="#6DA552"/>
<path d="M282.582 278.157H215.559C212.527 278.157 210.06 275.708 210.06 272.698V266.529C210.06 263.519 212.527 261.07 215.559 261.07H282.582C285.615 261.07 288.082 263.519 288.082 266.529V272.698C288.082 275.708 285.615 278.157 282.582 278.157ZM215.559 263.171C213.693 263.171 212.176 264.677 212.176 266.529V272.698C212.176 274.55 213.693 276.056 215.559 276.056H282.582C284.448 276.056 285.965 274.55 285.965 272.698V266.529C285.965 264.677 284.448 263.171 282.582 263.171H215.559Z" fill="#212121"/>
</g>
<mask id="mask9_5_492" style="mask-type:luminance" maskUnits="userSpaceOnUse" x="90" y="22" width="141" height="257">
<path d="M90.7234 22.8837H230.717V278.233H90.7234V22.8837Z" fill="white"/>
</mask>
<g mask="url(#mask9_5_492)">
<path d="M205.304 23.9303H105.75C98.0301 23.9303 91.7718 30.1778 91.7718 37.8845V263.232C91.7718 270.938 98.0301 277.186 105.75 277.186H205.304C213.024 277.186 219.282 270.938 219.282 263.232V37.8845C219.282 30.1778 213.024 23.9303 205.304 23.9303Z" fill="#212121"/>
<path d="M205.304 278.233H105.75C97.461 278.233 90.7234 271.507 90.7234 263.232V37.8845C90.7234 29.6097 97.461 22.8837 105.75 22.8837H205.304C213.593 22.8837 220.331 29.6097 220.331 37.8845V263.232C220.331 271.507 213.593 278.233 205.304 278.233ZM105.75 24.9769C98.6212 24.9769 92.8201 30.7679 92.8201 37.8845V263.232C92.8201 270.348 98.6212 276.139 105.75 276.139H205.304C212.433 276.139 218.234 270.348 218.234 263.232V37.8845C218.234 30.7679 212.433 24.9769 205.304 24.9769H105.75Z" fill="#212121"/>
<path d="M215.69 23.9303H116.136C108.416 23.9303 102.158 30.1778 102.158 37.8845V263.232C102.158 270.938 108.416 277.186 116.136 277.186H215.69C223.41 277.186 229.668 270.938 229.668 263.232V37.8845C229.668 30.1778 223.41 23.9303 215.69 23.9303Z" fill="white"/>
<path d="M215.69 278.233H116.136C107.847 278.233 101.109 271.507 101.109 263.232V37.8845C101.109 29.6097 107.847 22.8837 116.136 22.8837H215.69C223.979 22.8837 230.717 29.6097 230.717 37.8845V263.232C230.717 271.507 223.979 278.233 215.69 278.233ZM116.136 24.9769C109.007 24.9769 103.206 30.7679 103.206 37.8845V263.232C103.206 270.348 109.007 276.139 116.136 276.139H215.69C222.819 276.139 228.62 270.348 228.62 263.232V37.8845C228.62 30.7679 222.819 24.9769 215.69 24.9769H116.136Z" fill="#212121"/>
<path d="M178.647 30.6562H153.179C150.886 30.6562 149.041 32.5122 149.041 34.7867C149.041 37.0612 150.9 38.9172 153.179 38.9172H178.647C180.94 38.9172 182.785 37.0612 182.785 34.7867C182.785 32.5122 180.926 30.6562 178.647 30.6562Z" fill="#212121"/>
<path d="M178.647 39.9637H153.179C150.313 39.9637 147.993 37.6473 147.993 34.7867C147.993 31.9261 150.313 29.6097 153.179 29.6097H178.647C181.513 29.6097 183.833 31.9261 183.833 34.7867C183.833 37.6473 181.513 39.9637 178.647 39.9637ZM153.179 31.7028C151.473 31.7028 150.089 33.0843 150.089 34.7867C150.089 36.4891 151.473 37.8706 153.179 37.8706H178.647C180.353 37.8706 181.736 36.4891 181.736 34.7867C181.736 33.0843 180.353 31.7028 178.647 31.7028H153.179Z" fill="#212121"/>
<path d="M116.136 277.186H215.69C223.406 277.186 229.668 270.934 229.668 263.232V239.97H102.158V263.232C102.158 270.934 108.42 277.186 116.136 277.186Z" fill="white"/>
<path d="M186.335 272.274H145.491C144.918 272.274 144.442 271.8 144.442 271.227C144.442 270.655 144.918 270.181 145.491 270.181H186.335C186.908 270.181 187.384 270.655 187.384 271.227C187.384 271.8 186.908 272.274 186.335 272.274Z" fill="#212121"/>
<path d="M229.668 241.017H102.158C101.585 241.017 101.109 240.542 101.109 239.97C101.109 239.398 101.585 238.923 102.158 238.923H229.668C230.241 238.923 230.717 239.398 230.717 239.97C230.717 240.542 230.241 241.017 229.668 241.017Z" fill="#212121"/>
<path d="M155.191 261.906H145.686C144.344 261.906 143.24 260.804 143.24 259.464V251.943C143.24 250.603 144.344 249.501 145.686 249.501H155.191C156.533 249.501 157.638 250.603 157.638 251.943V259.464C157.638 260.804 156.533 261.906 155.191 261.906ZM145.686 251.594C145.491 251.594 145.337 251.747 145.337 251.943V259.464C145.337 259.659 145.491 259.813 145.686 259.813H155.191C155.387 259.813 155.541 259.659 155.541 259.464V251.943C155.541 251.747 155.387 251.594 155.191 251.594H145.686Z" fill="#212121"/>
<path d="M156.589 257.176H154.283C153.444 257.176 152.773 256.492 152.773 255.669C152.773 254.845 153.458 254.161 154.283 254.161H156.589V257.19V257.176Z" fill="#212121"/>
<path d="M186.699 261.906H177.194C175.852 261.906 174.747 260.804 174.747 259.464V251.943C174.747 250.603 175.852 249.501 177.194 249.501H186.699C188.041 249.501 189.145 250.603 189.145 251.943V259.464C189.145 260.804 188.041 261.906 186.699 261.906ZM177.194 251.594C176.998 251.594 176.844 251.747 176.844 251.943V259.464C176.844 259.659 176.998 259.813 177.194 259.813H186.699C186.895 259.813 187.048 259.659 187.048 259.464V251.943C187.048 251.747 186.895 251.594 186.699 251.594H177.194Z" fill="#212121"/>
<path d="M181.946 256.743C177.836 256.743 174.747 254.887 174.747 252.431C174.747 249.975 175.222 251.385 175.796 251.385C176.369 251.385 176.844 251.859 176.844 252.431C176.844 253.338 178.829 254.65 181.946 254.65C185.063 254.65 187.048 253.338 187.048 252.431C187.048 251.524 187.523 251.385 188.097 251.385C188.67 251.385 189.145 251.859 189.145 252.431C189.145 254.887 186.056 256.743 181.946 256.743Z" fill="#212121"/>
<path d="M213.439 256.073C211.357 256.073 209.665 254.385 209.665 252.306C209.665 250.226 211.357 248.538 213.439 248.538C215.522 248.538 217.213 250.226 217.213 252.306C217.213 254.385 215.522 256.073 213.439 256.073ZM213.439 250.617C212.517 250.617 211.762 251.371 211.762 252.292C211.762 253.213 212.517 253.966 213.439 253.966C214.362 253.966 215.117 253.213 215.117 252.292C215.117 251.371 214.362 250.617 213.439 250.617Z" fill="#212121"/>
<path d="M216.375 262.869H210.518C208.854 262.869 207.499 261.515 207.499 259.855V258.78H207.582C208.1 255.822 210.783 254.287 213.439 254.287C214.963 254.287 216.389 254.775 217.465 255.655C218.723 256.673 219.38 258.124 219.38 259.841V259.869C219.38 261.529 218.024 262.883 216.361 262.883L216.375 262.869ZM209.595 259.883C209.595 260.385 210.015 260.776 210.518 260.776H216.375C216.878 260.776 217.297 260.357 217.297 259.855V259.827C217.297 258.752 216.906 257.887 216.151 257.259C215.466 256.701 214.474 256.366 213.453 256.366C211.538 256.366 209.609 257.441 209.609 259.813V259.869L209.595 259.883Z" fill="#212121"/>
<path d="M123.587 253.715L118.946 249.543L114.305 253.715C113.788 254.175 113.494 254.831 113.494 255.515V260.72C113.494 261.362 114.011 261.878 114.654 261.878H123.237C123.88 261.878 124.397 261.362 124.397 260.72V255.515C124.397 254.831 124.104 254.175 123.587 253.715Z" fill="#6DA552"/>
<path d="M123.237 262.911H114.654C113.438 262.911 112.446 261.92 112.446 260.706V255.501C112.446 254.524 112.865 253.575 113.592 252.92L118.233 248.747C118.638 248.384 119.239 248.384 119.631 248.747L124.271 252.92C124.998 253.575 125.418 254.524 125.418 255.501V260.706C125.418 261.92 124.425 262.911 123.209 262.911H123.237ZM118.932 250.952L114.99 254.496C114.696 254.761 114.529 255.138 114.529 255.515V260.72C114.529 260.776 114.57 260.832 114.64 260.832H123.223C123.279 260.832 123.335 260.79 123.335 260.72V255.515C123.335 255.124 123.167 254.748 122.874 254.496L118.932 250.952Z" fill="#6DA552"/>
<path d="M118.974 58.7043C123.251 58.7043 126.718 55.2431 126.718 50.9736C126.718 46.7041 123.251 43.243 118.974 43.243C114.697 43.243 111.23 46.7041 111.23 50.9736C111.23 55.2431 114.697 58.7043 118.974 58.7043Z" fill="white"/>
<path d="M118.974 59.7508C114.123 59.7508 110.181 55.8157 110.181 50.9736C110.181 46.1315 114.123 42.1964 118.974 42.1964C123.824 42.1964 127.766 46.1315 127.766 50.9736C127.766 55.8157 123.824 59.7508 118.974 59.7508ZM118.974 44.2895C115.283 44.2895 112.278 47.2897 112.278 50.9736C112.278 54.6575 115.283 57.6577 118.974 57.6577C122.664 57.6577 125.669 54.6575 125.669 50.9736C125.669 47.2897 122.664 44.2895 118.974 44.2895Z" fill="#6DA552"/>
<path d="M220.89 56.1786H210.686C210.266 56.1786 209.875 55.9692 209.651 55.6064C209.428 55.2436 209.4 54.811 209.581 54.4203L210.518 52.5365V50.3317C210.518 47.4432 212.726 45.071 215.536 44.9314C216.99 44.8617 218.374 45.378 219.436 46.3827C220.484 47.3874 221.072 48.7409 221.072 50.1922V52.5225L222.008 54.3924C222.19 54.7831 222.162 55.2297 221.938 55.5785C221.715 55.9413 221.323 56.1507 220.904 56.1507L220.89 56.1786Z" fill="black"/>
<path d="M215.788 58.3694C216.984 58.3694 217.954 57.401 217.954 56.2065C217.954 55.0119 216.984 54.0436 215.788 54.0436C214.591 54.0436 213.621 55.0119 213.621 56.2065C213.621 57.401 214.591 58.3694 215.788 58.3694Z" fill="black"/>
<path d="M215.746 45.9082C216.278 45.9082 216.71 45.4772 216.71 44.9454C216.71 44.4136 216.278 43.9825 215.746 43.9825C215.213 43.9825 214.781 44.4136 214.781 44.9454C214.781 45.4772 215.213 45.9082 215.746 45.9082Z" fill="black"/>
<path d="M215.69 278.233H116.136C107.847 278.233 101.109 271.507 101.109 263.232V37.8845C101.109 29.6097 107.847 22.8837 116.136 22.8837H215.69C223.979 22.8837 230.717 29.6097 230.717 37.8845V263.232C230.717 271.507 223.979 278.233 215.69 278.233ZM116.136 24.9769C109.007 24.9769 103.206 30.7679 103.206 37.8845V263.232C103.206 270.348 109.007 276.139 116.136 276.139H215.69C222.819 276.139 228.62 270.348 228.62 263.232V37.8845C228.62 30.7679 222.819 24.9769 215.69 24.9769H116.136Z" fill="#212121"/>
<path d="M185.497 214.503H141.661C141.087 214.503 140.612 214.029 140.612 213.457C140.612 212.885 141.087 212.41 141.661 212.41H185.497C186.07 212.41 186.545 212.885 186.545 213.457C186.545 214.029 186.07 214.503 185.497 214.503Z" fill="#212121"/>
<path d="M172.049 223.546H141.661C141.087 223.546 140.612 223.071 140.612 222.499C140.612 221.927 141.087 221.453 141.661 221.453H172.049C172.623 221.453 173.098 221.927 173.098 222.499C173.098 223.071 172.623 223.546 172.049 223.546Z" fill="#212121"/>
<path d="M220.54 223.546H204.759C204.186 223.546 203.71 223.071 203.71 222.499C203.71 221.927 204.186 221.453 204.759 221.453H220.54C221.114 221.453 221.589 221.927 221.589 222.499C221.589 223.071 221.114 223.546 220.54 223.546Z" fill="#212121"/>
<path d="M122.077 228.807C128.068 228.807 132.924 223.959 132.924 217.978C132.924 211.998 128.068 207.15 122.077 207.15C116.086 207.15 111.23 211.998 111.23 217.978C111.23 223.959 116.086 228.807 122.077 228.807Z" fill="#B9D5AD"/>
<path d="M122.077 229.853C115.521 229.853 110.181 224.523 110.181 217.978C110.181 211.434 115.521 206.103 122.077 206.103C128.633 206.103 133.972 211.434 133.972 217.978C133.972 224.523 128.633 229.853 122.077 229.853ZM122.077 208.196C116.667 208.196 112.278 212.592 112.278 217.978C112.278 223.364 116.681 227.76 122.077 227.76C127.472 227.76 131.876 223.364 131.876 217.978C131.876 212.592 127.472 208.196 122.077 208.196Z" fill="#212121"/>
<path d="M122.105 224.397C121.532 224.397 121.056 223.923 121.056 223.35V212.606C121.056 212.034 121.532 211.559 122.105 211.559C122.678 211.559 123.153 212.034 123.153 212.606V223.35C123.153 223.923 122.678 224.397 122.105 224.397Z" fill="#6DA552"/>
<path d="M122.818 224.118H121.406L118.023 221.02C117.59 220.629 117.562 219.974 117.953 219.541C118.345 219.108 119.002 219.081 119.435 219.471L122.119 221.913L124.803 219.471C125.236 219.081 125.893 219.108 126.284 219.541C126.676 219.974 126.648 220.629 126.214 221.02L122.832 224.118H122.818Z" fill="#6DA552"/>
<path d="M185.497 182.13H141.661C141.087 182.13 140.612 181.655 140.612 181.083C140.612 180.511 141.087 180.036 141.661 180.036H185.497C186.07 180.036 186.545 180.511 186.545 181.083C186.545 181.655 186.07 182.13 185.497 182.13Z" fill="#212121"/>
<path d="M172.049 191.172H141.661C141.087 191.172 140.612 190.698 140.612 190.125C140.612 189.553 141.087 189.079 141.661 189.079H172.049C172.623 189.079 173.098 189.553 173.098 190.125C173.098 190.698 172.623 191.172 172.049 191.172Z" fill="#212121"/>
<path d="M220.54 191.172H204.759C204.186 191.172 203.71 190.698 203.71 190.125C203.71 189.553 204.186 189.079 204.759 189.079H220.54C221.114 189.079 221.589 189.553 221.589 190.125C221.589 190.698 221.114 191.172 220.54 191.172Z" fill="#212121"/>
<path d="M122.077 196.433C128.068 196.433 132.924 191.585 132.924 185.604C132.924 179.624 128.068 174.776 122.077 174.776C116.086 174.776 111.23 179.624 111.23 185.604C111.23 191.585 116.086 196.433 122.077 196.433Z" fill="#B9D5AD"/>
<path d="M122.077 197.479C115.521 197.479 110.181 192.149 110.181 185.604C110.181 179.06 115.521 173.729 122.077 173.729C128.633 173.729 133.972 179.06 133.972 185.604C133.972 192.149 128.633 197.479 122.077 197.479ZM122.077 175.808C116.667 175.808 112.278 180.204 112.278 185.59C112.278 190.977 116.681 195.372 122.077 195.372C127.472 195.372 131.876 190.977 131.876 185.59C131.876 180.204 127.472 175.808 122.077 175.808Z" fill="#212121"/>
<path d="M122.776 180.692H121.364V190.516H122.776V180.692Z" fill="#6DA552"/>
<path d="M122.79 179.646H121.378C120.799 179.646 120.33 180.114 120.33 180.692V190.516C120.33 191.094 120.799 191.563 121.378 191.563H122.79C123.369 191.563 123.838 191.094 123.838 190.516V180.692C123.838 180.114 123.369 179.646 122.79 179.646Z" fill="#6DA552"/>
<path d="M126.997 184.893H117.156V186.302H126.997V184.893Z" fill="#6DA552"/>
<path d="M126.997 183.846H117.156C116.577 183.846 116.108 184.315 116.108 184.893V186.302C116.108 186.88 116.577 187.348 117.156 187.348H126.997C127.576 187.348 128.046 186.88 128.046 186.302V184.893C128.046 184.315 127.576 183.846 126.997 183.846Z" fill="#6DA552"/>
<path d="M185.497 149.742H141.661C141.087 149.742 140.612 149.267 140.612 148.695C140.612 148.123 141.087 147.649 141.661 147.649H185.497C186.07 147.649 186.545 148.123 186.545 148.695C186.545 149.267 186.07 149.742 185.497 149.742Z" fill="#212121"/>
<path d="M172.049 158.798H141.661C141.087 158.798 140.612 158.324 140.612 157.752C140.612 157.179 141.087 156.705 141.661 156.705H172.049C172.623 156.705 173.098 157.179 173.098 157.752C173.098 158.324 172.623 158.798 172.049 158.798Z" fill="#212121"/>
<path d="M220.54 158.798H204.759C204.186 158.798 203.71 158.324 203.71 157.752C203.71 157.179 204.186 156.705 204.759 156.705H220.54C221.114 156.705 221.589 157.179 221.589 157.752C221.589 158.324 221.114 158.798 220.54 158.798Z" fill="#212121"/>
<path d="M122.077 164.045C128.068 164.045 132.924 159.197 132.924 153.216C132.924 147.236 128.068 142.388 122.077 142.388C116.086 142.388 111.23 147.236 111.23 153.216C111.23 159.197 116.086 164.045 122.077 164.045Z" fill="#B9D5AD"/>
<path d="M122.077 165.105C115.521 165.105 110.181 159.775 110.181 153.23C110.181 146.686 115.521 141.355 122.077 141.355C128.633 141.355 133.972 146.686 133.972 153.23C133.972 159.775 128.633 165.105 122.077 165.105ZM122.077 143.435C116.667 143.435 112.278 147.83 112.278 153.216C112.278 158.603 116.681 162.998 122.077 162.998C127.472 162.998 131.876 158.603 131.876 153.216C131.876 147.83 127.472 143.435 122.077 143.435Z" fill="#212121"/>
<path d="M123.796 152.156C123.796 152.156 124.23 149.812 124.23 148.416V147.439C124.23 147.439 123.642 149.184 122.091 149.184C120.539 149.184 119.952 147.439 119.952 147.439V148.416C119.952 149.812 120.385 152.156 120.385 152.156C119.561 152.979 119.099 154.096 119.099 155.254V158.142H125.096V155.254C125.096 154.096 124.635 152.979 123.81 152.156H123.796Z" fill="#6DA552"/>
<path d="M125.082 159.203H119.085C118.512 159.203 118.037 158.728 118.037 158.156V155.268C118.037 154.012 118.47 152.812 119.253 151.849C119.127 151.054 118.89 149.505 118.89 148.43V147.453C118.89 146.937 119.267 146.504 119.77 146.421C120.274 146.337 120.763 146.63 120.931 147.118C120.931 147.118 121.308 148.151 122.077 148.151C122.846 148.151 123.223 147.118 123.223 147.104C123.391 146.616 123.88 146.323 124.383 146.407C124.887 146.49 125.264 146.937 125.264 147.439V148.416C125.264 149.491 125.04 151.04 124.9 151.835C125.683 152.798 126.117 153.998 126.117 155.254V158.142C126.117 158.714 125.641 159.189 125.068 159.189L125.082 159.203ZM120.12 157.11H124.02V155.268C124.02 154.375 123.67 153.537 123.041 152.909C122.804 152.672 122.692 152.323 122.748 151.988C122.748 151.975 122.916 151.081 123.027 150.105C122.734 150.202 122.412 150.258 122.063 150.258C121.713 150.258 121.392 150.202 121.098 150.105C121.224 151.081 121.378 151.975 121.378 151.988C121.434 152.323 121.336 152.672 121.084 152.909C120.455 153.537 120.106 154.375 120.106 155.268V157.11H120.12Z" fill="#6DA552"/>
<path d="M148.496 128.615H111.23C110.657 128.615 110.181 128.141 110.181 127.569C110.181 126.996 110.657 126.522 111.23 126.522H148.51C149.083 126.522 149.558 126.996 149.558 127.569C149.558 128.141 149.083 128.615 148.51 128.615H148.496Z" fill="#212121"/>
<path d="M172.944 71.584H116.821C113.733 71.584 111.23 74.0831 111.23 77.1657V108.591C111.23 111.673 113.733 114.172 116.821 114.172H172.944C176.032 114.172 178.535 111.673 178.535 108.591V77.1657C178.535 74.0831 176.032 71.584 172.944 71.584Z" fill="#6DA552"/>
<path d="M172.944 115.219H116.821C113.159 115.219 110.181 112.247 110.181 108.591V77.1657C110.181 73.5097 113.159 70.5375 116.821 70.5375H172.944C176.606 70.5375 179.584 73.5097 179.584 77.1657V108.591C179.584 112.247 176.606 115.219 172.944 115.219ZM116.821 72.6306C114.319 72.6306 112.278 74.6679 112.278 77.1657V108.591C112.278 111.089 114.319 113.126 116.821 113.126H172.944C175.446 113.126 177.487 111.089 177.487 108.591V77.1657C177.487 74.6679 175.446 72.6306 172.944 72.6306H116.821Z" fill="#212121"/>
<path d="M127.612 101.404H118.974C118.401 101.404 117.925 100.93 117.925 100.358C117.925 99.7856 118.401 99.3111 118.974 99.3111H127.612C128.185 99.3111 128.661 99.7856 128.661 100.358C128.661 100.93 128.185 101.404 127.612 101.404Z" fill="white"/>
<path d="M141.996 101.404H133.357C132.784 101.404 132.309 100.93 132.309 100.358C132.309 99.7856 132.784 99.3111 133.357 99.3111H141.996C142.569 99.3111 143.044 99.7856 143.044 100.358C143.044 100.93 142.569 101.404 141.996 101.404Z" fill="white"/>
<path d="M156.394 101.404H147.755C147.182 101.404 146.707 100.93 146.707 100.358C146.707 99.7856 147.182 99.3111 147.755 99.3111H156.394C156.967 99.3111 157.442 99.7856 157.442 100.358C157.442 100.93 156.967 101.404 156.394 101.404Z" fill="white"/>
<path d="M170.777 101.404H162.139C161.566 101.404 161.09 100.93 161.09 100.358C161.09 99.7856 161.566 99.3111 162.139 99.3111H170.777C171.351 99.3111 171.826 99.7856 171.826 100.358C171.826 100.93 171.351 101.404 170.777 101.404Z" fill="white"/>
<path d="M130.324 78.2402H123.195C120.204 78.2402 117.772 80.6683 117.772 83.6545C117.772 86.6407 120.204 89.0687 123.195 89.0687H130.324C133.315 89.0687 135.748 86.6407 135.748 83.6545C135.748 80.6683 133.315 78.2402 130.324 78.2402Z" fill="white"/>
<path d="M247.071 71.584H190.948C187.86 71.584 185.357 74.0831 185.357 77.1657V108.591C185.357 111.673 187.86 114.172 190.948 114.172H247.071C250.159 114.172 252.663 111.673 252.663 108.591V77.1657C252.663 74.0831 250.159 71.584 247.071 71.584Z" fill="white"/>
<path d="M190.948 115.219C187.286 115.219 184.309 112.247 184.309 108.591V77.1657C184.309 73.5097 187.286 70.5375 190.948 70.5375H247.071C250.734 70.5375 253.711 73.5097 253.711 77.1657V108.591C253.711 112.247 250.734 115.219 247.071 115.219H190.948ZM247.071 72.6306H190.948C188.446 72.6306 186.405 74.6679 186.405 77.1657V108.591C186.405 111.089 188.446 113.126 190.948 113.126H247.071C249.574 113.126 251.614 111.089 251.614 108.591V77.1657C251.614 74.6679 249.574 72.6306 247.071 72.6306Z" fill="#212121"/>
<path d="M201.739 101.404H193.101C192.528 101.404 192.052 100.93 192.052 100.358C192.052 99.7856 192.528 99.3111 193.101 99.3111H201.739C202.313 99.3111 202.788 99.7856 202.788 100.358C202.788 100.93 202.313 101.404 201.739 101.404Z" fill="#212121"/>
<path d="M216.137 101.404H207.499C206.925 101.404 206.45 100.93 206.45 100.358C206.45 99.7856 206.925 99.3111 207.499 99.3111H216.137C216.71 99.3111 217.186 99.7856 217.186 100.358C217.186 100.93 216.71 101.404 216.137 101.404Z" fill="#212121"/>
<path d="M230.521 101.404H221.882C221.309 101.404 220.834 100.93 220.834 100.358C220.834 99.7856 221.309 99.3111 221.882 99.3111H230.521C231.094 99.3111 231.569 99.7856 231.569 100.358C231.569 100.93 231.094 101.404 230.521 101.404Z" fill="#212121"/>
<path d="M204.451 78.2402H197.322C194.331 78.2402 191.899 80.6683 191.899 83.6545C191.899 86.6407 194.331 89.0687 197.322 89.0687H204.451C207.443 89.0687 209.875 86.6407 209.875 83.6545C209.875 80.6683 207.443 78.2402 204.451 78.2402Z" fill="#212121"/>
</g>
<mask id="mask10_5_492" style="mask-type:luminance" maskUnits="userSpaceOnUse" x="228" y="61" width="3" height="63">
<path d="M230.786 61.1861V123.14H228.693V61.1861H230.786Z" fill="white"/>
</mask>
<g mask="url(#mask10_5_492)">
<path d="M229.74 61.1861L229.74 389.093" stroke="#212121" stroke-width="15"/>
</g>
</svg>
