<svg width="362" height="300" viewBox="0 0 362 300" fill="none" xmlns="http://www.w3.org/2000/svg">
<g clip-path="url(#clip0_5_862)">
<path d="M244.989 259.316C244.871 259.316 244.754 259.289 244.649 259.237L147.928 212.022L80.8876 258.409C80.7185 258.526 80.5099 258.572 80.3076 258.535C80.1053 258.498 79.9258 258.383 79.8086 258.214L25.2933 179.629C25.2091 179.508 25.1612 179.365 25.1554 179.217C25.1497 179.07 25.1861 178.924 25.2606 178.796L81.3761 82.5983C81.4315 82.5033 81.5065 82.4211 81.5961 82.3573C81.6857 82.2934 81.7878 82.2494 81.8958 82.2281L236.303 51.7051C236.434 51.6792 236.569 51.6875 236.696 51.7291C236.822 51.7708 236.936 51.8443 237.026 51.9427L336.766 161.057C336.898 161.202 336.97 161.391 336.969 161.586C336.967 161.782 336.892 161.97 336.758 162.113L245.554 259.072C245.482 259.149 245.394 259.21 245.297 259.252C245.199 259.294 245.095 259.316 244.989 259.316ZM147.861 210.349C147.977 210.349 148.093 210.375 148.201 210.428L244.816 257.592L335.135 161.573L236.175 53.3125L82.5401 83.6829L26.8503 179.151L80.6421 256.692L147.419 210.487C147.549 210.397 147.703 210.349 147.861 210.349L147.861 210.349Z" fill="#6DA552"/>
<path d="M244.991 259.316H244.988L80.4833 258.592C80.2775 258.591 80.0803 258.509 79.9351 258.363C79.7899 258.217 79.7085 258.02 79.709 257.814C79.7094 257.608 79.7916 257.411 79.9374 257.265C80.0833 257.12 80.2808 257.039 80.4866 257.039H80.4901L244.995 257.764C245.2 257.764 245.398 257.846 245.543 257.992C245.688 258.138 245.769 258.336 245.769 258.541C245.769 258.747 245.686 258.944 245.541 259.09C245.395 259.235 245.197 259.316 244.991 259.316ZM147.893 211.923C147.828 211.923 147.761 211.915 147.695 211.898L25.7137 179.923C25.5155 179.87 25.3463 179.741 25.2431 179.563C25.1399 179.386 25.1112 179.175 25.1632 178.976C25.2152 178.778 25.3437 178.608 25.5206 178.504C25.6975 178.4 25.9084 178.37 26.1071 178.421L148.089 210.396C148.271 210.444 148.43 210.556 148.536 210.713C148.641 210.869 148.686 211.059 148.662 211.246C148.638 211.433 148.547 211.605 148.405 211.73C148.263 211.854 148.081 211.923 147.893 211.923L147.893 211.923Z" fill="#6DA552"/>
<path d="M147.892 211.923C147.703 211.923 147.521 211.855 147.379 211.73C147.237 211.605 147.146 211.434 147.122 211.246C147.098 211.059 147.143 210.87 147.248 210.713C147.353 210.557 147.512 210.444 147.695 210.396L335.995 160.83C336.094 160.804 336.197 160.798 336.298 160.812C336.399 160.826 336.496 160.859 336.584 160.911C336.672 160.962 336.749 161.03 336.811 161.111C336.872 161.192 336.917 161.285 336.943 161.383C336.969 161.482 336.976 161.585 336.962 161.686C336.948 161.787 336.915 161.884 336.863 161.972C336.812 162.06 336.744 162.137 336.663 162.199C336.581 162.26 336.489 162.305 336.39 162.331L148.09 211.897C148.025 211.914 147.959 211.923 147.892 211.923Z" fill="#6DA552"/>
<path d="M147.891 211.923C147.756 211.923 147.623 211.887 147.506 211.82C147.389 211.753 147.291 211.656 147.223 211.539C147.154 211.423 147.118 211.29 147.116 211.155C147.115 211.02 147.149 210.887 147.215 210.768L235.778 52.1367C235.879 51.9587 236.047 51.828 236.244 51.773C236.441 51.718 236.652 51.7431 236.831 51.8429C237.01 51.9428 237.142 52.1092 237.198 52.3059C237.255 52.5027 237.231 52.7138 237.133 52.8934L148.57 211.525C148.502 211.646 148.404 211.746 148.285 211.816C148.165 211.886 148.03 211.923 147.891 211.923Z" fill="#6DA552"/>
<path d="M147.893 211.923C147.75 211.923 147.61 211.884 147.488 211.81C147.366 211.735 147.267 211.629 147.202 211.502L81.4002 83.3957C81.3527 83.305 81.3236 83.2057 81.3146 83.1037C81.3057 83.0017 81.317 82.8989 81.3479 82.8012C81.3789 82.7036 81.4288 82.613 81.4949 82.5348C81.561 82.4566 81.6419 82.3922 81.733 82.3454C81.8241 82.2986 81.9236 82.2703 82.0257 82.2621C82.1278 82.2539 82.2304 82.266 82.3278 82.2978C82.4252 82.3295 82.5153 82.3801 82.5931 82.4469C82.6708 82.5136 82.7345 82.595 82.7806 82.6865L148.582 210.792C148.643 210.911 148.673 211.042 148.668 211.175C148.663 211.308 148.624 211.438 148.555 211.551C148.486 211.665 148.388 211.758 148.272 211.824C148.156 211.889 148.026 211.923 147.893 211.923ZM245.042 259.316C244.842 259.316 244.65 259.238 244.506 259.1C244.361 258.961 244.276 258.772 244.268 258.572L235.68 52.5474C235.676 52.4455 235.692 52.3439 235.727 52.2482C235.762 52.1525 235.816 52.0646 235.885 51.9896C235.954 51.9146 236.037 51.8539 236.129 51.811C236.222 51.7681 236.322 51.7439 236.423 51.7396C236.525 51.7352 236.627 51.7509 236.723 51.7859C236.818 51.8209 236.906 51.8744 236.981 51.9434C237.056 52.0125 237.117 52.0956 237.16 52.1882C237.203 52.2807 237.227 52.3808 237.231 52.4827L245.818 258.507C245.823 258.612 245.806 258.716 245.769 258.814C245.732 258.912 245.675 259.002 245.603 259.077C245.53 259.153 245.443 259.213 245.347 259.254C245.251 259.295 245.147 259.316 245.042 259.316H245.042Z" fill="#6DA552"/>
<path d="M195.381 126.761C195.287 126.761 195.194 126.744 195.106 126.71L81.8152 83.7668C81.7198 83.7308 81.6323 83.6763 81.5579 83.6065C81.4835 83.5367 81.4236 83.4529 81.3816 83.3599C81.3397 83.2669 81.3164 83.1665 81.3133 83.0645C81.3102 82.9625 81.3271 82.8609 81.3633 82.7655C81.3995 82.6701 81.4541 82.5827 81.5241 82.5084C81.594 82.4341 81.6779 82.3744 81.771 82.3326C81.8641 82.2908 81.9645 82.2678 82.0665 82.2648C82.1684 82.2619 82.27 82.279 82.3653 82.3154L195.656 125.259C195.826 125.323 195.968 125.445 196.057 125.603C196.147 125.761 196.178 125.946 196.145 126.125C196.112 126.303 196.018 126.465 195.878 126.581C195.739 126.697 195.563 126.761 195.381 126.761Z" fill="#6DA552"/>
<path d="M242.043 186.312L195.381 125.984L242.043 186.312Z" fill="white"/>
<path d="M242.043 187.088C241.924 187.088 241.807 187.061 241.701 187.009C241.594 186.957 241.501 186.881 241.429 186.787L194.767 126.459C194.705 126.379 194.659 126.287 194.632 126.188C194.606 126.09 194.599 125.987 194.611 125.886C194.624 125.785 194.657 125.688 194.708 125.599C194.758 125.511 194.826 125.433 194.906 125.371C194.987 125.308 195.079 125.262 195.177 125.236C195.276 125.209 195.378 125.202 195.479 125.215C195.581 125.228 195.678 125.26 195.767 125.311C195.855 125.361 195.933 125.429 195.995 125.51L242.656 185.837C242.782 186 242.838 186.206 242.812 186.41C242.786 186.615 242.68 186.8 242.517 186.926C242.382 187.031 242.215 187.088 242.043 187.088Z" fill="#6DA552"/>
<path d="M82.0904 87.2837C84.4903 87.2837 86.4358 85.3379 86.4358 82.9376C86.4358 80.5374 84.4903 78.5916 82.0904 78.5916C79.6905 78.5916 77.745 80.5374 77.745 82.9376C77.745 85.3379 79.6905 87.2837 82.0904 87.2837Z" fill="white"/>
<path d="M82.0904 88.0598C79.2665 88.0598 76.969 85.762 76.969 82.9376C76.969 80.1133 79.2665 77.8155 82.0904 77.8155C84.9143 77.8155 87.2117 80.1133 87.2117 82.9376C87.2117 85.762 84.9143 88.0598 82.0904 88.0598ZM82.0904 79.3676C80.1222 79.3676 78.5209 80.9692 78.5209 82.9376C78.5209 84.9061 80.1222 86.5076 82.0904 86.5076C84.0585 86.5076 85.6598 84.9061 85.6598 82.9376C85.6598 80.9692 84.0585 79.3676 82.0904 79.3676Z" fill="#6DA552"/>
<path d="M25.9105 183.518C28.3104 183.518 30.2559 181.572 30.2559 179.172C30.2559 176.772 28.3104 174.826 25.9105 174.826C23.5106 174.826 21.5651 176.772 21.5651 179.172C21.5651 181.572 23.5106 183.518 25.9105 183.518Z" fill="white"/>
<path d="M25.9105 184.294C23.0866 184.294 20.7892 181.997 20.7892 179.172C20.7892 176.348 23.0866 174.05 25.9105 174.05C28.7344 174.05 31.0319 176.348 31.0319 179.172C31.0319 181.997 28.7344 184.294 25.9105 184.294ZM25.9105 175.602C23.9424 175.602 22.3411 177.204 22.3411 179.172C22.3411 181.141 23.9424 182.742 25.9105 182.742C27.8787 182.742 29.48 181.141 29.48 179.172C29.48 177.204 27.8787 175.602 25.9105 175.602Z" fill="#6DA552"/>
<path d="M80.435 262.162C82.8349 262.162 84.7804 260.216 84.7804 257.815C84.7804 255.415 82.8349 253.469 80.435 253.469C78.0351 253.469 76.0896 255.415 76.0896 257.815C76.0896 260.216 78.0351 262.162 80.435 262.162Z" fill="white"/>
<path d="M80.435 262.938C77.6111 262.938 75.3136 260.64 75.3136 257.815C75.3136 254.991 77.6111 252.693 80.435 252.693C83.2589 252.693 85.5563 254.991 85.5563 257.815C85.5563 260.64 83.2589 262.938 80.435 262.938ZM80.435 254.245C78.4668 254.245 76.8655 255.847 76.8655 257.815C76.8655 259.784 78.4668 261.385 80.435 261.385C82.4031 261.385 84.0044 259.784 84.0044 257.815C84.0044 255.847 82.4031 254.245 80.435 254.245Z" fill="#6DA552"/>
<path d="M147.892 215.493C150.292 215.493 152.238 213.547 152.238 211.147C152.238 208.747 150.292 206.801 147.892 206.801C145.492 206.801 143.547 208.747 143.547 211.147C143.547 213.547 145.492 215.493 147.892 215.493Z" fill="white"/>
<path d="M147.892 216.269C145.068 216.269 142.771 213.971 142.771 211.147C142.771 208.323 145.068 206.025 147.892 206.025C150.716 206.025 153.014 208.323 153.014 211.147C153.014 213.971 150.716 216.269 147.892 216.269ZM147.892 207.577C145.924 207.577 144.323 209.178 144.323 211.147C144.323 213.115 145.924 214.717 147.892 214.717C149.86 214.717 151.462 213.115 151.462 211.147C151.462 209.178 149.86 207.577 147.892 207.577Z" fill="#6DA552"/>
<path d="M195.381 130.331C197.781 130.331 199.727 128.385 199.727 125.984C199.727 123.584 197.781 121.638 195.381 121.638C192.981 121.638 191.036 123.584 191.036 125.984C191.036 128.385 192.981 130.331 195.381 130.331Z" fill="white"/>
<path d="M195.381 131.107C192.557 131.107 190.26 128.809 190.26 125.984C190.26 123.16 192.557 120.862 195.381 120.862C198.205 120.862 200.503 123.16 200.503 125.984C200.503 128.809 198.205 131.107 195.381 131.107ZM195.381 122.414C193.413 122.414 191.812 124.016 191.812 125.984C191.812 127.953 193.413 129.554 195.381 129.554C197.349 129.554 198.951 127.953 198.951 125.984C198.951 124.016 197.349 122.414 195.381 122.414Z" fill="#6DA552"/>
<path d="M236.456 56.8612C238.856 56.8612 240.801 54.9154 240.801 52.5151C240.801 50.1148 238.856 48.169 236.456 48.169C234.056 48.169 232.11 50.1148 232.11 52.5151C232.11 54.9154 234.056 56.8612 236.456 56.8612Z" fill="white"/>
<path d="M236.456 57.6373C233.632 57.6373 231.334 55.3394 231.334 52.5151C231.334 49.6908 233.632 47.3929 236.456 47.3929C239.279 47.3929 241.577 49.6908 241.577 52.5151C241.577 55.3394 239.279 57.6373 236.456 57.6373ZM236.456 48.9451C234.487 48.9451 232.886 50.5466 232.886 52.5151C232.886 54.4836 234.487 56.0851 236.456 56.0851C238.424 56.0851 240.025 54.4836 240.025 52.5151C240.025 50.5466 238.424 48.9451 236.456 48.9451Z" fill="#6DA552"/>
<path d="M336.193 165.927C338.593 165.927 340.538 163.981 340.538 161.581C340.538 159.181 338.593 157.235 336.193 157.235C333.793 157.235 331.848 159.181 331.848 161.581C331.848 163.981 333.793 165.927 336.193 165.927Z" fill="white"/>
<path d="M336.193 166.703C333.369 166.703 331.072 164.405 331.072 161.581C331.072 158.757 333.369 156.459 336.193 156.459C339.017 156.459 341.314 158.757 341.314 161.581C341.314 164.405 339.017 166.703 336.193 166.703ZM336.193 158.011C334.225 158.011 332.624 159.612 332.624 161.581C332.624 163.549 334.225 165.151 336.193 165.151C338.161 165.151 339.762 163.549 339.762 161.581C339.762 159.612 338.161 158.011 336.193 158.011Z" fill="#6DA552"/>
<path d="M245.043 262.886C247.443 262.886 249.388 260.94 249.388 258.54C249.388 256.14 247.443 254.194 245.043 254.194C242.643 254.194 240.698 256.14 240.698 258.54C240.698 260.94 242.643 262.886 245.043 262.886Z" fill="white"/>
<path d="M245.043 263.662C242.219 263.662 239.922 261.364 239.922 258.54C239.922 255.715 242.219 253.418 245.043 253.418C247.867 253.418 250.164 255.715 250.164 258.54C250.164 261.364 247.867 263.662 245.043 263.662ZM245.043 254.97C243.075 254.97 241.473 256.571 241.473 258.54C241.473 260.508 243.075 262.11 245.043 262.11C247.011 262.11 248.612 260.508 248.612 258.54C248.612 256.571 247.011 254.97 245.043 254.97Z" fill="#6DA552"/>
<path d="M242.043 190.658C244.442 190.658 246.388 188.712 246.388 186.312C246.388 183.912 244.442 181.966 242.043 181.966C239.643 181.966 237.697 183.912 237.697 186.312C237.697 188.712 239.643 190.658 242.043 190.658Z" fill="white"/>
<path d="M242.043 191.434C239.219 191.434 236.921 189.136 236.921 186.312C236.921 183.488 239.219 181.19 242.043 181.19C244.866 181.19 247.164 183.488 247.164 186.312C247.164 189.136 244.866 191.434 242.043 191.434ZM242.043 182.742C240.074 182.742 238.473 184.344 238.473 186.312C238.473 188.281 240.074 189.882 242.043 189.882C244.011 189.882 245.612 188.281 245.612 186.312C245.612 184.344 244.011 182.742 242.043 182.742Z" fill="#6DA552"/>
</g>
<g clip-path="url(#clip1_5_862)">
<path d="M138.599 38.0193H231.055C238.224 38.0193 244.036 43.8349 244.036 51.0087V260.771C244.036 267.944 238.224 273.76 231.055 273.76H138.599C131.43 273.76 125.618 267.944 125.618 260.771V51.0087C125.618 43.8349 131.43 38.0193 138.599 38.0193Z" fill="#212121"/>
<path d="M138.599 274.734H231.055C238.75 274.734 245.01 268.47 245.01 260.771V51.0087C245.01 43.3091 238.75 37.0451 231.055 37.0451H138.599C130.904 37.0451 124.644 43.3091 124.644 51.0087V260.771C124.644 268.47 130.904 274.734 138.599 274.734ZM231.055 38.9935C237.676 38.9935 243.062 44.3835 243.062 51.0087V260.771C243.062 267.396 237.676 272.786 231.055 272.786H138.599C131.978 272.786 126.591 267.396 126.591 260.771V51.0087C126.591 44.3835 131.978 38.9935 138.599 38.9935H231.055Z" fill="#212121"/>
<path d="M128.779 38.0193H221.235C228.404 38.0193 234.216 43.8349 234.216 51.0087V260.771C234.216 267.944 228.404 273.76 221.235 273.76H128.779C121.61 273.76 115.798 267.944 115.798 260.771V51.0087C115.798 43.8349 121.61 38.0193 128.779 38.0193Z" fill="white"/>
<path d="M163.178 44.2774H186.835C188.958 44.2774 190.679 45.9994 190.679 48.1237C190.679 50.248 188.958 51.97 186.835 51.97H163.178C161.055 51.97 159.334 50.248 159.334 48.1237C159.334 45.9994 161.055 44.2774 163.178 44.2774Z" fill="#212121"/>
<path d="M163.178 52.9442H186.835C189.492 52.9442 191.653 50.7817 191.653 48.1237C191.653 45.4656 189.492 43.3032 186.835 43.3032H163.178C160.522 43.3032 158.361 45.4656 158.361 48.1237C158.361 50.7817 160.522 52.9442 163.178 52.9442ZM186.835 45.2516C188.418 45.2516 189.706 46.54 189.706 48.1237C189.706 49.7073 188.418 50.9957 186.835 50.9957H163.178C161.596 50.9957 160.308 49.7073 160.308 48.1237C160.308 46.54 161.596 45.2516 163.178 45.2516H186.835Z" fill="#212121"/>
<path d="M128.955 274.734H221.41C229.105 274.734 235.366 268.47 235.366 260.771V51.0087C235.366 43.3091 229.105 37.0451 221.41 37.0451H128.955C121.26 37.0451 115 43.3091 115 51.0087V260.771C115 268.47 121.26 274.734 128.955 274.734ZM221.41 38.9935C228.032 38.9935 233.418 44.3835 233.418 51.0087V260.771C233.418 267.396 228.032 272.786 221.41 272.786H128.955C122.334 272.786 116.947 267.396 116.947 260.771V51.0087C116.947 44.3835 122.334 38.9935 128.955 38.9935H221.41Z" fill="#212121"/>
<path d="M156.039 269.186H193.975C194.233 269.186 194.481 269.084 194.664 268.901C194.846 268.718 194.949 268.471 194.949 268.212C194.949 267.954 194.846 267.706 194.664 267.523C194.481 267.341 194.233 267.238 193.975 267.238H156.039C155.78 267.238 155.533 267.341 155.35 267.523C155.168 267.706 155.065 267.954 155.065 268.212C155.065 268.471 155.168 268.718 155.35 268.901C155.533 269.084 155.78 269.186 156.039 269.186Z" fill="#212121"/>
</g>
<g clip-path="url(#clip2_5_862)">
<path d="M255.215 199.547H167.394C163.621 199.547 160.563 202.606 160.563 206.379V207.533C160.563 211.306 163.621 214.365 167.394 214.365H255.215C258.988 214.365 262.046 211.306 262.046 207.533V206.379C262.046 202.606 258.988 199.547 255.215 199.547Z" fill="white"/>
<path d="M255.215 215.131H167.394C163.205 215.131 159.797 211.722 159.797 207.533V206.379C159.797 202.19 163.205 198.781 167.394 198.781H255.215C259.404 198.781 262.812 202.19 262.812 206.379V207.533C262.812 211.722 259.404 215.131 255.215 215.131ZM167.394 200.313C164.049 200.313 161.328 203.034 161.328 206.379V207.533C161.328 210.878 164.049 213.599 167.394 213.599H255.215C258.56 213.599 261.281 210.878 261.281 207.533V206.379C261.281 203.034 258.56 200.313 255.215 200.313H167.394Z" fill="#212121"/>
<path d="M218.599 207.722C218.549 207.722 218.499 207.717 218.45 207.706C218.401 207.697 218.352 207.682 218.306 207.663C218.213 207.625 218.128 207.568 218.058 207.497C218.022 207.462 217.99 207.422 217.963 207.381C217.934 207.34 217.911 207.295 217.891 207.249C217.853 207.156 217.834 207.056 217.833 206.956C217.833 206.906 217.838 206.856 217.848 206.807C217.857 206.758 217.873 206.709 217.891 206.663C217.911 206.617 217.934 206.572 217.963 206.531C217.99 206.489 218.022 206.449 218.058 206.415C218.235 206.237 218.5 206.155 218.749 206.205C218.798 206.215 218.846 206.23 218.892 206.249C218.938 206.268 218.983 206.291 219.023 206.319C219.066 206.347 219.105 206.379 219.14 206.415C219.175 206.449 219.207 206.489 219.236 206.531C219.263 206.572 219.287 206.617 219.306 206.663C219.324 206.709 219.34 206.758 219.35 206.807C219.359 206.856 219.364 206.906 219.364 206.956C219.364 207.006 219.359 207.056 219.35 207.106C219.34 207.154 219.324 207.203 219.306 207.249C219.268 207.342 219.211 207.426 219.14 207.497C219.105 207.533 219.066 207.564 219.023 207.593C218.983 207.621 218.938 207.644 218.892 207.663C218.846 207.682 218.798 207.697 218.749 207.706C218.699 207.717 218.649 207.722 218.599 207.722ZM213.883 206.956C213.883 206.533 214.226 206.19 214.649 206.19C215.071 206.19 215.414 206.533 215.414 206.956C215.414 207.379 215.071 207.722 214.649 207.722C214.226 207.722 213.883 207.379 213.883 206.956ZM209.933 206.956C209.933 206.533 210.275 206.19 210.699 206.19C211.122 206.19 211.465 206.533 211.465 206.956C211.465 207.379 211.122 207.722 210.699 207.722C210.275 207.722 209.933 207.379 209.933 206.956ZM205.983 206.956C205.983 206.533 206.326 206.19 206.748 206.19C207.171 206.19 207.514 206.533 207.514 206.956C207.514 207.379 207.171 207.722 206.748 207.722C206.326 207.722 205.983 207.379 205.983 206.956ZM202.033 206.956C202.033 206.533 202.376 206.19 202.798 206.19C203.221 206.19 203.564 206.533 203.564 206.956C203.564 207.379 203.221 207.722 202.798 207.722C202.376 207.722 202.033 207.379 202.033 206.956ZM198.083 206.956C198.083 206.533 198.425 206.19 198.849 206.19C199.271 206.19 199.614 206.533 199.614 206.956C199.614 207.379 199.271 207.722 198.849 207.722C198.425 207.722 198.083 207.379 198.083 206.956ZM194.132 206.956C194.132 206.533 194.475 206.19 194.898 206.19C195.322 206.19 195.664 206.533 195.664 206.956C195.664 207.379 195.322 207.722 194.898 207.722C194.475 207.722 194.132 207.379 194.132 206.956ZM190.182 206.956C190.182 206.533 190.526 206.19 190.948 206.19C191.371 206.19 191.714 206.533 191.714 206.956C191.714 207.379 191.371 207.722 190.948 207.722C190.526 207.722 190.182 207.379 190.182 206.956ZM186.233 206.956C186.233 206.533 186.575 206.19 186.998 206.19C187.421 206.19 187.764 206.533 187.764 206.956C187.764 207.379 187.421 207.722 186.998 207.722C186.575 207.722 186.233 207.379 186.233 206.956ZM182.282 206.956C182.282 206.533 182.625 206.19 183.048 206.19C183.47 206.19 183.813 206.533 183.813 206.956C183.813 207.379 183.47 207.722 183.048 207.722C182.625 207.722 182.282 207.379 182.282 206.956ZM178.332 206.956C178.332 206.533 178.675 206.19 179.098 206.19C179.521 206.19 179.864 206.533 179.864 206.956C179.864 207.379 179.521 207.722 179.098 207.722C178.675 207.722 178.332 207.379 178.332 206.956ZM174.382 206.956C174.382 206.533 174.725 206.19 175.148 206.19C175.571 206.19 175.914 206.533 175.914 206.956C175.914 207.379 175.571 207.722 175.148 207.722C174.725 207.722 174.382 207.379 174.382 206.956ZM171.197 207.722C170.996 207.722 170.799 207.64 170.656 207.497C170.62 207.462 170.588 207.423 170.561 207.381C170.533 207.34 170.51 207.295 170.49 207.249C170.471 207.203 170.457 207.154 170.447 207.106C170.426 207.007 170.426 206.905 170.447 206.807C170.466 206.708 170.505 206.615 170.561 206.531C170.588 206.489 170.62 206.449 170.656 206.415C170.833 206.237 171.098 206.155 171.347 206.205C171.396 206.215 171.444 206.23 171.49 206.249C171.536 206.268 171.581 206.292 171.623 206.32C171.664 206.347 171.703 206.379 171.739 206.415C171.81 206.486 171.866 206.57 171.904 206.663C171.923 206.709 171.938 206.758 171.947 206.807C171.958 206.856 171.963 206.906 171.963 206.956C171.963 207.006 171.957 207.056 171.947 207.106C171.938 207.154 171.923 207.203 171.904 207.249C171.885 207.295 171.862 207.34 171.834 207.381C171.806 207.423 171.774 207.462 171.739 207.497C171.703 207.533 171.665 207.564 171.623 207.593C171.581 207.621 171.536 207.644 171.49 207.663C171.444 207.682 171.396 207.697 171.347 207.706C171.297 207.717 171.247 207.722 171.197 207.722Z" fill="#212121"/>
</g>
<g clip-path="url(#clip3_5_862)">
<path d="M256.089 178.556H166.416C162.564 178.556 159.441 181.672 159.441 185.517V186.693C159.441 190.538 162.564 193.655 166.416 193.655H256.089C259.942 193.655 263.064 190.538 263.064 186.693V185.517C263.064 181.672 259.942 178.556 256.089 178.556Z" fill="white"/>
<path d="M256.089 194.435H166.416C162.139 194.435 158.659 190.962 158.659 186.693V185.517C158.659 181.248 162.139 177.775 166.416 177.775H256.089C260.367 177.775 263.846 181.248 263.846 185.517V186.693C263.846 190.962 260.367 194.435 256.089 194.435ZM166.416 179.336C163.001 179.336 160.223 182.109 160.223 185.517V186.693C160.223 190.101 163.001 192.875 166.416 192.875H256.089C259.504 192.875 262.283 190.101 262.283 186.693V185.517C262.283 182.109 259.504 179.336 256.089 179.336H166.416Z" fill="#212121"/>
<path d="M202.24 186.886H170.028C169.596 186.886 169.246 186.536 169.246 186.105C169.246 185.674 169.596 185.325 170.028 185.325H202.24C202.672 185.325 203.022 185.674 203.022 186.105C203.022 186.536 202.672 186.886 202.24 186.886ZM227.93 186.886H209.597C209.165 186.886 208.815 186.536 208.815 186.105C208.815 185.674 209.165 185.325 209.597 185.325H227.93C228.361 185.325 228.711 185.674 228.711 186.105C228.711 186.536 228.361 186.886 227.93 186.886Z" fill="#212121"/>
</g>
<g clip-path="url(#clip4_5_862)">
<path d="M169.537 248.295H253.176C258.695 248.295 263.169 243.848 263.169 238.362C263.169 232.875 258.695 228.428 253.176 228.428H169.537C164.018 228.428 159.544 232.875 159.544 238.362C159.544 243.848 164.018 248.295 169.537 248.295Z" fill="#6DA552"/>
<path d="M253.176 249.072H169.537C163.596 249.072 158.763 244.267 158.763 238.362C158.763 232.456 163.596 227.652 169.537 227.652H253.176C259.117 227.652 263.95 232.456 263.95 238.362C263.95 244.267 259.117 249.072 253.176 249.072ZM169.537 229.204C164.457 229.204 160.325 233.312 160.325 238.362C160.325 243.411 164.457 247.519 169.537 247.519H253.176C258.255 247.519 262.388 243.411 262.388 238.362C262.388 233.312 258.256 229.204 253.176 229.204H169.537Z" fill="#212121"/>
</g>
<g clip-path="url(#clip5_5_862)">
<path d="M151.575 202.348C166.767 202.348 179.083 190.026 179.083 174.826C179.083 159.626 166.767 147.305 151.575 147.305C136.382 147.305 124.066 159.626 124.066 174.826C124.066 190.026 136.382 202.348 151.575 202.348Z" fill="white"/>
<path d="M151.523 203.134C146.402 203.134 141.363 201.733 136.876 199.002C130.421 195.074 125.882 188.866 124.094 181.522C122.306 174.178 123.484 166.578 127.41 160.12C131.337 153.662 137.541 149.121 144.882 147.333C152.222 145.544 159.819 146.722 166.274 150.65C172.728 154.579 177.267 160.786 179.055 168.13C180.843 175.474 179.665 183.075 175.739 189.532C171.812 195.99 165.608 200.531 158.267 202.32C156.03 202.865 153.768 203.134 151.523 203.134ZM151.623 148.07C149.501 148.07 147.364 148.325 145.249 148.84C138.311 150.53 132.446 154.823 128.735 160.926C125.024 167.03 123.911 174.214 125.601 181.155C127.291 188.096 131.581 193.964 137.682 197.676C141.922 200.257 146.686 201.582 151.526 201.582C153.649 201.582 155.785 201.328 157.901 200.812C164.838 199.122 170.703 194.83 174.414 188.726C178.125 182.622 179.238 175.438 177.548 168.497C175.859 161.556 171.568 155.689 165.468 151.976C161.227 149.395 156.464 148.07 151.623 148.07Z" fill="#212121"/>
<path d="M151.539 196.319C147.736 196.319 143.888 195.311 140.408 193.193C130.285 187.032 127.059 173.781 133.217 163.654C139.374 153.526 152.619 150.299 162.742 156.46C172.864 162.62 176.09 175.871 169.932 185.999C165.892 192.644 158.798 196.319 151.539 196.319ZM151.608 154.884C144.872 154.884 138.291 158.293 134.542 164.46C128.828 173.856 131.821 186.151 141.213 191.867C150.606 197.583 162.894 194.589 168.608 185.192C174.321 175.796 171.328 163.501 161.936 157.785C158.707 155.82 155.136 154.884 151.608 154.884Z" fill="#6DA552"/>
<path d="M159.988 182.064C160.673 180.035 159.957 178.382 158.981 177.307C158.745 177.046 158.88 176.632 159.219 176.539C160.585 176.163 161.744 175.125 162.311 173.445C163.101 171.108 162.247 168.555 158.974 166.907C158.765 166.802 158.663 166.56 158.738 166.338L159.249 164.825C159.289 164.707 159.28 164.578 159.225 164.467C159.17 164.356 159.073 164.271 158.955 164.231L156.16 163.286C156.043 163.247 155.914 163.255 155.803 163.31C155.691 163.365 155.607 163.462 155.567 163.58L155.095 164.978C155.055 165.096 154.97 165.193 154.859 165.248C154.748 165.303 154.619 165.312 154.502 165.272L153.691 164.998C153.573 164.958 153.476 164.873 153.421 164.762C153.366 164.651 153.358 164.522 153.397 164.404L153.869 163.006C153.909 162.889 153.9 162.76 153.845 162.649C153.79 162.537 153.693 162.453 153.576 162.413L150.78 161.468C150.663 161.428 150.534 161.437 150.423 161.492C150.312 161.547 150.227 161.644 150.187 161.762L149.715 163.16C149.675 163.278 149.59 163.375 149.479 163.43C149.368 163.485 149.239 163.494 149.122 163.454L148.299 163.176L148.295 163.175L145.468 162.219C145.35 162.18 145.222 162.188 145.111 162.243C144.999 162.299 144.914 162.396 144.875 162.513L143.93 165.31C143.891 165.427 143.899 165.556 143.954 165.667C144.009 165.779 144.107 165.864 144.224 165.903L145.502 166.335C146.115 166.542 146.443 167.207 146.237 167.819L143.025 177.332C142.818 177.944 142.154 178.273 141.541 178.066L140.263 177.634C140.146 177.595 140.017 177.603 139.906 177.658C139.794 177.714 139.71 177.811 139.67 177.928L138.726 180.725C138.686 180.842 138.695 180.971 138.75 181.082C138.805 181.194 138.902 181.279 139.019 181.318L142.673 182.553C142.79 182.593 142.887 182.678 142.943 182.789C142.998 182.9 143.006 183.029 142.967 183.147L142.553 184.372C142.513 184.49 142.522 184.618 142.577 184.73C142.632 184.841 142.729 184.926 142.847 184.966L145.642 185.91C145.759 185.95 145.888 185.942 145.999 185.886C146.11 185.831 146.195 185.734 146.235 185.617L146.649 184.391C146.689 184.274 146.773 184.176 146.885 184.121C146.996 184.066 147.124 184.058 147.242 184.097L148.053 184.371C148.17 184.411 148.267 184.496 148.322 184.607C148.378 184.719 148.386 184.847 148.346 184.965L147.933 186.19C147.893 186.308 147.902 186.437 147.957 186.548C148.012 186.659 148.109 186.744 148.226 186.784L151.022 187.729C151.139 187.768 151.268 187.76 151.379 187.705C151.49 187.65 151.575 187.553 151.615 187.435L152.066 186.098C152.103 185.991 152.177 185.901 152.274 185.844C152.372 185.787 152.487 185.768 152.598 185.789C156.46 186.524 159.057 184.822 159.988 182.064L159.988 182.064ZM151.862 169.074C151.902 168.957 151.986 168.86 152.098 168.805C152.209 168.749 152.337 168.741 152.455 168.781L155.092 169.672C156.436 170.126 157.1 170.997 156.7 172.182C156.35 173.218 155.461 173.801 153.92 173.28L151.242 172.375C151.124 172.335 151.027 172.25 150.972 172.139C150.917 172.027 150.908 171.899 150.948 171.781L151.862 169.074ZM150.965 181.166L148.549 180.35C148.431 180.31 148.334 180.225 148.279 180.114C148.224 180.002 148.215 179.874 148.255 179.756L149.379 176.429C149.418 176.311 149.503 176.214 149.614 176.159C149.726 176.104 149.854 176.095 149.972 176.135L152.491 176.986C154.27 177.587 154.723 178.686 154.317 179.886C153.856 181.252 152.805 181.788 150.965 181.166Z" fill="#212121"/>
</g>
<g clip-path="url(#clip6_5_862)">
<path d="M175.506 72.6933L175.506 72.6935L175.505 72.6933C164.729 81.3101 160.702 85.6408 140.701 88.6429L140.839 103.033C141.831 118.92 145.563 143.861 175.506 156.407H175.506C205.449 143.861 209.18 118.92 210.172 103.033L210.31 88.6429C190.31 85.6408 186.282 81.3101 175.506 72.6933Z" fill="white"/>
<path d="M175.506 157.183C175.403 157.183 175.301 157.163 175.207 157.123C168.095 154.144 161.991 150.257 157.063 145.571C152.771 141.491 149.258 136.695 146.62 131.315C141.754 121.389 140.561 111.013 140.066 103.082C140.065 103.068 140.064 103.055 140.064 103.041L139.926 88.6506C139.924 88.4634 139.99 88.2819 140.112 88.1395C140.233 87.997 140.402 87.9033 140.586 87.8756C158.865 85.132 163.481 81.403 172.678 73.9738C173.429 73.3675 174.205 72.7405 175.022 72.0872C175.159 71.9774 175.33 71.9176 175.506 71.9176C175.681 71.9176 175.852 71.9774 175.989 72.0872C176.772 72.7141 177.554 73.3431 178.334 73.974C187.531 81.4031 192.147 85.1321 210.425 87.8756C210.61 87.9034 210.779 87.9971 210.9 88.1395C211.021 88.2819 211.087 88.4634 211.085 88.6506L210.947 103.041C210.947 103.055 210.947 103.068 210.946 103.082C210.45 111.013 209.258 121.389 204.391 131.315C201.753 136.695 198.24 141.491 193.949 145.571C189.02 150.257 182.916 154.143 175.805 157.123C175.71 157.163 175.608 157.183 175.506 157.183H175.506ZM141.614 103.006C142.758 121.286 147.655 143.751 175.506 155.565C203.356 143.751 208.253 121.286 209.398 103.006L209.529 89.3091C191.379 86.5067 186.369 82.4592 177.361 75.182C176.761 74.6977 176.145 74.2003 175.506 73.6872C174.866 74.2002 174.251 74.6976 173.651 75.1818C164.642 82.4592 159.633 86.5067 141.483 89.3091L141.614 103.006H141.614Z" fill="#212121"/>
<path d="M175.506 81.4169L175.506 81.417L175.506 81.4169C166.975 88.2379 163.787 91.6659 147.955 94.0424L148.064 105.434C148.85 118.009 151.804 137.752 175.506 147.683C199.208 137.752 202.162 118.009 202.948 105.434L203.057 94.0424C187.225 91.666 184.037 88.2379 175.506 81.4169H175.506Z" fill="#6DA552"/>
<path d="M175.506 148.46C175.403 148.459 175.301 148.439 175.207 148.399C169.559 146.033 164.711 142.946 160.795 139.223C157.384 135.98 154.592 132.168 152.496 127.892C148.631 120.009 147.684 111.775 147.291 105.482C147.29 105.468 147.289 105.455 147.289 105.441L147.18 94.0498C147.178 93.8626 147.244 93.6811 147.365 93.5387C147.487 93.3963 147.655 93.3026 147.84 93.2749C162.266 91.1096 165.909 88.1669 173.166 82.3045C173.759 81.8253 174.375 81.3276 175.022 80.8105C175.159 80.7007 175.33 80.6409 175.506 80.6409C175.681 80.6409 175.852 80.7007 175.989 80.8105C176.636 81.3277 177.252 81.8255 177.846 82.3047C185.103 88.1671 188.746 91.1096 203.171 93.2749C203.356 93.3026 203.525 93.3963 203.646 93.5387C203.767 93.6811 203.833 93.8627 203.831 94.0498L203.722 105.441C203.722 105.455 203.722 105.468 203.721 105.482C203.328 111.775 202.381 120.009 198.516 127.892C196.42 132.168 193.627 135.98 190.216 139.223C186.301 142.946 181.452 146.033 175.805 148.399C175.71 148.439 175.608 148.459 175.506 148.46H175.506ZM148.839 105.406C149.742 119.814 153.6 137.517 175.506 146.841C197.411 137.517 201.27 119.814 202.173 105.406L202.275 94.708C187.979 92.484 184.003 89.2722 176.873 83.5127C176.417 83.1447 175.962 82.7774 175.506 82.4107C175.05 82.7773 174.594 83.1445 174.139 83.5125C167.009 89.272 163.033 92.4839 148.736 94.708L148.839 105.406H148.839Z" fill="#6DA552"/>
<path d="M165.264 114.766L171.999 123.53L190.623 99.3026C190.623 99.3026 191.603 98.2998 192.582 99.2999C193.551 100.308 192.642 101.224 192.642 101.224L174.039 130.716C174.039 130.716 173.12 132.214 171.915 132.075C170.71 131.936 169.918 130.798 169.918 130.798L160.535 119.232C160.535 119.232 160.083 117.308 161.73 115.451C163.394 113.596 165.264 114.766 165.264 114.766V114.766Z" fill="#212121"/>
</g>
<g clip-path="url(#clip7_5_862)">
<path d="M76.1235 142.743C89.7442 142.743 100.786 131.696 100.786 118.068C100.786 104.441 89.7442 93.3941 76.1235 93.3941C62.5027 93.3941 51.4609 104.441 51.4609 118.068C51.4609 131.696 62.5027 142.743 76.1235 142.743Z" fill="white"/>
<path d="M76.1412 143.532C73.2653 143.532 70.3801 143.037 67.5906 142.044C61.1896 139.763 56.0594 135.126 53.1448 128.985C50.2303 122.844 49.8805 115.935 52.1597 109.531C54.4389 103.127 59.0743 97.9947 65.2122 95.0788C71.35 92.1629 78.2554 91.8128 84.6563 94.0931C91.057 96.3733 96.1875 101.012 99.1021 107.152C102.017 113.293 102.366 120.201 100.087 126.605C97.808 133.009 93.1726 138.142 87.0346 141.058C83.5716 142.703 79.8643 143.532 76.141 143.532L76.1412 143.532ZM76.1069 94.1569C72.6102 94.1569 69.1294 94.9347 65.8771 96.4798C53.9787 102.132 48.8952 116.416 54.5451 128.32C60.195 140.224 74.4715 145.31 86.3698 139.657C92.1335 136.919 96.4866 132.099 98.6269 126.085C100.767 120.071 100.439 113.584 97.7017 107.817C94.9649 102.051 90.1472 97.6956 84.1363 95.5542C81.5172 94.6212 78.8071 94.1569 76.1069 94.1569Z" fill="#212121"/>
<path d="M76.1369 137.432C73.9499 137.432 71.7557 137.057 69.6345 136.301C64.7667 134.567 60.8652 131.04 58.6489 126.37C56.4325 121.7 56.1664 116.446 57.8996 111.576C59.6329 106.706 63.1581 102.803 67.8258 100.585C72.4935 98.3679 77.7447 98.1018 82.6124 99.8358C87.4803 101.57 91.3817 105.097 93.598 109.767C95.8144 114.436 96.0805 119.69 94.3473 124.56C92.614 129.431 89.0888 133.334 84.4211 135.551C81.7876 136.802 78.9683 137.432 76.1369 137.432V137.432ZM76.1112 100.256C73.5063 100.256 70.9135 100.836 68.4907 101.987C64.1971 104.026 60.9544 107.617 59.3601 112.097C57.7657 116.576 58.0104 121.409 60.0493 125.705C62.0881 130.001 65.6768 133.245 70.1544 134.84C72.1055 135.535 74.1243 135.881 76.1358 135.881C78.7406 135.881 81.3334 135.301 83.7562 134.15C88.0498 132.111 91.2925 128.52 92.8868 124.04C94.4812 119.561 94.2365 114.728 92.1976 110.432C90.1588 106.136 86.5701 102.892 82.0925 101.297C80.1414 100.602 78.1226 100.256 76.1112 100.256Z" fill="#6DA552"/>
<path d="M82.2747 114.387L70.7317 107.114C70.4847 106.959 70.162 107.129 70.1508 107.42L69.629 121.005C69.5808 121.214 69.7121 121.455 69.9704 121.474L77.9905 122.064C78.0614 122.069 78.1323 122.054 78.1951 122.021C78.258 121.988 78.3103 121.938 78.346 121.876L82.3904 114.922C82.4006 114.905 82.4093 114.886 82.4167 114.867C82.4915 114.704 82.4464 114.495 82.2747 114.387Z" fill="#212121"/>
<path d="M81.5067 129.076L70.9897 123.478C70.7711 123.379 70.7119 123.122 70.819 122.94C70.8733 122.847 70.9801 122.798 71.0868 122.809L78.7814 123.545C78.8556 123.552 78.9303 123.537 78.9961 123.502C79.0619 123.467 79.1159 123.413 79.1512 123.347L82.7549 116.656C82.8063 116.561 82.9078 116.499 83.0158 116.507C83.226 116.522 83.4038 116.716 83.3622 116.952L82.0366 128.796C82.0265 128.853 82.0035 128.907 81.9695 128.954C81.9354 129 81.8911 129.039 81.84 129.066C81.7889 129.093 81.7323 129.108 81.6745 129.109C81.6167 129.111 81.5593 129.1 81.5067 129.076V129.076Z" fill="#212121"/>
</g>
<g clip-path="url(#clip8_5_862)">
<path d="M275.999 251.292C291.191 251.292 303.507 238.971 303.507 223.771C303.507 208.572 291.191 196.25 275.999 196.25C260.807 196.25 248.491 208.572 248.491 223.771C248.491 238.971 260.807 251.292 275.999 251.292Z" fill="white"/>
<path d="M276.045 252.08C273.564 252.08 271.068 251.751 268.609 251.085C261.317 249.11 255.23 244.412 251.469 237.857C247.709 231.302 246.725 223.673 248.699 216.378C250.673 209.082 255.368 202.992 261.92 199.229C268.473 195.467 276.097 194.483 283.389 196.458C290.681 198.432 296.769 203.13 300.529 209.686C304.29 216.241 305.274 223.869 303.3 231.165C301.326 238.46 296.63 244.55 290.078 248.313C285.735 250.807 280.92 252.08 276.045 252.08V252.08ZM275.954 197.031C271.444 197.031 266.877 198.172 262.692 200.575C256.499 204.131 252.061 209.887 250.195 216.783C248.33 223.679 249.26 230.889 252.814 237.085C257.75 245.688 266.775 250.511 276.044 250.511C280.555 250.512 285.121 249.371 289.306 246.968C295.499 243.412 299.937 237.655 301.803 230.76C303.669 223.864 302.739 216.654 299.184 210.458C294.248 201.854 285.223 197.031 275.954 197.031Z" fill="#212121"/>
<path d="M276.034 245.278C274.149 245.278 272.253 245.028 270.385 244.522C264.845 243.021 260.22 239.452 257.363 234.472C254.506 229.492 253.759 223.697 255.259 218.154C256.758 212.612 260.326 207.985 265.303 205.127C270.281 202.268 276.074 201.52 281.614 203.021C287.154 204.521 291.778 208.09 294.635 213.07C297.492 218.051 298.239 223.846 296.74 229.388C295.24 234.931 291.673 239.558 286.695 242.416C283.396 244.31 279.738 245.278 276.033 245.278H276.034ZM275.967 203.817C272.53 203.817 269.137 204.714 266.075 206.472C261.457 209.124 258.147 213.417 256.755 218.559C255.364 223.702 256.058 229.079 258.708 233.7C261.359 238.321 265.65 241.632 270.79 243.024C275.93 244.416 281.304 243.722 285.923 241.07C290.542 238.418 293.852 234.125 295.243 228.983C296.634 223.84 295.941 218.463 293.29 213.842C290.639 209.222 286.348 205.91 281.208 204.518C279.475 204.049 277.716 203.817 275.967 203.817Z" fill="#6DA552"/>
<path d="M273.724 228.447C273.93 228.406 274.144 228.496 274.247 228.678C274.853 229.743 275.935 230.241 277.358 229.96C279.067 229.622 279.43 228.698 279.253 227.803C279.021 226.629 278.248 226.208 275.623 226.026C269.785 225.625 267.997 223.805 267.423 220.902C266.695 217.221 269.295 214.211 273.729 213.334C278.637 212.363 281.4 214.046 282.458 216.947C282.563 217.234 282.389 217.547 282.089 217.607L277.696 218.476C277.477 218.519 277.259 218.41 277.157 218.212C276.801 217.523 276.155 216.766 274.507 217.093C273.047 217.382 272.734 218.303 272.887 219.081C273.098 220.147 273.862 220.443 276.877 220.672C282.412 221.048 284.22 222.896 284.814 225.957C285.625 230.169 282.76 232.837 278.01 233.777C273.027 234.763 269.949 233.014 268.852 229.991C268.749 229.706 268.926 229.396 269.223 229.337L273.724 228.447L273.724 228.447ZM271.948 214.449L271.563 212.503C271.55 212.439 271.55 212.373 271.563 212.309C271.576 212.245 271.601 212.185 271.637 212.131C271.673 212.076 271.72 212.03 271.774 211.994C271.828 211.958 271.889 211.933 271.953 211.92L274.997 211.318C275.061 211.305 275.127 211.305 275.19 211.318C275.254 211.331 275.315 211.356 275.369 211.392C275.423 211.428 275.469 211.475 275.506 211.529C275.542 211.583 275.567 211.644 275.579 211.708L275.964 213.654C275.977 213.718 275.977 213.783 275.964 213.847C275.951 213.911 275.926 213.972 275.89 214.026C275.854 214.08 275.807 214.126 275.753 214.163C275.699 214.199 275.638 214.224 275.574 214.236L272.53 214.839C272.466 214.851 272.4 214.851 272.336 214.839C272.273 214.826 272.212 214.801 272.158 214.764C272.104 214.728 272.057 214.682 272.021 214.628C271.985 214.573 271.96 214.513 271.948 214.449ZM276.343 235.85L275.75 232.85C275.737 232.787 275.737 232.721 275.75 232.657C275.763 232.593 275.788 232.532 275.824 232.478C275.86 232.424 275.907 232.378 275.961 232.342C276.015 232.306 276.076 232.281 276.14 232.268L279.204 231.662C279.268 231.649 279.333 231.649 279.397 231.662C279.461 231.675 279.521 231.7 279.576 231.736C279.63 231.772 279.676 231.819 279.712 231.873C279.748 231.927 279.773 231.988 279.786 232.052L280.379 235.051C280.392 235.115 280.391 235.181 280.379 235.244C280.366 235.308 280.341 235.369 280.305 235.423C280.268 235.477 280.222 235.524 280.168 235.56C280.114 235.596 280.053 235.621 279.989 235.633L276.925 236.24C276.861 236.253 276.795 236.252 276.731 236.24C276.668 236.227 276.607 236.202 276.553 236.165C276.499 236.129 276.452 236.083 276.416 236.029C276.38 235.974 276.355 235.914 276.343 235.85Z" fill="#212121"/>
</g>
<g clip-path="url(#clip9_5_862)">
<path d="M303.447 263.089H254.136C252.332 263.089 250.869 264.542 250.869 266.333V270.871C250.869 272.662 252.332 274.114 254.136 274.114H303.447C305.252 274.114 306.715 272.662 306.715 270.871V266.333C306.715 264.542 305.252 263.089 303.447 263.089Z" fill="white"/>
<path d="M303.447 274.887H254.136C251.905 274.887 250.09 273.085 250.09 270.871V266.333C250.09 264.118 251.905 262.317 254.136 262.317H303.447C305.678 262.317 307.493 264.118 307.493 266.333V270.871C307.493 273.085 305.678 274.886 303.447 274.886L303.447 274.887ZM254.136 263.862C252.764 263.862 251.647 264.971 251.647 266.333V270.871C251.647 272.233 252.764 273.341 254.136 273.341H303.447C304.82 273.341 305.936 272.233 305.936 270.871V266.333C305.936 264.97 304.82 263.862 303.447 263.862H254.136Z" fill="#212121"/>
<path d="M257.253 274.501C257.047 274.501 256.849 274.419 256.703 274.274C256.557 274.13 256.475 273.933 256.475 273.728V263.089C256.475 262.663 256.823 262.317 257.253 262.317C257.683 262.317 258.032 262.663 258.032 263.089V273.728C258.032 273.933 257.95 274.129 257.804 274.274C257.658 274.419 257.46 274.501 257.253 274.501ZM263.407 274.501C263.201 274.501 263.003 274.419 262.857 274.274C262.711 274.13 262.629 273.933 262.629 273.728V263.089C262.629 262.663 262.977 262.317 263.407 262.317C263.837 262.317 264.186 262.663 264.186 263.089V273.728C264.186 273.933 264.104 274.129 263.958 274.274C263.812 274.419 263.614 274.501 263.407 274.501ZM269.561 274.733C269.354 274.733 269.156 274.652 269.01 274.507C268.864 274.362 268.782 274.166 268.782 273.961V263.322C268.782 262.895 269.131 262.549 269.561 262.549C269.991 262.549 270.339 262.895 270.339 263.322V273.961C270.339 274.166 270.257 274.362 270.111 274.507C269.965 274.652 269.767 274.733 269.561 274.733ZM275.715 274.733C275.508 274.733 275.31 274.652 275.164 274.507C275.018 274.362 274.936 274.166 274.936 273.961V263.322C274.936 262.895 275.285 262.549 275.715 262.549C276.145 262.549 276.493 262.895 276.493 263.322V273.961C276.493 274.166 276.411 274.362 276.265 274.507C276.119 274.652 275.921 274.733 275.715 274.733ZM281.869 274.733C281.662 274.733 281.464 274.652 281.318 274.507C281.172 274.362 281.09 274.166 281.09 273.961V263.322C281.09 262.895 281.439 262.549 281.869 262.549C282.299 262.549 282.647 262.895 282.647 263.322V273.961C282.647 274.166 282.565 274.362 282.419 274.507C282.273 274.652 282.075 274.733 281.869 274.733ZM288.023 274.733C287.816 274.733 287.618 274.652 287.472 274.507C287.326 274.362 287.244 274.166 287.244 273.961V263.322C287.244 262.895 287.593 262.549 288.023 262.549C288.453 262.549 288.801 262.895 288.801 263.322V273.961C288.801 274.166 288.719 274.362 288.573 274.507C288.427 274.652 288.229 274.733 288.023 274.733ZM294.176 275.045C293.97 275.045 293.772 274.963 293.626 274.818C293.48 274.673 293.398 274.477 293.398 274.272V263.633C293.398 263.206 293.746 262.861 294.176 262.861C294.606 262.861 294.955 263.206 294.955 263.633V274.272C294.955 274.477 294.873 274.673 294.727 274.818C294.581 274.963 294.383 275.045 294.176 275.045ZM300.33 275.045C300.124 275.045 299.926 274.963 299.78 274.818C299.634 274.673 299.552 274.477 299.552 274.272V263.633C299.552 263.206 299.9 262.861 300.33 262.861C300.76 262.861 301.109 263.206 301.109 263.633V274.272C301.109 274.477 301.027 274.673 300.881 274.818C300.735 274.963 300.537 275.045 300.33 275.045Z" fill="#6DA552"/>
<path d="M303.447 274.887H254.136C251.905 274.887 250.09 273.085 250.09 270.871V266.333C250.09 264.118 251.905 262.317 254.136 262.317H303.447C305.678 262.317 307.493 264.118 307.493 266.333V270.871C307.493 273.085 305.678 274.886 303.447 274.886L303.447 274.887ZM254.136 263.862C252.764 263.862 251.647 264.971 251.647 266.333V270.871C251.647 272.233 252.764 273.341 254.136 273.341H303.447C304.82 273.341 305.936 272.233 305.936 270.871V266.333C305.936 264.97 304.82 263.862 303.447 263.862H254.136Z" fill="#212121"/>
</g>
<g clip-path="url(#clip10_5_862)">
<path d="M296.414 251.914H247.103C245.299 251.914 243.836 253.366 243.836 255.157V259.695C243.836 261.486 245.299 262.938 247.103 262.938H296.414C298.219 262.938 299.681 261.486 299.681 259.695V255.157C299.681 253.366 298.219 251.914 296.414 251.914Z" fill="white"/>
<path d="M296.414 263.711H247.103C244.872 263.711 243.057 261.909 243.057 259.695V255.157C243.057 252.943 244.872 251.141 247.103 251.141H296.414C298.645 251.141 300.46 252.943 300.46 255.157V259.695C300.46 261.909 298.645 263.711 296.414 263.711L296.414 263.711ZM247.103 252.687C245.731 252.687 244.614 253.795 244.614 255.157V259.695C244.614 261.057 245.731 262.165 247.103 262.165H296.414C297.786 262.165 298.903 261.057 298.903 259.695V255.157C298.903 253.795 297.786 252.687 296.414 252.687H247.103Z" fill="#212121"/>
<path d="M250.22 263.325C250.013 263.325 249.815 263.244 249.669 263.099C249.523 262.954 249.441 262.757 249.441 262.553V251.914C249.441 251.487 249.79 251.141 250.22 251.141C250.65 251.141 250.998 251.487 250.998 251.914V262.552C250.998 262.757 250.916 262.954 250.77 263.099C250.624 263.244 250.426 263.325 250.22 263.325ZM256.374 263.325C256.167 263.325 255.969 263.244 255.823 263.099C255.677 262.954 255.595 262.757 255.595 262.553V251.914C255.595 251.487 255.944 251.141 256.374 251.141C256.804 251.141 257.152 251.487 257.152 251.914V262.552C257.152 262.757 257.07 262.954 256.924 263.099C256.778 263.244 256.58 263.325 256.374 263.325ZM262.528 263.558C262.321 263.558 262.123 263.477 261.977 263.332C261.831 263.187 261.749 262.99 261.749 262.785V252.147C261.749 251.72 262.098 251.374 262.528 251.374C262.958 251.374 263.306 251.72 263.306 252.147V262.785C263.306 262.99 263.224 263.187 263.078 263.332C262.932 263.477 262.734 263.558 262.528 263.558ZM268.681 263.558C268.475 263.558 268.277 263.477 268.131 263.332C267.985 263.187 267.903 262.99 267.903 262.785V252.147C267.903 251.72 268.251 251.374 268.681 251.374C269.111 251.374 269.46 251.72 269.46 252.147V262.785C269.46 262.99 269.378 263.187 269.232 263.332C269.086 263.477 268.888 263.558 268.681 263.558ZM274.835 263.558C274.629 263.558 274.431 263.477 274.285 263.332C274.139 263.187 274.057 262.99 274.057 262.785V252.147C274.057 251.72 274.405 251.374 274.835 251.374C275.266 251.374 275.614 251.72 275.614 252.147V262.785C275.614 262.99 275.532 263.187 275.386 263.332C275.24 263.477 275.042 263.558 274.835 263.558ZM280.989 263.558C280.783 263.558 280.585 263.477 280.439 263.332C280.293 263.187 280.211 262.99 280.211 262.785V252.147C280.211 251.72 280.559 251.374 280.989 251.374C281.419 251.374 281.768 251.72 281.768 252.147V262.785C281.768 262.99 281.686 263.187 281.54 263.332C281.394 263.477 281.196 263.558 280.989 263.558ZM287.143 263.869C286.937 263.869 286.739 263.788 286.593 263.643C286.447 263.498 286.365 263.301 286.365 263.096V252.458C286.365 252.031 286.713 251.685 287.143 251.685C287.573 251.685 287.922 252.031 287.922 252.458V263.096C287.922 263.301 287.84 263.498 287.694 263.643C287.548 263.788 287.35 263.869 287.143 263.869ZM293.297 263.869C293.091 263.869 292.892 263.788 292.746 263.643C292.6 263.498 292.518 263.301 292.518 263.096V252.458C292.518 252.031 292.867 251.685 293.297 251.685C293.727 251.685 294.076 252.031 294.076 252.458V263.096C294.076 263.301 293.993 263.498 293.847 263.643C293.701 263.788 293.503 263.869 293.297 263.869Z" fill="#6DA552"/>
<path d="M296.414 263.711H247.103C244.872 263.711 243.057 261.909 243.057 259.695V255.157C243.057 252.943 244.872 251.141 247.103 251.141H296.414C298.645 251.141 300.46 252.943 300.46 255.157V259.695C300.46 261.909 298.645 263.711 296.414 263.711L296.414 263.711ZM247.103 252.687C245.731 252.687 244.614 253.795 244.614 255.157V259.695C244.614 261.057 245.731 262.165 247.103 262.165H296.414C297.786 262.165 298.903 261.057 298.903 259.695V255.157C298.903 253.795 297.786 252.687 296.414 252.687H247.103Z" fill="#212121"/>
</g>
<defs>
<clipPath id="clip0_5_862">
<rect width="320.525" height="216.269" fill="white" transform="translate(20.7892 47.3929)"/>
</clipPath>
<clipPath id="clip1_5_862">
<rect width="130.01" height="237.689" fill="white" transform="matrix(-1 0 0 1 245.01 37.0451)"/>
</clipPath>
<clipPath id="clip2_5_862">
<rect width="103.015" height="16.3495" fill="white" transform="translate(159.797 198.781)"/>
</clipPath>
<clipPath id="clip3_5_862">
<rect width="105.187" height="16.66" fill="white" transform="translate(158.659 177.775)"/>
</clipPath>
<clipPath id="clip4_5_862">
<rect width="105.187" height="21.4199" fill="white" transform="translate(158.763 227.652)"/>
</clipPath>
<clipPath id="clip5_5_862">
<rect width="56.5754" height="56.6025" fill="white" transform="translate(123.287 146.525)"/>
</clipPath>
<clipPath id="clip6_5_862">
<rect width="71.1589" height="85.2659" fill="white" transform="translate(139.926 71.9172)"/>
</clipPath>
<clipPath id="clip7_5_862">
<rect width="50.8869" height="50.9112" fill="white" transform="translate(50.68 92.6128)"/>
</clipPath>
<clipPath id="clip8_5_862">
<rect width="56.5754" height="56.6025" fill="white" transform="translate(247.711 195.47)"/>
</clipPath>
<clipPath id="clip9_5_862">
<rect width="57.4029" height="12.7278" fill="white" transform="translate(250.09 262.317)"/>
</clipPath>
<clipPath id="clip10_5_862">
<rect width="57.4029" height="12.7278" fill="white" transform="translate(243.057 251.141)"/>
</clipPath>
</defs>
</svg>
