<svg width="230" height="300" viewBox="0 0 230 300" fill="none" xmlns="http://www.w3.org/2000/svg">
<mask id="mask0_3_3" style="mask-type:luminance" maskUnits="userSpaceOnUse" x="41" y="24" width="141" height="256">
<path d="M181.073 24.6977H41.9576V279.209H181.073V24.6977Z" fill="white"/>
</mask>
<g mask="url(#mask0_3_3)">
<path d="M67.2095 25.7408H166.14C173.812 25.7408 180.031 31.968 180.031 39.6496V264.257C180.031 271.939 173.812 278.166 166.14 278.166H67.2095C59.5379 278.166 53.3189 271.939 53.3189 264.257V39.6496C53.3189 31.968 59.5379 25.7408 67.2095 25.7408Z" fill="#212121"/>
<path d="M67.2095 279.209H166.14C174.374 279.209 181.073 272.502 181.073 264.257V39.6496C181.073 31.405 174.374 24.6977 166.14 24.6977H67.2095C58.9757 24.6977 52.2771 31.405 52.2771 39.6496V264.257C52.2771 272.502 58.9757 279.209 67.2095 279.209ZM166.14 26.784C173.225 26.784 178.989 32.5554 178.989 39.6496V264.257C178.989 271.352 173.225 277.123 166.14 277.123H67.2095C60.1246 277.123 54.3607 271.352 54.3607 264.257V39.6496C54.3607 32.5554 60.1246 26.784 67.2095 26.784H166.14Z" fill="#212121"/>
<path d="M56.7018 25.7408H155.633C163.304 25.7408 169.523 31.968 169.523 39.6496V264.257C169.523 271.939 163.304 278.166 155.633 278.166H56.7018C49.0302 278.166 42.8112 271.939 42.8112 264.257V39.6496C42.8112 31.968 49.0302 25.7408 56.7018 25.7408Z" fill="#FAFAFA"/>
<path d="M93.5102 32.4418H118.824C121.096 32.4418 122.937 34.2857 122.937 36.5603C122.937 38.8349 121.096 40.6788 118.824 40.6788H93.5102C91.2386 40.6788 89.3971 38.8349 89.3971 36.5603C89.3971 34.2857 91.2386 32.4418 93.5102 32.4418Z" fill="#212121"/>
<path d="M93.5102 41.722H118.824C121.667 41.722 123.979 39.4064 123.979 36.5603C123.979 33.7141 121.667 31.3986 118.824 31.3986H93.5102C90.6678 31.3986 88.3553 33.7141 88.3553 36.5603C88.3553 39.4064 90.6678 41.722 93.5102 41.722ZM118.824 33.4849C120.518 33.4849 121.895 34.8645 121.895 36.5603C121.895 38.256 120.518 39.6357 118.824 39.6357H93.5102C91.8167 39.6357 90.4389 38.256 90.4389 36.5603C90.4389 34.8645 91.8167 33.4849 93.5102 33.4849H118.824Z" fill="#212121"/>
<path d="M56.89 279.209H155.821C164.055 279.209 170.753 272.502 170.753 264.257V39.6496C170.753 31.405 164.055 24.6977 155.821 24.6977H56.89C48.6563 24.6977 41.9576 31.405 41.9576 39.6496V264.257C41.9576 272.502 48.6562 279.209 56.89 279.209ZM155.821 26.784C162.906 26.784 168.67 32.5554 168.67 39.6496V264.257C168.67 271.352 162.906 277.123 155.821 277.123H56.89C49.8051 277.123 44.0412 271.352 44.0412 264.257V39.6496C44.0412 32.5554 49.8051 26.784 56.89 26.784H155.821Z" fill="#212121"/>
<path d="M85.8705 273.269H126.464C127.039 273.269 127.506 272.802 127.506 272.226C127.506 271.65 127.039 271.183 126.464 271.183H85.8705C85.2952 271.183 84.8287 271.65 84.8287 272.226C84.8287 272.802 85.2952 273.269 85.8705 273.269Z" fill="#212121"/>
</g>
<mask id="mask1_3_3" style="mask-type:luminance" maskUnits="userSpaceOnUse" x="125" y="87" width="44" height="45">
<path d="M125.315 87.2093H168.806V131.86H125.315V87.2093Z" fill="white"/>
</mask>
<g mask="url(#mask1_3_3)">
<path d="M187.966 88.2584H131.943C128.861 88.2584 126.362 90.7635 126.362 93.8538V125.356C126.362 128.446 128.861 130.951 131.943 130.951H187.966C191.049 130.951 193.547 128.446 193.547 125.356V93.8538C193.547 90.7635 191.049 88.2584 187.966 88.2584Z" fill="white"/>
<path d="M131.943 132C130.171 132 128.51 131.315 127.255 130.056C125.999 128.797 125.315 127.132 125.315 125.356V93.8538C125.315 90.1888 128.287 87.2093 131.943 87.2093H187.966C191.622 87.2093 194.594 90.1888 194.594 93.8538V125.356C194.594 129.02 191.622 132 187.966 132H131.943ZM187.966 89.3076H131.943C129.445 89.3076 127.408 91.3499 127.408 93.8538V125.356C127.408 126.573 127.883 127.706 128.734 128.573C129.585 129.44 130.729 129.902 131.943 129.902H187.966C190.464 129.902 192.501 127.859 192.501 125.356V93.8538C192.501 91.3499 190.464 89.3076 187.966 89.3076Z" fill="#212121"/>
<path d="M142.715 118.152H134.092C133.52 118.152 133.045 117.676 133.045 117.102C133.045 116.529 133.52 116.053 134.092 116.053H142.715C143.287 116.053 143.762 116.529 143.762 117.102C143.762 117.676 143.287 118.152 142.715 118.152Z" fill="#212121"/>
<path d="M157.087 118.152H148.464C147.892 118.152 147.417 117.676 147.417 117.102C147.417 116.529 147.892 116.053 148.464 116.053H157.087C157.659 116.053 158.134 116.529 158.134 117.102C158.134 117.676 157.659 118.152 157.087 118.152Z" fill="#212121"/>
<path d="M162.822 118.152C162.25 118.152 161.775 117.676 161.775 117.102C161.775 116.529 162.25 116.053 162.822 116.053H171.445C172.017 116.053 172.492 116.529 172.492 117.102C172.492 117.676 172.017 118.152 171.445 118.152H162.822Z" fill="#212121"/>
<path d="M145.422 94.9309H138.306C135.32 94.9309 132.892 97.3649 132.892 100.358C132.892 103.352 135.32 105.786 138.306 105.786H145.422C148.408 105.786 150.836 103.352 150.836 100.358C150.836 97.3649 148.408 94.9309 145.422 94.9309Z" fill="#212121"/>
</g>
<mask id="mask2_3_3" style="mask-type:luminance" maskUnits="userSpaceOnUse" x="49" y="87" width="71" height="46">
<path d="M49.7636 87.6279H119.042V132.419H49.7636V87.6279Z" fill="white"/>
</mask>
<g mask="url(#mask2_3_3)">
<path d="M112.415 88.677H56.3915C53.309 88.677 50.8102 91.1822 50.8102 94.2724V125.774C50.8102 128.864 53.309 131.369 56.3915 131.369H112.415C115.497 131.369 117.996 128.864 117.996 125.774V94.2724C117.996 91.1822 115.497 88.677 112.415 88.677Z" fill="#6DA552"/>
<path d="M56.3915 132.419C54.6194 132.419 52.959 131.733 51.7032 130.474C50.4474 129.215 49.7636 127.551 49.7636 125.774V94.2724C49.7636 90.6074 52.7357 87.6279 56.3915 87.6279H112.415C116.07 87.6279 119.042 90.6074 119.042 94.2724V125.774C119.042 129.439 116.07 132.419 112.415 132.419H56.3915ZM112.415 89.7262H56.3915C53.8939 89.7262 51.8567 91.7685 51.8567 94.2724V125.774C51.8567 126.991 52.3311 128.124 53.1822 128.991C54.0334 129.859 55.1776 130.32 56.3915 130.32H112.415C114.912 130.32 116.949 128.278 116.949 125.774V94.2724C116.949 91.7685 114.912 89.7262 112.415 89.7262Z" fill="#6DA552"/>
<path d="M67.1636 118.57H58.5404C57.9683 118.57 57.4939 118.095 57.4939 117.521C57.4939 116.947 57.9683 116.472 58.5404 116.472H67.1636C67.7357 116.472 68.2101 116.947 68.2101 117.521C68.2101 118.095 67.7357 118.57 67.1636 118.57Z" fill="white"/>
<path d="M81.5356 118.57H72.9124C72.3403 118.57 71.8659 118.095 71.8659 117.521C71.8659 116.947 72.3403 116.472 72.9124 116.472H81.5356C82.1077 116.472 82.5821 116.947 82.5821 117.521C82.5821 118.095 82.1077 118.57 81.5356 118.57Z" fill="white"/>
<path d="M87.2705 118.57C86.6984 118.57 86.224 118.095 86.224 117.521C86.224 116.947 86.6984 116.472 87.2705 116.472H95.8937C96.4658 116.472 96.9402 116.947 96.9402 117.521C96.9402 118.095 96.4658 118.57 95.8937 118.57H87.2705Z" fill="white"/>
<path d="M101.642 118.57C101.07 118.57 100.596 118.095 100.596 117.521C100.596 116.947 101.07 116.472 101.642 116.472H110.266C110.838 116.472 111.312 116.947 111.312 117.521C111.312 118.095 110.838 118.57 110.266 118.57H101.642Z" fill="white"/>
<path d="M69.8705 95.3495H62.7543C59.7682 95.3495 57.3403 97.7834 57.3403 100.777C57.3403 103.77 59.7682 106.204 62.7543 106.204H69.8705C72.8566 106.204 75.2845 103.77 75.2845 100.777C75.2845 97.7834 72.8566 95.3495 69.8705 95.3495Z" fill="white"/>
</g>
<mask id="mask3_3_3" style="mask-type:luminance" maskUnits="userSpaceOnUse" x="62" y="58" width="88" height="19">
<path d="M62.8667 58.7442H149.43V76.186H62.8667V58.7442Z" fill="white"/>
</mask>
<g mask="url(#mask3_3_3)">
<path d="M67.6848 75.3362C67.5228 75.3362 67.3811 75.2888 67.2597 75.1946C67.1382 75.1001 67.0775 74.9922 67.0775 74.8708V74.2436C66.2541 74.2303 65.5253 74.0953 64.8911 73.8389C64.2566 73.5828 63.7606 73.2723 63.4031 72.9081C63.0454 72.5439 62.8667 72.1933 62.8667 71.8559C62.8667 71.6941 62.9103 71.5255 62.9983 71.3501C63.0859 71.1749 63.2039 71.0231 63.3525 70.8948C63.5009 70.7668 63.6562 70.7026 63.8181 70.7026C63.9801 70.7026 64.1451 70.7734 64.3141 70.915C64.4827 71.0567 64.6852 71.2255 64.9215 71.4209C65.1575 71.6166 65.4478 71.7987 65.792 71.9672C66.1361 72.136 66.5644 72.2404 67.0775 72.2809V67.5258C66.6321 67.3639 66.1833 67.1888 65.7312 66.9997C65.2789 66.811 64.8639 66.5716 64.4862 66.2814C64.1082 65.9915 63.8046 65.6273 63.5752 65.1888C63.3456 64.7505 63.2311 64.2074 63.2311 63.5599C63.2311 62.9124 63.3389 62.3661 63.555 61.921C63.7707 61.4758 64.0641 61.1049 64.4356 60.8081C64.8067 60.5115 65.2217 60.282 65.6806 60.1201C66.1393 59.9582 66.6049 59.8504 67.0775 59.7964V59.2096C67.0775 59.0749 67.1382 58.9636 67.2597 58.8757C67.3811 58.7881 67.5228 58.7442 67.6848 58.7442C67.8332 58.7442 67.9714 58.7881 68.0998 58.8757C68.2279 58.9636 68.2921 59.075 68.2921 59.2096V59.7559C68.6294 59.7695 68.9906 59.8065 69.3752 59.8672C69.7598 59.9279 70.1208 60.0158 70.4583 60.1302C70.7955 60.245 71.0723 60.3933 71.2883 60.5754C71.504 60.7575 71.6122 60.9699 71.6122 61.2128C71.6122 61.3477 71.5784 61.503 71.511 61.6781C71.4433 61.8536 71.3455 62.012 71.2174 62.1536C71.089 62.2953 70.9239 62.3661 70.7214 62.3661C70.5595 62.3661 70.3805 62.3123 70.185 62.2042C69.9892 62.0964 69.7428 61.9785 69.4461 61.8501C69.149 61.7221 68.7644 61.6446 68.2921 61.6174V65.725C68.7239 65.8869 69.1592 66.0759 69.5979 66.2915C70.0363 66.5075 70.4346 66.7705 70.7923 67.0807C71.1498 67.3911 71.4366 67.7857 71.6527 68.2644C71.8684 68.7433 71.9766 69.3267 71.9766 70.0146C71.9766 71.256 71.6356 72.2236 70.9543 72.9182C70.2726 73.6131 69.3853 74.0346 68.2921 74.1829V74.8708C68.2921 74.9922 68.2279 75.1001 68.0998 75.1946C67.9714 75.2888 67.8332 75.3362 67.6848 75.3362ZM67.1989 65.3405V61.6579C66.8345 61.6984 66.5037 61.7862 66.207 61.921C65.91 62.0559 65.6772 62.2415 65.5085 62.4774C65.3397 62.7135 65.2555 63.0069 65.2555 63.3576C65.2555 63.7354 65.3431 64.049 65.5187 64.2985C65.6939 64.5482 65.9302 64.7505 66.2272 64.9055C66.5239 65.0607 66.8479 65.2058 67.1989 65.3405ZM68.1707 72.2404C68.7239 72.1326 69.1592 71.9134 69.4764 71.5828C69.7934 71.2524 69.9522 70.8038 69.9522 70.2372C69.9522 69.8056 69.8712 69.4515 69.7092 69.1749C69.5473 68.8986 69.3312 68.6624 69.0614 68.4667C68.7913 68.2713 68.4946 68.106 68.1707 67.971V72.2404Z" fill="#212121"/>
<path d="M79.8312 74.284C79.5611 74.284 79.315 74.2233 79.0923 74.1019C78.8696 73.9805 78.7583 73.8054 78.7583 73.5758V62.3256L78.0497 63.2159C77.9687 63.2836 77.8908 63.3342 77.8169 63.3677C77.7426 63.4015 77.6717 63.4183 77.6043 63.4183C77.3883 63.4183 77.2128 63.3272 77.078 63.1451C76.9429 62.963 76.8755 62.7641 76.8755 62.5482C76.8755 62.3863 76.916 62.2314 76.997 62.0828C77.078 61.9345 77.1792 61.8131 77.3007 61.7186L79.4061 59.6952C79.4735 59.6278 79.551 59.5738 79.6389 59.5333C79.7265 59.4929 79.8312 59.4726 79.9527 59.4726C80.182 59.4726 80.3981 59.5333 80.6005 59.6547C80.8029 59.7761 80.9042 59.9516 80.9042 60.1808V73.5758C80.9042 73.8054 80.7928 73.9805 80.5701 74.1019C80.3474 74.2233 80.101 74.284 79.8312 74.284Z" fill="#212121"/>
<path d="M83.6776 74.284C83.4885 74.284 83.2829 74.2202 83.0602 74.0918C82.8375 73.9638 82.7262 73.7918 82.7262 73.5758V71.6131C82.7262 71.0602 82.8846 70.5508 83.2019 70.0855C83.5189 69.6201 83.9307 69.1784 84.4368 68.7601C84.9429 68.3421 85.4794 67.934 86.0462 67.5359C86.613 67.1382 87.1461 66.7335 87.6455 66.3219C88.1447 65.9106 88.5565 65.4822 88.8804 65.037C89.2043 64.5919 89.3663 64.1063 89.3663 63.5802C89.3663 63.2431 89.2885 62.9124 89.1335 62.5887C88.9782 62.2649 88.7387 61.9952 88.4148 61.7793C88.0909 61.5637 87.6724 61.4556 87.1596 61.4556C86.5928 61.4556 86.1101 61.6174 85.7122 61.9412C85.3139 62.2649 85.115 62.7708 85.115 63.4588C85.115 63.6611 85.0169 63.8467 84.8214 64.0152C84.6256 64.184 84.3523 64.2681 84.0015 64.2681C83.7045 64.2681 83.4683 64.184 83.293 64.0152C83.1174 63.8467 83.0298 63.533 83.0298 63.0743C83.0298 62.3459 83.2187 61.7154 83.5967 61.1824C83.9744 60.6497 84.4805 60.2349 85.115 59.938C85.7492 59.6414 86.4309 59.4929 87.1596 59.4929C87.9422 59.4929 88.6644 59.6617 89.3258 59.9987C89.9869 60.336 90.5167 60.8049 90.915 61.405C91.3129 62.0055 91.5122 62.7101 91.5122 63.5195C91.5122 64.2346 91.3533 64.8821 91.0364 65.4619C90.7192 66.0421 90.3108 66.5682 89.8116 67.0402C89.3122 67.5125 88.7824 67.9441 88.2225 68.3352C87.6623 68.7266 87.1359 69.0974 86.6434 69.4481C86.1506 69.799 85.7457 70.1496 85.4288 70.5003C85.1115 70.8512 84.953 71.222 84.953 71.6131V72.382H90.8846C91.0734 72.382 91.2389 72.4731 91.3806 72.6552C91.5223 72.8373 91.5931 73.0567 91.5931 73.3128C91.5931 73.5689 91.5223 73.7952 91.3806 73.9906C91.2389 74.1863 91.0734 74.284 90.8846 74.284H83.6776Z" fill="#212121"/>
<path d="M93.7185 76.186C93.5565 76.186 93.3946 76.1355 93.2326 76.0343C93.0707 75.9331 92.9897 75.7947 92.9897 75.6195C92.9897 75.525 93.0099 75.4374 93.0504 75.3564L93.4958 74.284C93.2798 74.1898 93.1077 74.0447 92.9796 73.849C92.8512 73.6536 92.7873 73.4342 92.7873 73.1914C92.7873 72.8543 92.9053 72.5676 93.1415 72.3314C93.3775 72.0956 93.6578 71.9773 93.9817 71.9773C94.3056 71.9773 94.589 72.0921 94.8319 72.3213C95.0749 72.5508 95.1963 72.8408 95.1963 73.1914C95.1963 73.2319 95.1894 73.2926 95.1761 73.3735C95.1625 73.4544 95.122 73.5828 95.0546 73.7579C94.987 73.9334 94.8857 74.1898 94.751 74.5268C94.6159 74.8639 94.4337 75.316 94.2044 75.8825C94.1639 75.9904 94.093 76.0677 93.9918 76.1152C93.8906 76.1624 93.7995 76.186 93.7185 76.186Z" fill="#212121"/>
<path d="M102.444 74.284C102.174 74.284 101.928 74.2233 101.705 74.1019C101.482 73.9805 101.371 73.8054 101.371 73.5758V70.9656H96.411C96.1814 70.9656 95.9992 70.8948 95.8644 70.7532C95.7293 70.6115 95.662 70.4193 95.662 70.1765C95.662 70.1091 95.6721 70.0349 95.6923 69.9539C95.7126 69.873 95.7429 69.799 95.7834 69.7314L100.662 60.0797C100.784 59.864 100.929 59.7124 101.098 59.6244C101.266 59.5368 101.438 59.4929 101.614 59.4929C101.749 59.4929 101.897 59.5267 102.059 59.594C102.221 59.6617 102.363 59.7559 102.484 59.8773C102.606 59.9987 102.666 60.1473 102.666 60.3225C102.666 60.4034 102.639 60.5115 102.585 60.6462L98.3949 68.9625H101.371V66.1701C101.371 65.914 101.482 65.7319 101.705 65.6238C101.928 65.516 102.174 65.4619 102.444 65.4619C102.714 65.4619 102.96 65.516 103.183 65.6238C103.405 65.7319 103.517 65.914 103.517 66.1701V68.9625H104.529C104.772 68.9625 104.951 69.0671 105.065 69.2761C105.18 69.4854 105.237 69.718 105.237 69.9742C105.237 70.217 105.167 70.443 105.025 70.652C104.883 70.8613 104.718 70.9656 104.529 70.9656H103.517V73.5758C103.517 73.8054 103.405 73.9805 103.183 74.1019C102.96 74.2233 102.714 74.284 102.444 74.284Z" fill="#212121"/>
<path d="M110.906 74.4054C110.055 74.4054 109.286 74.2572 108.598 73.9603C107.91 73.6637 107.363 73.1847 106.958 72.5237C106.553 71.8629 106.351 70.9859 106.351 69.8932V64.0051C106.351 62.9124 106.556 62.0357 106.968 61.3746C107.38 60.7138 107.936 60.2349 108.638 59.938C109.34 59.6414 110.13 59.4929 111.007 59.4929C111.763 59.4929 112.421 59.5975 112.981 59.8065C113.541 60.0158 114.003 60.2956 114.368 60.6462C114.732 60.9971 115.002 61.3882 115.177 61.8198C115.353 62.2516 115.44 62.6766 115.44 63.0945C115.44 63.4455 115.359 63.6848 115.198 63.8129C115.036 63.9412 114.779 64.0051 114.428 64.0051C114.145 64.0051 113.888 63.9478 113.659 63.8331C113.429 63.7186 113.315 63.5063 113.315 63.1957C113.315 62.8182 113.207 62.4976 112.991 62.2346C112.775 61.9715 112.488 61.766 112.131 61.6174C111.773 61.4692 111.378 61.3949 110.946 61.3949C110.177 61.3949 109.576 61.6073 109.144 62.0322C108.712 62.4572 108.497 63.1148 108.497 64.0051V66.5546C108.834 66.1366 109.249 65.8397 109.742 65.6643C110.234 65.4891 110.757 65.4012 111.311 65.4012C112.08 65.4012 112.775 65.5261 113.396 65.7756C114.016 66.0253 114.512 66.4502 114.884 67.0503C115.255 67.6507 115.44 68.4768 115.44 69.529V69.8932C115.44 70.9859 115.241 71.8629 114.843 72.5237C114.445 73.1847 113.902 73.6638 113.214 73.9603C112.525 74.2572 111.756 74.4054 110.906 74.4054ZM110.906 72.6248C111.661 72.6248 112.249 72.4158 112.667 71.9976C113.085 71.5793 113.295 70.9185 113.295 70.0146V69.6706C113.295 68.7399 113.085 68.0823 112.667 67.6978C112.249 67.3134 111.655 67.1211 110.886 67.1211C110.17 67.1211 109.593 67.3002 109.155 67.6573C108.716 68.0149 108.497 68.6254 108.497 69.4885V70.0146C108.497 70.9185 108.709 71.5796 109.134 71.9976C109.559 72.4158 110.15 72.6248 110.906 72.6248Z" fill="#212121"/>
<path d="M121.21 74.4054C120.238 74.4054 119.412 74.2369 118.73 73.8996C118.049 73.5625 117.532 73.1206 117.181 72.5743C116.83 72.0279 116.655 71.4446 116.655 70.824C116.655 70.4329 116.749 70.1699 116.939 70.0349C117.127 69.9002 117.384 69.8325 117.708 69.8325C118.153 69.8325 118.447 69.9135 118.588 70.0753C118.73 70.2372 118.801 70.4395 118.801 70.6824C118.801 71.0602 118.905 71.3874 119.115 71.6637C119.324 71.9403 119.611 72.1493 119.975 72.291C120.34 72.4326 120.738 72.5034 121.17 72.5034C121.925 72.5034 122.519 72.2979 122.951 71.8863C123.383 71.475 123.599 70.8309 123.599 69.9539V69.5695C123.599 68.7063 123.383 68.0655 122.951 67.6472C122.519 67.2292 121.932 67.02 121.19 67.02H118.275C117.91 67.02 117.664 66.9425 117.536 66.7873C117.407 66.6323 117.343 66.4332 117.343 66.1904C117.343 66.0961 117.347 66.0117 117.354 65.9374C117.36 65.8634 117.37 65.7857 117.384 65.7048L117.85 60.2011C117.876 59.9854 117.927 59.8136 118.001 59.6851C118.075 59.557 118.187 59.4929 118.335 59.4929H124.348C124.577 59.4929 124.746 59.5908 124.854 59.7863C124.962 59.9819 125.016 60.2011 125.016 60.4439C125.016 60.6867 124.962 60.9061 124.854 61.1015C124.746 61.2972 124.577 61.3949 124.348 61.3949H119.672L119.388 65.3203H121.19C122.053 65.3203 122.826 65.4553 123.508 65.725C124.189 65.995 124.733 66.4433 125.137 67.0706C125.542 67.6978 125.745 68.5309 125.745 69.5695V69.9539C125.745 71.0333 125.539 71.8999 125.127 72.554C124.716 73.2084 124.169 73.6805 123.488 73.9704C122.806 74.2606 122.047 74.4054 121.21 74.4054Z" fill="#212121"/>
<path d="M128.113 74.4054C127.762 74.4054 127.472 74.284 127.243 74.0412C127.013 73.7984 126.899 73.5151 126.899 73.1914C126.899 72.8543 127.013 72.5676 127.243 72.3314C127.472 72.0956 127.762 71.9773 128.113 71.9773C128.437 71.9773 128.717 72.0956 128.953 72.3314C129.189 72.5676 129.308 72.8543 129.308 73.1914C129.308 73.5151 129.189 73.7984 128.953 74.0412C128.717 74.284 128.437 74.4054 128.113 74.4054Z" fill="#212121"/>
<path d="M132.79 74.3447C132.574 74.3447 132.361 74.3008 132.152 74.2132C131.943 74.1256 131.774 74.0008 131.646 73.8389C131.517 73.677 131.454 73.4949 131.454 73.2926C131.454 73.1712 131.487 73.0365 131.555 72.8879L137.122 62.6494V61.3949H132.324V63.2969C132.324 63.4992 132.213 63.668 131.99 63.8027C131.767 63.9377 131.514 64.0051 131.231 64.0051C130.947 64.0051 130.701 63.9377 130.492 63.8027C130.283 63.668 130.178 63.4992 130.178 63.2969V60.2011C130.178 60.0259 130.276 59.864 130.472 59.7154C130.667 59.5671 130.887 59.4929 131.13 59.4929H138.316C138.532 59.4929 138.745 59.5671 138.954 59.7154C139.163 59.864 139.268 60.0259 139.268 60.2011V62.2852C139.268 62.447 139.227 62.6393 139.146 62.8618C139.065 63.0844 138.977 63.2902 138.883 63.479L133.437 74.021C133.316 74.2369 133.1 74.3447 132.79 74.3447Z" fill="#212121"/>
<path d="M144.774 74.4054C144.018 74.4054 143.36 74.3008 142.8 74.0918C142.24 73.8828 141.778 73.6031 141.413 73.2521C141.049 72.9015 140.776 72.5104 140.594 72.0785C140.411 71.6469 140.32 71.222 140.32 70.8038C140.32 70.4531 140.404 70.2138 140.573 70.0855C140.742 69.9574 140.995 69.8932 141.332 69.8932C141.616 69.8932 141.872 69.9473 142.102 70.0551C142.331 70.1632 142.446 70.3788 142.446 70.7026C142.446 71.0804 142.554 71.4007 142.77 71.6637C142.986 71.9268 143.272 72.1326 143.63 72.2809C143.988 72.4294 144.382 72.5034 144.814 72.5034C145.584 72.5034 146.188 72.291 146.626 71.8661C147.065 71.4411 147.284 70.7835 147.284 69.8932V67.3437C146.947 67.762 146.532 68.0588 146.039 68.234C145.546 68.4095 145.017 68.4971 144.45 68.4971C143.694 68.4971 143.003 68.3725 142.375 68.1227C141.747 67.8733 141.248 67.4484 140.877 66.848C140.506 66.2479 140.32 65.4215 140.32 64.3693V64.0051C140.32 62.9124 140.523 62.0357 140.928 61.3746C141.332 60.7138 141.876 60.2349 142.557 59.938C143.239 59.6414 144.005 59.4929 144.855 59.4929C145.719 59.4929 146.495 59.6414 147.183 59.938C147.871 60.2349 148.418 60.7138 148.823 61.3746C149.228 62.0357 149.43 62.9124 149.43 64.0051V69.8932C149.43 70.9859 149.221 71.8629 148.803 72.5237C148.384 73.1847 147.824 73.6638 147.122 73.9603C146.42 74.2572 145.638 74.4054 144.774 74.4054ZM144.875 66.7772C145.604 66.7772 146.188 66.5951 146.626 66.2308C147.065 65.8666 147.284 65.2596 147.284 64.4098V63.8837C147.284 62.9801 147.068 62.319 146.636 61.9007C146.204 61.4827 145.611 61.2735 144.855 61.2735C144.113 61.2735 143.529 61.4827 143.104 61.9007C142.679 62.319 142.466 62.9801 142.466 63.8837V64.2277C142.466 65.1584 142.679 65.816 143.104 66.2005C143.529 66.5849 144.119 66.7772 144.875 66.7772Z" fill="#212121"/>
</g>
<mask id="mask4_3_3" style="mask-type:luminance" maskUnits="userSpaceOnUse" x="42" y="122" width="101" height="107">
<path d="M61.4593 122.307L142.556 139.19L123.958 228.922L42.8607 212.039L61.4593 122.307Z" fill="white"/>
</mask>
<g mask="url(#mask4_3_3)">
<path d="M61.6893 126.279L28.1928 287.868C27.8799 289.378 28.8494 290.857 30.3584 291.171L103.957 306.491C105.466 306.805 106.943 305.836 107.256 304.326L140.753 142.736C141.066 141.227 140.096 139.748 138.587 139.434L64.9882 124.114C63.4792 123.8 62.0023 124.769 61.6893 126.279Z" fill="white"/>
<path d="M30.1463 292.196C28.0747 291.765 26.7391 289.727 27.1687 287.655L60.6647 126.066C61.0944 123.993 63.1291 122.658 65.2007 123.089L138.799 138.409C140.871 138.84 142.206 140.877 141.777 142.95L108.281 304.539C107.851 306.611 105.816 307.947 103.745 307.515L30.1463 292.195L30.1463 292.196ZM138.374 140.459L64.7757 125.139C63.834 124.943 62.9091 125.55 62.7139 126.492L29.2178 288.081C29.0225 289.024 29.6296 289.949 30.5713 290.145L104.17 305.465C105.111 305.661 106.036 305.054 106.232 304.112L139.728 142.523C139.923 141.581 139.316 140.655 138.374 140.459Z" fill="#212121"/>
<path d="M44.7421 287.04C44.4704 286.984 44.2321 286.821 44.0798 286.589C43.9275 286.357 43.8736 286.074 43.9299 285.802C44.7105 282.036 42.2833 278.334 38.5191 277.551C37.9532 277.433 37.5895 276.879 37.7069 276.312L65.8224 140.675C65.8786 140.403 66.0406 140.165 66.2725 140.012C66.5044 139.86 66.7875 139.806 67.0593 139.863C70.8235 140.646 74.5209 138.22 75.3015 134.454C75.4189 133.888 75.9728 133.525 76.5387 133.642L124.203 143.564C124.475 143.621 124.713 143.783 124.866 144.015C125.018 144.248 125.072 144.531 125.015 144.803C124.637 146.627 124.992 148.49 126.014 150.048C127.036 151.607 128.603 152.674 130.426 153.054C130.698 153.11 130.936 153.272 131.089 153.505C131.241 153.737 131.295 154.02 131.238 154.292L103.123 289.93C103.067 290.202 102.905 290.44 102.673 290.592C102.441 290.744 102.158 290.798 101.886 290.742C98.1219 289.958 94.4244 292.384 93.6438 296.15C93.5265 296.716 92.9726 297.08 92.4067 296.962L44.7421 287.04ZM39.9565 275.773C43.936 277.092 46.5077 281.014 46.133 285.191L91.8657 294.711C93.182 290.73 97.0995 288.159 101.274 288.537L128.989 154.833C127.053 154.193 125.4 152.928 124.264 151.197C123.129 149.465 122.627 147.445 122.812 145.413L77.0796 135.894C75.7633 139.875 71.8458 142.445 67.6711 142.068L39.9562 275.773L39.9565 275.773Z" fill="#212121"/>
<path d="M77.5602 248.653C90.6223 251.373 104.306 238.645 108.124 220.226C111.941 201.807 104.447 184.671 91.3851 181.951C78.323 179.232 64.6393 191.959 60.8217 210.378C57.004 228.798 64.4981 245.934 77.5602 248.653Z" fill="#212121"/>
<path d="M77.3479 249.678C70.6892 248.292 65.204 243.371 61.9029 235.823C58.6551 228.396 57.9074 219.284 59.7974 210.165C61.6875 201.046 65.9941 192.986 71.9243 187.471C77.9521 181.864 84.9389 179.54 91.5975 180.926C98.2563 182.312 103.741 187.233 107.043 194.782C110.29 202.208 111.038 211.32 109.148 220.439C107.258 229.558 102.951 237.618 97.0212 243.134C90.9933 248.74 84.0065 251.065 77.3479 249.678ZM91.1728 182.976C78.6966 180.379 65.5407 192.767 61.8465 210.592C60.0438 219.29 60.7446 227.952 63.8198 234.984C66.8415 241.894 71.7969 246.384 77.773 247.628C83.749 248.872 90.0788 246.731 95.5962 241.6C101.211 236.377 105.297 228.711 107.099 220.013C110.794 202.188 103.649 185.574 91.1729 182.976L91.1728 182.976Z" fill="#212121"/>
</g>
<mask id="mask5_3_3" style="mask-type:luminance" maskUnits="userSpaceOnUse" x="72" y="107" width="102" height="93">
<path d="M96.1484 107.149L173.583 136.573L149.62 199.824L72.1854 170.4L96.1484 107.149Z" fill="white"/>
</mask>
<g mask="url(#mask5_3_3)">
<path d="M95.7506 111.11L37.2882 265.414C36.7419 266.856 37.4672 268.468 38.908 269.016L109.185 295.719C110.626 296.266 112.236 295.541 112.783 294.1L171.245 139.795C171.791 138.354 171.066 136.741 169.625 136.194L99.3485 109.491C97.9077 108.943 96.2968 109.668 95.7506 111.11Z" fill="white"/>
<path d="M38.5375 269.995C36.5594 269.243 35.5604 267.021 36.3102 265.042L94.7722 110.738C95.522 108.759 97.7413 107.76 99.7193 108.512L169.996 135.215C171.974 135.966 172.973 138.188 172.223 140.167L113.761 294.471C113.011 296.45 110.792 297.449 108.814 296.697L38.5376 269.994L38.5375 269.995ZM169.254 137.172L98.9776 110.469C98.0784 110.128 97.0696 110.582 96.7288 111.482L38.2669 265.786C37.926 266.685 38.3801 267.695 39.2793 268.037L109.556 294.74C110.455 295.081 111.464 294.627 111.805 293.728L170.266 139.424C170.607 138.524 170.153 137.514 169.254 137.172Z" fill="#212121"/>
<path d="M53.7614 267.2C53.5019 267.102 53.2921 266.904 53.1783 266.651C53.0643 266.397 53.0556 266.109 53.1539 265.849C54.5165 262.253 52.701 258.217 49.1069 256.851C48.5665 256.646 48.2946 256.041 48.4994 255.5L97.5736 125.976C97.6718 125.717 97.8693 125.507 98.1222 125.393C98.3751 125.279 98.6631 125.27 98.9226 125.369C102.517 126.735 106.549 124.92 107.912 121.324C108.117 120.783 108.721 120.511 109.261 120.717L154.772 138.009C155.031 138.108 155.241 138.305 155.355 138.559C155.469 138.812 155.478 139.1 155.379 139.36C154.719 141.102 154.777 142.997 155.541 144.697C156.306 146.396 157.685 147.697 159.426 148.358C159.686 148.457 159.896 148.654 160.009 148.908C160.123 149.161 160.132 149.449 160.034 149.709L110.96 279.233C110.861 279.492 110.664 279.702 110.411 279.816C110.158 279.93 109.87 279.939 109.611 279.84C106.017 278.474 101.984 280.289 100.621 283.885C100.417 284.426 99.8125 284.698 99.2722 284.493L53.7614 267.2ZM50.8057 255.321C54.5282 257.25 56.4517 261.527 55.4255 265.593L99.0917 282.184C101.017 278.46 105.29 276.537 109.353 277.567L157.727 149.889C155.916 148.953 154.482 147.444 153.633 145.556C152.784 143.667 152.606 141.593 153.107 139.616L109.442 123.025C107.516 126.749 103.244 128.672 99.1804 127.643L50.8055 255.321L50.8057 255.321Z" fill="#212121"/>
<path d="M92.2005 234.453C104.673 239.192 120.186 228.775 126.85 211.186C133.514 193.597 128.805 175.496 116.333 170.756C103.86 166.017 88.3469 176.434 81.683 194.023C75.0191 211.612 79.7279 229.713 92.2005 234.453Z" fill="#212121"/>
<path d="M91.8299 235.432C85.4716 233.016 80.8276 227.294 78.7534 219.32C76.7127 211.476 77.4057 202.36 80.7049 193.652C84.0041 184.943 89.5234 177.661 96.2464 173.147C103.08 168.558 110.345 167.362 116.703 169.778C123.062 172.194 127.706 177.916 129.78 185.889C131.821 193.734 131.128 202.85 127.828 211.558C124.529 220.266 119.01 227.548 112.287 232.062C105.453 236.651 98.188 237.848 91.8299 235.432ZM115.962 171.735C104.049 167.208 89.1101 177.374 82.6615 194.395C79.5148 202.701 78.846 211.366 80.7783 218.794C82.6769 226.092 86.8653 231.306 92.5717 233.474C98.278 235.642 104.866 234.523 111.121 230.323C117.487 226.048 122.725 219.12 125.872 210.814C132.321 193.793 127.875 176.262 115.962 171.735L115.962 171.735Z" fill="#212121"/>
</g>
<mask id="mask6_3_3" style="mask-type:luminance" maskUnits="userSpaceOnUse" x="32" y="169" width="173" height="114">
<path d="M32.0606 169.535H204.073V282.279H32.0606V169.535Z" fill="white"/>
</mask>
<g mask="url(#mask6_3_3)">
<path d="M186.239 170.569H49.894C40.6161 170.569 33.0948 178.091 33.0948 187.369V264.445C33.0948 273.723 40.6161 281.245 49.894 281.245H186.239C195.517 281.245 203.038 273.723 203.038 264.445V187.369C203.038 178.091 195.517 170.569 186.239 170.569Z" fill="#212121"/>
<path d="M186.239 282.279H49.894C40.0606 282.279 32.0606 274.279 32.0606 264.445V187.369C32.0606 177.535 40.0606 169.535 49.894 169.535H186.239C196.073 169.535 204.073 177.535 204.073 187.369V264.445C204.073 274.279 196.073 282.279 186.239 282.279ZM49.894 171.603C41.2012 171.603 34.1291 178.676 34.1291 187.369V264.445C34.1291 273.138 41.2012 280.211 49.894 280.211H186.239C194.932 280.211 202.004 273.138 202.004 264.445V187.369C202.004 178.676 194.932 171.603 186.239 171.603H49.894Z" fill="#212121"/>
</g>
<mask id="mask7_3_3" style="mask-type:luminance" maskUnits="userSpaceOnUse" x="92" y="119" width="127" height="129">
<path d="M92.04 198.769L167.639 119.967L218.111 168.487L142.513 247.288L92.04 198.769Z" fill="white"/>
</mask>
<g mask="url(#mask7_3_3)">
<path d="M164.79 124.45L96.3989 195.738C94.8087 197.396 94.8626 200.03 96.5191 201.623L139.483 242.924C141.139 244.516 143.771 244.464 145.362 242.806L213.753 171.518C215.343 169.86 215.289 167.225 213.632 165.633L170.669 124.332C169.012 122.739 166.38 122.792 164.79 124.45Z" fill="white"/>
<path d="M146.117 243.532C144.129 245.603 140.828 245.669 138.758 243.679L95.7945 202.378C93.7244 200.388 93.6567 197.084 95.6439 195.012L164.035 123.724C166.022 121.653 169.323 121.586 171.393 123.576L214.357 164.877C216.427 166.868 216.495 170.172 214.508 172.243L146.116 243.532L146.117 243.532ZM165.545 125.176L97.1538 196.464C95.9658 197.702 96.0063 199.678 97.2439 200.868L140.208 242.169C141.445 243.358 143.419 243.319 144.607 242.08L212.998 170.792C214.186 169.554 214.145 167.578 212.908 166.388L169.944 125.087C168.706 123.898 166.733 123.937 165.545 125.176Z" fill="#212121"/>
<path d="M123.297 191.776L114.069 201.395C113.751 201.726 113.762 202.253 114.093 202.572L121.354 209.551C121.685 209.869 122.211 209.859 122.529 209.527L131.757 199.909C132.075 199.577 132.064 199.05 131.733 198.732L124.473 191.753C124.141 191.434 123.615 191.445 123.297 191.776Z" fill="#212121"/>
<path d="M123.284 210.253C122.567 211 121.376 211.024 120.629 210.306L113.369 203.327C112.622 202.609 112.597 201.416 113.314 200.669L122.542 191.05C123.259 190.303 124.45 190.279 125.197 190.997L132.457 197.976C133.204 198.695 133.229 199.887 132.512 200.634L123.284 210.253ZM114.973 201.965L121.923 208.646L130.853 199.338L123.903 192.657L114.973 201.965Z" fill="#212121"/>
<path d="M160.474 155.593C160.422 155.647 160.363 155.697 160.299 155.74C159.929 155.986 159.444 155.971 159.09 155.704L153.51 151.495C153.049 151.147 152.956 150.49 153.304 150.028C153.652 149.566 154.308 149.474 154.769 149.822L157.974 152.239L156.642 146.983C156.5 146.422 156.838 145.853 157.399 145.711C157.959 145.568 158.528 145.908 158.67 146.469L160.733 154.61C160.823 154.966 160.721 155.336 160.474 155.593Z" fill="#212121"/>
<path d="M164.123 151.789C163.992 151.926 163.823 152.028 163.626 152.078C163.066 152.22 162.497 151.881 162.355 151.32L160.292 143.179C160.15 142.618 160.489 142.048 161.049 141.906C161.609 141.764 162.178 142.103 162.32 142.664L164.383 150.806C164.475 151.17 164.365 151.537 164.123 151.789Z" fill="#212121"/>
<path d="M167.773 147.985C167.642 148.121 167.473 148.224 167.276 148.274C166.716 148.416 166.147 148.076 166.004 147.515L163.942 139.374C163.8 138.813 164.138 138.243 164.699 138.101C165.259 137.959 165.828 138.299 165.971 138.86L168.033 147.001C168.125 147.365 168.015 147.733 167.773 147.985Z" fill="#212121"/>
<path d="M171.423 144.18C171.292 144.317 171.123 144.419 170.926 144.469C170.366 144.611 169.796 144.272 169.654 143.711L167.592 135.569C167.45 135.009 167.788 134.439 168.349 134.297C168.909 134.155 169.478 134.494 169.62 135.055L171.683 143.197C171.775 143.56 171.665 143.928 171.423 144.18Z" fill="#212121"/>
<path d="M133.297 219.876C132.897 220.294 132.235 220.307 131.818 219.906L128.603 216.816C128.186 216.415 128.173 215.752 128.573 215.335C128.973 214.918 129.636 214.905 130.053 215.305L133.267 218.395C133.684 218.796 133.697 219.459 133.297 219.876Z" fill="#212121"/>
<path d="M136.468 216.571C136.068 216.988 135.406 217.002 134.989 216.601L131.775 213.511C131.358 213.11 131.344 212.447 131.744 212.03C132.145 211.613 132.807 211.599 133.224 212L136.438 215.09C136.855 215.491 136.869 216.154 136.468 216.571Z" fill="#212121"/>
<path d="M139.64 213.266C139.239 213.683 138.577 213.696 138.16 213.295L134.946 210.205C134.529 209.805 134.515 209.142 134.915 208.724C135.316 208.307 135.978 208.294 136.395 208.695L139.609 211.785C140.026 212.185 140.04 212.848 139.64 213.266Z" fill="#212121"/>
<path d="M142.811 209.96C142.41 210.377 141.748 210.39 141.331 209.99L138.117 206.9C137.7 206.499 137.686 205.836 138.087 205.419C138.487 205.002 139.149 204.989 139.566 205.389L142.78 208.479C143.197 208.88 143.211 209.543 142.811 209.96Z" fill="#212121"/>
<path d="M149.153 203.349C148.753 203.766 148.09 203.78 147.673 203.379L144.459 200.289C144.042 199.888 144.029 199.225 144.429 198.808C144.829 198.391 145.492 198.378 145.908 198.778L149.123 201.868C149.539 202.269 149.553 202.932 149.153 203.349Z" fill="#212121"/>
<path d="M152.324 200.044C151.924 200.461 151.261 200.474 150.844 200.073L147.63 196.984C147.213 196.583 147.2 195.92 147.6 195.503C148 195.086 148.663 195.072 149.08 195.473L152.294 198.563C152.71 198.964 152.724 199.627 152.324 200.044Z" fill="#212121"/>
<path d="M155.495 196.738C155.095 197.155 154.432 197.169 154.015 196.768L150.801 193.678C150.384 193.277 150.371 192.614 150.771 192.197C151.171 191.78 151.834 191.767 152.251 192.168L155.465 195.257C155.882 195.658 155.895 196.321 155.495 196.738Z" fill="#212121"/>
<path d="M158.666 193.433C158.266 193.85 157.603 193.864 157.186 193.463L153.972 190.373C153.555 189.972 153.542 189.309 153.942 188.892C154.342 188.475 155.005 188.462 155.422 188.862L158.636 191.952C159.053 192.353 159.066 193.016 158.666 193.433Z" fill="#212121"/>
<path d="M165.008 186.822C164.608 187.239 163.946 187.252 163.529 186.852L160.315 183.762C159.898 183.361 159.884 182.698 160.284 182.281C160.685 181.864 161.347 181.85 161.764 182.251L164.978 185.341C165.395 185.742 165.408 186.405 165.008 186.822Z" fill="#212121"/>
<path d="M168.179 183.517C167.779 183.934 167.117 183.947 166.7 183.546L163.486 180.457C163.069 180.056 163.055 179.393 163.455 178.976C163.856 178.558 164.518 178.545 164.935 178.946L168.149 182.036C168.566 182.436 168.58 183.099 168.179 183.517Z" fill="#212121"/>
<path d="M171.351 180.211C170.95 180.628 170.288 180.642 169.871 180.241L166.657 177.151C166.24 176.75 166.226 176.087 166.627 175.67C167.027 175.253 167.689 175.24 168.106 175.64L171.32 178.73C171.737 179.131 171.751 179.794 171.351 180.211Z" fill="#212121"/>
<path d="M174.522 176.906C174.121 177.323 173.459 177.336 173.042 176.935L169.828 173.846C169.411 173.445 169.397 172.782 169.798 172.365C170.198 171.947 170.86 171.934 171.277 172.335L174.491 175.425C174.908 175.825 174.922 176.489 174.522 176.906Z" fill="#212121"/>
<path d="M180.864 170.295C180.463 170.712 179.801 170.725 179.384 170.325L176.17 167.235C175.753 166.834 175.74 166.171 176.14 165.754C176.54 165.337 177.202 165.323 177.619 165.724L180.833 168.814C181.25 169.215 181.264 169.878 180.864 170.295Z" fill="#212121"/>
<path d="M184.035 166.989C183.635 167.406 182.972 167.42 182.555 167.019L179.341 163.929C178.924 163.528 178.911 162.865 179.311 162.448C179.711 162.031 180.374 162.018 180.791 162.418L184.005 165.508C184.421 165.909 184.435 166.572 184.035 166.989Z" fill="#212121"/>
<path d="M187.206 163.684C186.806 164.101 186.143 164.114 185.726 163.713L182.512 160.624C182.095 160.223 182.082 159.56 182.482 159.143C182.882 158.726 183.545 158.712 183.962 159.113L187.176 162.203C187.593 162.603 187.606 163.267 187.206 163.684Z" fill="#212121"/>
<path d="M190.377 160.378C189.977 160.796 189.314 160.809 188.897 160.408L185.683 157.318C185.266 156.918 185.253 156.255 185.653 155.837C186.053 155.42 186.716 155.407 187.133 155.808L190.347 158.897C190.764 159.298 190.777 159.961 190.377 160.378Z" fill="#212121"/>
<path d="M170.002 202.555C169.602 202.972 168.939 202.985 168.522 202.585C168.105 202.184 168.092 201.521 168.492 201.104L179.873 189.24C180.273 188.823 180.936 188.81 181.353 189.211C181.769 189.612 181.783 190.275 181.383 190.692L170.002 202.555Z" fill="#212121"/>
<path d="M143.475 230.206C143.075 230.623 142.412 230.636 141.995 230.235C141.578 229.834 141.565 229.171 141.965 228.754L164.309 205.464C164.709 205.047 165.372 205.033 165.788 205.434C166.205 205.835 166.219 206.498 165.819 206.915L143.475 230.206Z" fill="#212121"/>
<path d="M192.059 179.563C191.659 179.98 190.997 179.993 190.58 179.593C190.163 179.192 190.149 178.529 190.549 178.111L199.317 168.973C199.717 168.555 200.38 168.542 200.797 168.943C201.214 169.344 201.227 170.007 200.827 170.424L192.059 179.563Z" fill="#212121"/>
</g>
<mask id="mask8_3_3" style="mask-type:luminance" maskUnits="userSpaceOnUse" x="21" y="167" width="186" height="116">
<path d="M21.3273 167.581H206.721V282.14H21.3273V167.581Z" fill="white"/>
</mask>
<g mask="url(#mask8_3_3)">
<path d="M177.662 168.632H39.41C30.0024 168.632 22.376 176.275 22.376 185.703V264.018C22.376 273.446 30.0024 281.089 39.41 281.089H177.662C187.07 281.089 194.696 273.446 194.696 264.018V185.703C194.696 176.275 187.07 168.632 177.662 168.632Z" fill="#6DA552"/>
<path d="M177.662 282.14H39.41C29.4392 282.14 21.3273 274.01 21.3273 264.018V185.703C21.3273 175.711 29.4392 167.581 39.41 167.581H177.662C187.633 167.581 195.745 175.711 195.745 185.703V264.018C195.745 274.01 187.633 282.14 177.662 282.14ZM39.41 169.683C30.5957 169.683 23.4247 176.869 23.4247 185.703V264.018C23.4247 272.852 30.5957 280.038 39.41 280.038H177.662C186.477 280.038 193.648 272.852 193.648 264.018V185.703C193.648 176.869 186.477 169.683 177.662 169.683H39.41Z" fill="#212121"/>
<path d="M185.511 263.715C185.426 263.715 185.34 263.705 185.253 263.683C184.692 263.541 184.351 262.97 184.493 262.407C184.733 261.454 184.855 260.467 184.855 259.473C184.855 258.893 185.324 258.422 185.903 258.422C186.483 258.422 186.952 258.893 186.952 259.473C186.952 260.64 186.809 261.8 186.527 262.921C186.407 263.398 185.98 263.715 185.511 263.715L185.511 263.715Z" fill="#212121"/>
<path d="M170.967 273.531H164.59C164.011 273.531 163.542 273.06 163.542 272.48C163.542 271.9 164.011 271.429 164.59 271.429H170.967C171.547 271.429 172.016 271.9 172.016 272.48C172.016 273.06 171.547 273.531 170.967 273.531ZM158.213 273.531H151.836C151.257 273.531 150.788 273.06 150.788 272.48C150.788 271.9 151.257 271.429 151.836 271.429H158.213C158.793 271.429 159.262 271.9 159.262 272.48C159.262 273.06 158.793 273.531 158.213 273.531ZM145.459 273.531H139.082C138.503 273.531 138.034 273.06 138.034 272.48C138.034 271.9 138.503 271.429 139.082 271.429H145.459C146.038 271.429 146.508 271.9 146.508 272.48C146.508 273.06 146.038 273.531 145.459 273.531ZM132.705 273.531H126.328C125.749 273.531 125.279 273.06 125.279 272.48C125.279 271.9 125.749 271.429 126.328 271.429H132.705C133.284 271.429 133.754 271.9 133.754 272.48C133.754 273.06 133.284 273.531 132.705 273.531ZM119.951 273.531H113.574C112.995 273.531 112.525 273.06 112.525 272.48C112.525 271.9 112.995 271.429 113.574 271.429H119.951C120.53 271.429 121 271.9 121 272.48C121 273.06 120.53 273.531 119.951 273.531ZM107.197 273.531H100.82C100.241 273.531 99.7713 273.06 99.7713 272.48C99.7713 271.9 100.241 271.429 100.82 271.429H107.197C107.776 271.429 108.246 271.9 108.246 272.48C108.246 273.06 107.776 273.531 107.197 273.531ZM94.4429 273.531H88.0659C87.4867 273.531 87.0172 273.06 87.0172 272.48C87.0172 271.9 87.4867 271.429 88.0659 271.429H94.4429C95.0221 271.429 95.4916 271.9 95.4916 272.48C95.4916 273.06 95.0221 273.531 94.4429 273.531ZM81.6888 273.531H75.3117C74.7326 273.531 74.2631 273.06 74.2631 272.48C74.2631 271.9 74.7326 271.429 75.3117 271.429H81.6888C82.268 271.429 82.7375 271.9 82.7375 272.48C82.7375 273.06 82.268 273.531 81.6888 273.531ZM68.9347 273.531H62.5576C61.9785 273.531 61.5089 273.06 61.5089 272.48C61.5089 271.9 61.9785 271.429 62.5576 271.429H68.9347C69.5138 271.429 69.9834 271.9 69.9834 272.48C69.9834 273.06 69.5138 273.531 68.9347 273.531ZM56.1806 273.531H49.8035C49.2243 273.531 48.7548 273.06 48.7548 272.48C48.7548 271.9 49.2243 271.429 49.8035 271.429H56.1806C56.7597 271.429 57.2292 271.9 57.2292 272.48C57.2292 273.06 56.7597 273.531 56.1806 273.531ZM43.4281 273.511C43.4088 273.511 43.3894 273.511 43.3698 273.51C41.0698 273.384 38.8166 272.683 36.854 271.483C36.3595 271.181 36.2031 270.534 36.5046 270.039C36.8062 269.543 37.4515 269.387 37.9459 269.689C39.6139 270.708 41.5291 271.304 43.4845 271.411C44.0628 271.443 44.5059 271.938 44.4743 272.518C44.4437 273.078 43.981 273.511 43.4281 273.511ZM177.259 272.788C176.828 272.788 176.423 272.519 176.271 272.088C176.078 271.541 176.363 270.94 176.909 270.746C178.748 270.093 180.419 268.98 181.742 267.527C182.132 267.098 182.795 267.067 183.223 267.458C183.651 267.849 183.682 268.514 183.291 268.943C181.737 270.651 179.773 271.959 177.609 272.727C177.494 272.768 177.376 272.788 177.259 272.788ZM32.968 267.134C32.6093 267.134 32.26 266.949 32.0643 266.617C30.895 264.635 30.2268 262.368 30.132 260.061C30.1081 259.481 30.5579 258.991 31.1367 258.967C31.714 258.944 32.2038 259.394 32.2276 259.974C32.3083 261.936 32.8761 263.863 33.8697 265.547C34.1645 266.047 33.9992 266.692 33.5006 266.987C33.3331 267.086 33.1493 267.133 32.9678 267.133L32.968 267.134ZM31.1687 254.678C30.5895 254.678 30.12 254.207 30.12 253.627V247.236C30.12 246.656 30.5895 246.186 31.1687 246.186C31.7478 246.186 32.2174 246.656 32.2174 247.236V253.627C32.2174 254.207 31.7478 254.678 31.1687 254.678ZM31.1687 241.897C30.5895 241.897 30.12 241.426 30.12 240.846V234.455C30.12 233.875 30.5895 233.405 31.1687 233.405C31.7478 233.405 32.2174 233.875 32.2174 234.455V240.846C32.2174 241.426 31.7478 241.897 31.1687 241.897ZM31.1687 229.116C30.5895 229.116 30.12 228.645 30.12 228.065V221.674C30.12 221.094 30.5895 220.623 31.1687 220.623C31.7478 220.623 32.2174 221.094 32.2174 221.674V228.065C32.2174 228.645 31.7478 229.116 31.1687 229.116ZM31.1687 216.335C30.5895 216.335 30.12 215.864 30.12 215.284V208.893C30.12 208.313 30.5895 207.842 31.1687 207.842C31.7478 207.842 32.2174 208.313 32.2174 208.893V215.284C32.2174 215.864 31.7478 216.335 31.1687 216.335ZM31.1687 203.554C30.5895 203.554 30.12 203.083 30.12 202.503V196.112C30.12 195.532 30.5895 195.061 31.1687 195.061C31.7478 195.061 32.2174 195.532 32.2174 196.112V202.503C32.2174 203.083 31.7478 203.554 31.1687 203.554ZM31.1799 190.773C31.1657 190.773 31.1516 190.773 31.1375 190.772C30.5588 190.749 30.1082 190.26 30.1313 189.68C30.2229 187.373 30.8879 185.104 32.0543 183.121C32.3484 182.621 32.9912 182.454 33.4902 182.749C33.9893 183.043 34.1554 183.688 33.8613 184.188C32.8701 185.874 32.3049 187.802 32.227 189.764C32.2045 190.329 31.7397 190.773 31.1799 190.773ZM182.505 182.524C182.221 182.524 181.938 182.409 181.731 182.182C180.406 180.731 178.734 179.62 176.894 178.97C176.347 178.776 176.061 178.176 176.253 177.629C176.446 177.082 177.045 176.795 177.591 176.987C179.756 177.752 181.722 179.058 183.278 180.764C183.669 181.192 183.64 181.857 183.212 182.249C183.011 182.433 182.758 182.524 182.505 182.524L182.505 182.524ZM37.3858 180.196C37.0327 180.196 36.688 180.017 36.4902 179.693C36.1879 179.198 36.3434 178.551 36.8375 178.248C38.7986 177.046 41.0508 176.342 43.3505 176.213C43.9301 176.181 44.4239 176.623 44.4564 177.203C44.4888 177.783 44.0464 178.279 43.4681 178.311C41.513 178.421 39.5988 179.019 37.9321 180.041C37.7614 180.146 37.5723 180.196 37.3858 180.196ZM170.949 178.292H164.572C163.993 178.292 163.524 177.821 163.524 177.241C163.524 176.661 163.993 176.19 164.572 176.19H170.949C171.529 176.19 171.998 176.661 171.998 177.241C171.998 177.821 171.529 178.292 170.949 178.292ZM158.195 178.292H151.818C151.239 178.292 150.77 177.821 150.77 177.241C150.77 176.661 151.239 176.19 151.818 176.19H158.195C158.774 176.19 159.244 176.661 159.244 177.241C159.244 177.821 158.774 178.292 158.195 178.292ZM145.441 178.292H139.064C138.485 178.292 138.015 177.821 138.015 177.241C138.015 176.661 138.485 176.19 139.064 176.19H145.441C146.02 176.19 146.49 176.661 146.49 177.241C146.49 177.821 146.02 178.292 145.441 178.292ZM132.687 178.292H126.31C125.731 178.292 125.261 177.821 125.261 177.241C125.261 176.661 125.731 176.19 126.31 176.19H132.687C133.266 176.19 133.736 176.661 133.736 177.241C133.736 177.821 133.266 178.292 132.687 178.292ZM119.933 178.292H113.556C112.977 178.292 112.507 177.821 112.507 177.241C112.507 176.661 112.977 176.19 113.556 176.19H119.933C120.512 176.19 120.982 176.661 120.982 177.241C120.982 177.821 120.512 178.292 119.933 178.292ZM107.179 178.292H100.802C100.223 178.292 99.753 177.821 99.753 177.241C99.753 176.661 100.223 176.19 100.802 176.19H107.179C107.758 176.19 108.227 176.661 108.227 177.241C108.227 177.821 107.758 178.292 107.179 178.292ZM94.4248 178.292H88.0477C87.4685 178.292 86.999 177.821 86.999 177.241C86.999 176.661 87.4685 176.19 88.0477 176.19H94.4248C95.0039 176.19 95.4735 176.661 95.4735 177.241C95.4735 177.821 95.0039 178.292 94.4248 178.292ZM81.6706 178.292H75.2936C74.7144 178.292 74.2449 177.821 74.2449 177.241C74.2449 176.661 74.7144 176.19 75.2936 176.19H81.6706C82.2498 176.19 82.7193 176.661 82.7193 177.241C82.7193 177.821 82.2498 178.292 81.6706 178.292ZM68.9165 178.292H62.5394C61.9603 178.292 61.4907 177.821 61.4907 177.241C61.4907 176.661 61.9603 176.19 62.5394 176.19H68.9165C69.4957 176.19 69.9652 176.661 69.9652 177.241C69.9652 177.821 69.4957 178.292 68.9165 178.292ZM56.1624 178.292H49.7853C49.2062 178.292 48.7366 177.821 48.7366 177.241C48.7366 176.661 49.2062 176.19 49.7853 176.19H56.1624C56.7415 176.19 57.2111 176.661 57.2111 177.241C57.2111 177.821 56.7415 178.292 56.1624 178.292Z" fill="#212121"/>
<path d="M185.903 191.299C185.324 191.299 184.855 190.829 184.855 190.248C184.855 189.255 184.733 188.268 184.493 187.314C184.351 186.752 184.692 186.18 185.253 186.038C185.815 185.896 186.385 186.238 186.527 186.8C186.809 187.921 186.952 189.082 186.952 190.248C186.952 190.829 186.483 191.299 185.903 191.299Z" fill="#212121"/>
<path d="M185.903 194.522C185.324 194.522 184.855 194.051 184.855 193.471V190.248C184.855 189.668 185.324 189.197 185.903 189.197C186.483 189.197 186.952 189.668 186.952 190.248V193.471C186.952 194.051 186.483 194.522 185.903 194.522Z" fill="#212121"/>
<path d="M185.903 250.326C185.324 250.326 184.855 249.855 184.855 249.275V242.299C184.855 241.719 185.324 241.248 185.903 241.248C186.483 241.248 186.952 241.719 186.952 242.299V249.275C186.952 249.855 186.483 250.326 185.903 250.326ZM185.903 236.375C185.324 236.375 184.855 235.904 184.855 235.324V228.348C184.855 227.768 185.324 227.297 185.903 227.297C186.483 227.297 186.952 227.768 186.952 228.348V235.324C186.952 235.904 186.483 236.375 185.903 236.375ZM185.903 222.424C185.324 222.424 184.855 221.953 184.855 221.373V214.397C184.855 213.817 185.324 213.346 185.903 213.346C186.483 213.346 186.952 213.817 186.952 214.397V221.373C186.952 221.953 186.483 222.424 185.903 222.424ZM185.903 208.473C185.324 208.473 184.855 208.002 184.855 207.422V200.446C184.855 199.866 185.324 199.395 185.903 199.395C186.483 199.395 186.952 199.866 186.952 200.446V207.422C186.952 208.002 186.483 208.473 185.903 208.473Z" fill="#212121"/>
<path d="M185.903 260.524C185.324 260.524 184.855 260.053 184.855 259.473V256.25C184.855 255.67 185.324 255.199 185.903 255.199C186.483 255.199 186.952 255.67 186.952 256.25V259.473C186.952 260.053 186.483 260.524 185.903 260.524Z" fill="#212121"/>
<path d="M165.168 211.154H201.478C203.793 211.154 205.673 213.037 205.673 215.357V234.364C205.673 236.684 203.793 238.567 201.478 238.567H165.168C157.619 238.567 151.49 232.426 151.49 224.86C151.49 217.295 157.619 211.154 165.168 211.154Z" fill="#6DA552"/>
<path d="M201.478 239.618H165.168C157.047 239.618 150.441 232.998 150.441 224.86C150.441 216.723 157.047 210.103 165.168 210.103H201.478C204.369 210.103 206.721 212.46 206.721 215.357V234.364C206.721 237.261 204.369 239.618 201.478 239.618ZM165.168 212.204C158.204 212.204 152.538 217.882 152.538 224.86C152.538 231.839 158.204 237.517 165.168 237.517H201.478C203.213 237.517 204.624 236.102 204.624 234.364V215.357C204.624 213.619 203.213 212.204 201.478 212.204H165.168Z" fill="#212121"/>
<path d="M165.496 233.194C170.053 233.194 173.748 229.463 173.748 224.86C173.748 220.258 170.053 216.527 165.496 216.527C160.938 216.527 157.244 220.258 157.244 224.86C157.244 229.463 160.938 233.194 165.496 233.194Z" fill="#FAFAFA"/>
<path d="M165.496 234.245C160.367 234.245 156.195 230.035 156.195 224.86C156.195 219.686 160.367 215.476 165.496 215.476C170.624 215.476 174.796 219.686 174.796 224.86C174.796 230.035 170.624 234.245 165.496 234.245ZM165.496 217.578C161.524 217.578 158.292 220.845 158.292 224.86C158.292 228.876 161.524 232.143 165.496 232.143C169.468 232.143 172.699 228.876 172.699 224.86C172.699 220.845 169.468 217.578 165.496 217.578Z" fill="#212121"/>
</g>
</svg>
