<svg width="70" height="50" viewBox="0 0 70 50" fill="none" xmlns="http://www.w3.org/2000/svg">
<path fill-rule="evenodd" clip-rule="evenodd" d="M21.2133 18.6582C20.7041 19.2891 19.8895 19.7867 19.0748 19.7156C18.973 18.8626 19.3718 17.9562 19.8386 17.3963C20.3477 16.7476 21.2388 16.2855 21.9601 16.25C22.0449 17.1386 21.714 18.0095 21.2133 18.6582ZM21.9516 19.8845C21.2339 19.8412 20.579 20.1105 20.0501 20.328C19.7097 20.468 19.4214 20.5865 19.2021 20.5865C18.956 20.5865 18.6559 20.4616 18.3189 20.3214C17.8773 20.1377 17.3724 19.9277 16.843 19.9378C15.6295 19.9556 14.5009 20.6754 13.8814 21.8217C12.6085 24.1143 13.5505 27.5089 14.7809 29.375C15.3834 30.2992 16.1047 31.3122 17.0552 31.2767C17.4733 31.2601 17.7741 31.1265 18.0854 30.9882C18.4437 30.8289 18.816 30.6635 19.3973 30.6635C19.9584 30.6635 20.3144 30.8246 20.6562 30.9793C20.9811 31.1263 21.2932 31.2676 21.7564 31.2589C22.7408 31.2411 23.3603 30.3347 23.9628 29.4105C24.613 28.4187 24.8987 27.4506 24.9421 27.3037L24.9471 27.2867C24.9461 27.2856 24.9381 27.2818 24.9239 27.275C24.7065 27.1708 23.0452 26.3744 23.0293 24.2387C23.0133 22.4462 24.347 21.538 24.557 21.395C24.5697 21.3863 24.5783 21.3804 24.5822 21.3774C23.7336 20.0622 22.4098 19.92 21.9516 19.8845ZM28.7658 31.1611V17.3075H33.7301C36.2929 17.3075 38.0835 19.1558 38.0835 21.8572C38.0835 24.5587 36.259 26.4248 33.6622 26.4248H30.8194V31.1611H28.7658ZM30.8194 19.1203H33.187C34.9691 19.1203 35.9874 20.1155 35.9874 21.8661C35.9874 23.6167 34.9691 24.6209 33.1785 24.6209H30.8194V19.1203ZM44.8638 29.4994C44.3206 30.5835 43.1241 31.2678 41.8343 31.2678C39.9249 31.2678 38.5926 30.077 38.5926 28.282C38.5926 26.5047 39.8825 25.4828 42.267 25.3318L44.8298 25.1718V24.4076C44.8298 23.279 44.1255 22.6659 42.8695 22.6659C41.8343 22.6659 41.079 23.2257 40.9263 24.0788H39.0763C39.1357 22.2838 40.748 20.9775 42.9289 20.9775C45.2796 20.9775 46.807 22.266 46.807 24.2654V31.1611H44.9062V29.4994H44.8638ZM42.3859 29.6238C41.2912 29.6238 40.5953 29.0729 40.5953 28.2287C40.5953 27.3578 41.2657 26.8513 42.5471 26.7713L44.8298 26.6203V27.4023C44.8298 28.6996 43.7776 29.6238 42.3859 29.6238ZM53.1121 31.7032C52.289 34.1291 51.3471 34.9289 49.3444 34.9289C49.1916 34.9289 48.6825 34.9111 48.5636 34.8756V33.2139C48.6909 33.2316 49.0049 33.2494 49.1662 33.2494C50.0742 33.2494 50.5833 32.8495 50.8973 31.8098L51.084 31.1967L47.6047 21.1108H49.7517L52.1702 29.295H52.2126L54.6311 21.1108H56.7187L53.1121 31.7032Z" fill="#D7FF8D"/>
</svg>
