<svg width="24" height="24" viewBox="0 0 24 24" fill="none" xmlns="http://www.w3.org/2000/svg">
<g clip-path="url(#clip0_1_1836)">
<rect width="24" height="24" rx="8" fill="#326EB4"/>
<path d="M10.7114 18.187C10.2925 18.187 9.9751 18.0347 9.70215 17.7109L6.42676 13.7754C6.18555 13.5024 6.10303 13.2612 6.10303 12.9819C6.10303 12.3599 6.56641 11.9028 7.20752 11.9028C7.57568 11.9028 7.84229 12.0298 8.0835 12.3218L10.686 15.5146L15.8213 7.41504C16.0879 7.00244 16.3608 6.84375 16.7925 6.84375C17.4272 6.84375 17.897 7.30078 17.897 7.9165C17.897 8.14502 17.8271 8.39258 17.6558 8.65283L11.7461 17.6602C11.5049 18.0156 11.1558 18.187 10.7114 18.187Z" fill="white"/>
</g>
<defs>
<clipPath id="clip0_1_1836">
<rect width="24" height="24" rx="8" fill="white"/>
</clipPath>
</defs>
</svg>
