<svg width="71" height="50" viewBox="0 0 71 50" fill="none" xmlns="http://www.w3.org/2000/svg">
<path fill-rule="evenodd" clip-rule="evenodd" d="M34.1743 30.1478V24.5089V24.5078H37.1617C38.3933 24.5085 39.4284 24.1134 40.267 23.3222C41.1144 22.5714 41.5882 21.4919 41.5641 20.3667C41.5809 19.2477 41.1079 18.1762 40.267 17.4278C39.4358 16.6324 38.3179 16.1984 37.1617 16.2223H32.3662V30.1478H34.1743ZM34.1743 22.7978V17.9367V17.9356H37.2066C37.8824 17.9168 38.5339 18.1859 38.9956 18.6745C39.4602 19.1213 39.7223 19.7351 39.7223 20.3761C39.7223 21.0172 39.4602 21.631 38.9956 22.0778C38.5282 22.5561 37.8788 22.8175 37.2066 22.7978H34.1743Z" fill="#D7FF8D"/>
<path fill-rule="evenodd" clip-rule="evenodd" d="M48.8956 21.3688C48.1221 20.6622 47.0672 20.3088 45.7308 20.3088C44.014 20.3088 42.7176 20.9311 41.8416 22.1755L43.4341 23.1677C44.0226 22.3248 44.8218 21.9033 45.8319 21.9033C46.4758 21.8958 47.0989 22.1287 47.5771 22.5555C48.0538 22.9455 48.3281 23.5269 48.3239 24.1388V24.5477C47.6291 24.1588 46.7449 23.9644 45.6713 23.9644C44.4134 23.9659 43.4079 24.2577 42.6547 24.8399C41.9015 25.4222 41.5249 26.2062 41.5249 27.1922C41.5085 28.0899 41.9021 28.9471 42.5963 29.5255C43.3106 30.1477 44.1982 30.4588 45.2591 30.4588C46.5019 30.4588 47.4977 29.9144 48.2464 28.8255H48.325V30.1477H50.0546V24.2755C50.0553 23.0444 49.669 22.0755 48.8956 21.3688ZM43.9912 28.3977C43.6125 28.1276 43.3891 27.693 43.3915 27.2311C43.3915 26.7122 43.6375 26.28 44.1327 25.9244C44.6231 25.574 45.2356 25.3988 45.9701 25.3988C46.9786 25.3988 47.7647 25.6211 48.3285 26.0655C48.3285 26.8166 48.029 27.4711 47.4301 28.0288C46.8906 28.5627 46.1592 28.8631 45.3962 28.8644C44.8875 28.8738 44.3911 28.7089 43.9912 28.3977Z" fill="#D7FF8D"/>
<path fill-rule="evenodd" clip-rule="evenodd" d="M59.9832 20.62L53.9457 34.3478H52.0791L54.3196 29.5444L50.3496 20.62H52.315L55.1844 27.4644H55.2237L58.0145 20.62H59.9832Z" fill="#D7FF8D"/>
<path fill-rule="evenodd" clip-rule="evenodd" d="M26.8684 23.2933C26.869 22.7481 26.8225 22.2039 26.7291 21.6666H19.1035V24.7477H23.4711C23.2905 25.7421 22.7071 26.6204 21.8561 27.1788V29.1788H24.4628C25.989 27.7866 26.8684 25.7277 26.8684 23.2933Z" fill="#D7FF8D"/>
<path fill-rule="evenodd" clip-rule="evenodd" d="M19.1036 31.1111C21.2857 31.1111 23.123 30.4022 24.4628 29.18L21.8562 27.18C21.1307 27.6667 20.1963 27.9444 19.1036 27.9444C16.9945 27.9444 15.2043 26.5378 14.5641 24.6422H11.8789V26.7033C13.2515 29.4055 16.0468 31.111 19.1036 31.1111Z" fill="#D7FF8D"/>
<path fill-rule="evenodd" clip-rule="evenodd" d="M14.5638 24.6423C14.2254 23.649 14.2254 22.5733 14.5638 21.58V19.5189H11.8786C10.7306 21.7791 10.7306 24.4432 11.8786 26.7034L14.5638 24.6423Z" fill="#D7FF8D"/>
<path fill-rule="evenodd" clip-rule="evenodd" d="M19.1036 18.2778C20.2567 18.2591 21.371 18.6902 22.2055 19.4778L24.5134 17.1945C23.0499 15.8345 21.1112 15.0879 19.1036 15.1111C16.0468 15.1113 13.2515 16.8167 11.8789 19.5189L14.5641 21.58C15.2043 19.6845 16.9945 18.2778 19.1036 18.2778Z" fill="#D7FF8D"/>
</svg>
