<svg width="62" height="42" viewBox="0 0 62 42" fill="none" xmlns="http://www.w3.org/2000/svg">
<path fill-rule="evenodd" clip-rule="evenodd" d="M28.2621 21.269L28.5321 19.5801L27.9308 19.5663H25.0596L27.055 7.10333C27.0612 7.06559 27.0813 7.03056 27.1106 7.00563C27.1401 6.98071 27.1777 6.96704 27.217 6.96704H32.0583C33.6657 6.96704 34.7748 7.29644 35.3538 7.9467C35.6253 8.25175 35.7983 8.57061 35.882 8.92138C35.9697 9.28951 35.9712 9.72929 35.8856 10.2658L35.8794 10.3048V10.6486L36.1509 10.8001C36.3794 10.9196 36.5612 11.0563 36.7005 11.2128C36.9327 11.4737 37.0829 11.8052 37.1464 12.1982C37.212 12.6023 37.1903 13.0834 37.0829 13.628C36.959 14.2543 36.7588 14.7999 36.4883 15.2462C36.2396 15.6575 35.9227 15.9987 35.5464 16.2631C35.1871 16.5143 34.7604 16.705 34.2778 16.827C33.8101 16.9469 33.2769 17.0074 32.6921 17.0074H32.3154C32.046 17.0074 31.7843 17.103 31.5789 17.2743C31.3729 17.4492 31.2367 17.6882 31.1949 17.9495L31.1664 18.1016L30.6895 21.0785L30.668 21.1877C30.6622 21.2223 30.6523 21.2395 30.6379 21.2512C30.625 21.2619 30.6065 21.269 30.5884 21.269H28.2621Z" fill="#D7FF8D"/>
<path fill-rule="evenodd" clip-rule="evenodd" d="M36.4078 10.3445C36.3935 10.4355 36.3769 10.5285 36.3584 10.624C35.72 13.8531 33.5356 14.9686 30.746 14.9686H29.3255C28.9843 14.9686 28.6968 15.2126 28.6437 15.5441L27.7105 21.3752C27.676 21.593 27.8463 21.7891 28.0692 21.7891H30.5885C30.8868 21.7891 31.1402 21.5756 31.1872 21.2858L31.2119 21.1598L31.6863 18.1946L31.7168 18.0319C31.7632 17.7411 32.0172 17.5275 32.3154 17.5275H32.6922C35.133 17.5275 37.0438 16.5514 37.6023 13.7265C37.8355 12.5465 37.7148 11.5611 37.0975 10.8681C36.9107 10.6592 36.6789 10.4858 36.4078 10.3445Z" fill="#D7FF8D"/>
<path fill-rule="evenodd" clip-rule="evenodd" d="M35.7399 10.0822C35.6423 10.0541 35.5417 10.0288 35.4385 10.0058C35.3346 9.98348 35.2284 9.96368 35.1189 9.94631C34.736 9.88536 34.3163 9.85645 33.8668 9.85645H30.0722C29.9787 9.85645 29.8899 9.87724 29.8105 9.91483C29.6355 9.99772 29.5055 10.1609 29.474 10.3607L28.6667 15.3973L28.6436 15.5441C28.6966 15.2126 28.9842 14.9686 29.3254 14.9686H30.7458C33.5354 14.9686 35.7198 13.8526 36.3582 10.6241C36.3773 10.5285 36.3934 10.4355 36.4077 10.3445C36.2462 10.26 36.0712 10.1878 35.8829 10.1263C35.8363 10.1111 35.7883 10.0964 35.7399 10.0822Z" fill="#D7FF8D"/>
<path fill-rule="evenodd" clip-rule="evenodd" d="M29.4738 10.3607C29.5053 10.1608 29.6353 9.99764 29.8104 9.91533C29.8903 9.87759 29.9785 9.8568 30.0721 9.8568H33.8667C34.3161 9.8568 34.7358 9.88585 35.1188 9.9468C35.2282 9.96403 35.3345 9.98397 35.4383 10.0063C35.5415 10.0291 35.6422 10.0546 35.7397 10.0825C35.7882 10.0968 35.8362 10.1116 35.8832 10.1262C36.0715 10.1878 36.2466 10.2605 36.4081 10.3444C36.5981 9.15114 36.4065 8.33867 35.7516 7.60297C35.0295 6.79292 33.7263 6.44629 32.0586 6.44629H27.2172C26.8766 6.44629 26.586 6.69024 26.5334 7.02235L24.5169 19.6135C24.4771 19.8626 24.6722 20.0873 24.9272 20.0873H27.9161L29.4738 10.3607Z" fill="#D7FF8D"/>
<path fill-rule="evenodd" clip-rule="evenodd" d="M13.9977 24.6969H10.4679C10.2263 24.6969 10.0208 24.8698 9.9831 25.1048L8.55545 34.021C8.52711 34.197 8.66547 34.3555 8.84662 34.3555H10.5318C10.7733 34.3555 10.9788 34.1827 11.0165 33.9473L11.4015 31.5424C11.4387 31.307 11.6445 31.1341 11.8857 31.1341H13.0031C15.3282 31.1341 16.6701 30.0257 17.0207 27.8294C17.1786 26.8684 17.0274 26.1135 16.5705 25.5847C16.0689 25.0041 15.179 24.6969 13.9977 24.6969ZM14.4048 27.9535C14.2117 29.2011 13.244 29.2011 12.3083 29.2011H11.7756L12.1493 26.871C12.1715 26.7301 12.2953 26.6265 12.4399 26.6265H12.6841C13.3215 26.6265 13.9227 26.6265 14.2334 26.9843C14.4188 27.1978 14.4754 27.5151 14.4048 27.9535Z" fill="#D7FF8D"/>
<path fill-rule="evenodd" clip-rule="evenodd" d="M24.6395 27.8459H22.9491C22.8051 27.8459 22.6807 27.9495 22.6585 28.0904L22.5837 28.5561L22.4655 28.3873C22.0996 27.8641 21.2835 27.6892 20.4691 27.6892C18.6011 27.6892 17.0058 29.0829 16.6951 31.0378C16.5336 32.0129 16.7632 32.9454 17.3248 33.5957C17.8399 34.1935 18.577 34.4427 19.4538 34.4427C20.9589 34.4427 21.7934 33.4894 21.7934 33.4894L21.7181 33.9521C21.6898 34.129 21.8281 34.2876 22.0083 34.2876H23.5307C23.7729 34.2876 23.9773 34.1147 24.0155 33.8793L24.929 28.1804C24.958 28.0049 24.82 27.8459 24.6395 27.8459ZM22.2832 31.0866C22.1201 32.0378 21.3538 32.6764 20.3762 32.6764C19.8853 32.6764 19.4931 32.5213 19.2411 32.2275C18.9913 31.9357 18.8965 31.5203 18.9758 31.0576C19.1282 30.1145 19.9075 29.455 20.8702 29.455C21.3501 29.455 21.7403 29.6122 21.9974 29.9084C22.2549 30.2079 22.3571 30.6259 22.2832 31.0866Z" fill="#D7FF8D"/>
<path fill-rule="evenodd" clip-rule="evenodd" d="M33.5114 27.9884H31.8126C31.6506 27.9884 31.4983 28.0677 31.4065 28.2005L29.0637 31.5997L28.0707 28.333C28.0082 28.1287 27.8168 27.9884 27.5999 27.9884H25.9309C25.7279 27.9884 25.5871 28.1837 25.6515 28.3718L27.5226 33.7803L25.7636 36.2264C25.6252 36.4191 25.7646 36.684 26.0036 36.684H27.7001C27.8612 36.684 28.0118 36.6067 28.1032 36.4766L33.7528 28.4434C33.8881 28.2513 33.7492 27.9884 33.5114 27.9884Z" fill="#D7FF8D"/>
<path fill-rule="evenodd" clip-rule="evenodd" d="M39.1743 24.6969H35.644C35.403 24.6969 35.1976 24.8698 35.1599 25.1048L33.7322 34.021C33.7039 34.197 33.8422 34.3555 34.0224 34.3555H35.834C36.0021 34.3555 36.1461 34.2346 36.1724 34.0698L36.5777 31.5424C36.6148 31.307 36.8209 31.1341 37.0619 31.1341H38.1788C40.5044 31.1341 41.8459 30.0257 42.1969 27.8294C42.3554 26.8684 42.2031 26.1135 41.7463 25.5847C41.2451 25.0041 40.3558 24.6969 39.1743 24.6969ZM39.5817 27.9535C39.3891 29.2011 38.4213 29.2011 37.4851 29.2011H36.953L37.3272 26.871C37.3493 26.7301 37.4722 26.6265 37.6172 26.6265H37.8614C38.4982 26.6265 39.1001 26.6265 39.4108 26.9843C39.5961 27.1978 39.6524 27.5151 39.5817 27.9535Z" fill="#D7FF8D"/>
<path fill-rule="evenodd" clip-rule="evenodd" d="M49.814 27.8459H48.1246C47.9796 27.8459 47.8563 27.9495 47.8346 28.0904L47.7597 28.5561L47.641 28.3873C47.2751 27.8641 46.4596 27.6892 45.6451 27.6892C43.7772 27.6892 42.1824 29.0829 41.8717 31.0378C41.7107 32.0129 41.9392 32.9454 42.5008 33.5957C43.017 34.1935 43.7529 34.4427 44.6299 34.4427C46.1349 34.4427 46.9695 33.4894 46.9695 33.4894L46.8942 33.9521C46.8658 34.129 47.004 34.2876 47.1853 34.2876H48.7074C48.9484 34.2876 49.1538 34.1147 49.1916 33.8793L50.1056 28.1804C50.1335 28.0049 49.9951 27.8459 49.814 27.8459ZM47.4578 31.0866C47.2957 32.0378 46.5282 32.6764 45.5506 32.6764C45.0608 32.6764 44.6675 32.5213 44.4155 32.2275C44.1659 31.9357 44.0719 31.5203 44.1502 31.0576C44.3036 30.1145 45.0819 29.455 46.0446 29.455C46.5246 29.455 46.9148 29.6122 47.1718 29.9084C47.4303 30.2079 47.5325 30.6259 47.4578 31.0866Z" fill="#D7FF8D"/>
<path fill-rule="evenodd" clip-rule="evenodd" d="M51.6653 24.942L50.2166 34.0214C50.1883 34.1974 50.3265 34.3559 50.5066 34.3559H51.9632C52.2053 34.3559 52.4106 34.1832 52.4478 33.9478L53.8764 25.032C53.9049 24.856 53.7666 24.6969 53.5864 24.6969H51.9555C51.8115 24.6973 51.6876 24.8011 51.6653 24.942Z" fill="#D7FF8D"/>
</svg>
