<svg width="25" height="24" viewBox="0 0 25 24" fill="none" xmlns="http://www.w3.org/2000/svg">
<g clip-path="url(#clip0_65_4941)">
<path fill-rule="evenodd" clip-rule="evenodd" d="M22.174 4.71387C22.65 4.71387 23.036 5.09987 23.036 5.57587V11.9989C23.036 12.2359 22.836 12.4229 22.621 12.5249C22.4618 12.6026 22.3202 12.7122 22.205 12.8469C22.0608 13.0141 21.9489 13.2067 21.875 13.4149C21.7915 13.6485 21.7492 13.8948 21.75 14.1429C21.75 14.3979 21.794 14.6449 21.876 14.8709C21.957 15.0959 22.072 15.2869 22.204 15.4379C22.336 15.5879 22.48 15.6939 22.621 15.7609C22.824 15.8569 23.014 16.0289 23.034 16.2469H23.036V18.8529C23.036 18.966 23.0137 19.0781 22.9704 19.1826C22.927 19.2871 22.8635 19.3821 22.7835 19.462C22.7034 19.542 22.6084 19.6054 22.5038 19.6486C22.3992 19.6918 22.2872 19.714 22.174 19.7139H3.326C3.21285 19.714 3.10078 19.6918 2.99621 19.6486C2.89163 19.6054 2.7966 19.542 2.71654 19.462C2.63648 19.3821 2.57297 19.2871 2.52964 19.1826C2.48631 19.0781 2.464 18.966 2.464 18.8529V5.57587C2.464 5.09987 2.85 4.71387 3.326 4.71387H22.174ZM21.321 16.9559V17.9999H4.178V6.42887H21.321V11.3289C21.1739 11.4464 21.0377 11.5769 20.914 11.7189C20.636 12.0369 20.414 12.4149 20.264 12.8309C20.114 13.2469 20.036 13.6929 20.036 14.1429C20.036 14.5929 20.113 15.0389 20.264 15.4549C20.414 15.8709 20.636 16.2489 20.914 16.5669C21.04 16.7109 21.176 16.8409 21.321 16.9569V16.9559ZM6.321 11.1429H8.893V9.42887H6.32L6.321 11.1429Z" fill="#757575"/>
</g>
<defs>
<clipPath id="clip0_65_4941">
<rect width="24" height="24" fill="white" transform="translate(0.75)"/>
</clipPath>
</defs>
</svg>
