<svg width="24" height="24" viewBox="0 0 24 24" fill="none" xmlns="http://www.w3.org/2000/svg">
<path fill-rule="evenodd" clip-rule="evenodd" d="M7.92661 12.7248C8.35449 12.6146 8.79064 12.8722 8.90077 13.3001C9.25605 14.6805 10.51 15.6995 12 15.6995C13.49 15.6995 14.744 14.6805 15.0992 13.3001C15.2094 12.8722 15.6455 12.6146 16.0734 12.7248C16.5013 12.8349 16.7589 13.271 16.6487 13.6989C16.1159 15.769 14.2377 17.2995 12 17.2995C9.7623 17.2995 7.88408 15.769 7.35127 13.6989C7.24114 13.271 7.49873 12.8349 7.92661 12.7248ZM12.9823 2.76376C12.631 2.4905 12.4553 2.35388 12.2613 2.30136C12.0902 2.25502 11.9098 2.25502 11.7387 2.30136C11.5447 2.35388 11.369 2.4905 11.0177 2.76375L4.23539 8.03888C3.78202 8.3915 3.55534 8.56781 3.39203 8.78861C3.24737 8.9842 3.1396 9.20454 3.07403 9.43881C3 9.70327 3 9.99045 3 10.5648V17.7997C3 18.9198 3 19.4799 3.21799 19.9077C3.40973 20.284 3.71569 20.59 4.09202 20.7818C4.51984 20.9997 5.0799 20.9997 6.2 20.9997H17.8C18.9201 20.9997 19.4802 20.9997 19.908 20.7818C20.2843 20.59 20.5903 20.284 20.782 19.9077C21 19.4799 21 18.9198 21 17.7997V10.5648C21 9.99045 21 9.70327 20.926 9.43881C20.8604 9.20454 20.7526 8.9842 20.608 8.78861C20.4447 8.56782 20.218 8.39151 19.7646 8.0389L19.7646 8.03888L12.9823 2.76376ZM19.4 17.7997V10.5648C19.4 10.2616 19.3995 10.0945 19.3929 9.9693C19.3896 9.90603 19.3856 9.87578 19.3839 9.86564C19.3711 9.82192 19.351 9.78071 19.3243 9.74378C19.3173 9.73624 19.2959 9.71448 19.248 9.67303C19.1532 9.59096 19.0217 9.48802 18.7823 9.30185L12 4.02672L5.21769 9.30184C4.97833 9.48802 4.8468 9.59096 4.75196 9.67303C4.70406 9.71448 4.68267 9.73624 4.67568 9.74378C4.64902 9.78071 4.62886 9.82193 4.61608 9.86564C4.61442 9.87579 4.61038 9.90604 4.60706 9.9693C4.6005 10.0945 4.6 10.2616 4.6 10.5648V17.7997C4.6 18.3862 4.60124 18.7298 4.62193 18.983C4.6324 19.1112 4.64538 19.1732 4.65092 19.195C4.68699 19.2595 4.74022 19.3127 4.8047 19.3488C4.82657 19.3544 4.88858 19.3673 5.0167 19.3778C5.26993 19.3985 5.61355 19.3997 6.2 19.3997H17.8C18.3865 19.3997 18.7301 19.3985 18.9833 19.3778C19.1114 19.3673 19.1734 19.3544 19.1953 19.3488C19.2598 19.3127 19.313 19.2595 19.3491 19.195C19.3546 19.1732 19.3676 19.1112 19.3781 18.983C19.3988 18.7298 19.4 18.3862 19.4 17.7997ZM19.3464 19.2046C19.3464 19.2045 19.3466 19.2038 19.3471 19.2025L19.3464 19.2046ZM19.2049 19.3461C19.2049 19.3461 19.2042 19.3464 19.2027 19.3468L19.2049 19.3461ZM4.79515 19.3461C4.79518 19.3461 4.79591 19.3463 4.79725 19.3468L4.79515 19.3461ZM4.65363 19.2046C4.65362 19.2046 4.65338 19.2039 4.65294 19.2025L4.65363 19.2046ZM4.61684 9.86156C4.61686 9.8616 4.6167 9.86247 4.61635 9.86402L4.61684 9.86156ZM4.67292 9.74689C4.67288 9.74691 4.67339 9.7463 4.67457 9.74499C4.67356 9.74622 4.67297 9.74687 4.67292 9.74689ZM19.3271 9.74688C19.327 9.74681 19.3263 9.7461 19.3253 9.74481C19.3266 9.7463 19.3272 9.74697 19.3271 9.74688ZM19.3832 9.86156C19.3832 9.86152 19.3834 9.86233 19.3837 9.86416C19.3833 9.86252 19.3831 9.8616 19.3832 9.86156Z" fill="#757575"/>
</svg>
