<svg width="45" height="44" viewBox="0 0 45 44" fill="none" xmlns="http://www.w3.org/2000/svg">
<path d="M0.5 22C0.5 9.84974 10.3497 0 22.5 0C34.6503 0 44.5 9.84974 44.5 22C44.5 34.1503 34.6503 44 22.5 44C10.3497 44 0.5 34.1503 0.5 22Z" fill="#6DA552"/>
<path d="M22.5 12.25C20.5716 12.25 18.6866 12.8218 17.0832 13.8932C15.4798 14.9645 14.2301 16.4873 13.4922 18.2688C12.7542 20.0504 12.5611 22.0108 12.9373 23.9021C13.3136 25.7934 14.2422 27.5307 15.6057 28.8943C16.9693 30.2579 18.7066 31.1865 20.5979 31.5627C22.4892 31.9389 24.4496 31.7458 26.2312 31.0078C28.0127 30.2699 29.5355 29.0202 30.6068 27.4168C31.6782 25.8134 32.25 23.9284 32.25 22C32.2473 19.415 31.2192 16.9366 29.3913 15.1087C27.5634 13.2808 25.085 12.2527 22.5 12.25ZM22.5 30.25C20.8683 30.25 19.2733 29.7661 17.9165 28.8596C16.5598 27.9531 15.5024 26.6646 14.878 25.1571C14.2536 23.6496 14.0902 21.9908 14.4085 20.3905C14.7269 18.7902 15.5126 17.3202 16.6664 16.1664C17.8202 15.0126 19.2902 14.2268 20.8905 13.9085C22.4909 13.5902 24.1497 13.7536 25.6571 14.378C27.1646 15.0024 28.4531 16.0598 29.3596 17.4165C30.2661 18.7733 30.75 20.3683 30.75 22C30.7475 24.1873 29.8775 26.2843 28.3309 27.8309C26.7843 29.3775 24.6873 30.2475 22.5 30.25ZM19.6003 19.3994C20.0242 20.2007 20.2457 21.0935 20.2457 22C20.2457 22.9065 20.0242 23.7993 19.6003 24.6006C19.5555 24.6898 19.4933 24.7691 19.4174 24.8339C19.3416 24.8988 19.2535 24.9478 19.1584 24.9782C19.0634 25.0085 18.9632 25.0196 18.8638 25.0108C18.7644 25.002 18.6678 24.9734 18.5795 24.9267C18.4913 24.88 18.4133 24.8162 18.3501 24.739C18.2868 24.6618 18.2396 24.5728 18.2112 24.4771C18.1828 24.3814 18.1738 24.281 18.1847 24.1818C18.1956 24.0826 18.2262 23.9866 18.2747 23.8994C18.5886 23.3155 18.7528 22.6629 18.7528 22C18.7528 21.3371 18.5886 20.6845 18.2747 20.1006C18.1866 19.9253 18.1706 19.7224 18.2303 19.5355C18.29 19.3486 18.4206 19.1925 18.5941 19.1008C18.7675 19.009 18.97 18.9889 19.1581 19.0447C19.3462 19.1005 19.505 19.2279 19.6003 19.3994ZM24.8503 16.3994C25.7728 18.1231 26.2555 20.0478 26.2555 22.0028C26.2555 23.9578 25.7728 25.8826 24.8503 27.6063C24.7505 27.7702 24.5915 27.8896 24.4063 27.9399C24.221 27.9902 24.0235 27.9676 23.8544 27.8766C23.6854 27.7856 23.5576 27.6333 23.4975 27.451C23.4374 27.2687 23.4495 27.0702 23.5313 26.8966C24.3379 25.3905 24.76 23.7085 24.76 22C24.76 20.2915 24.3379 18.6095 23.5313 17.1034C23.4375 16.9279 23.4174 16.7223 23.4752 16.5319C23.533 16.3415 23.6642 16.1819 23.8397 16.0881C24.0152 15.9944 24.2208 15.9742 24.4112 16.0321C24.6016 16.0899 24.7613 16.221 24.855 16.3966L24.8503 16.3994ZM22.2253 17.8994C22.8986 19.162 23.2508 20.5709 23.2508 22.0019C23.2508 23.4328 22.8986 24.8417 22.2253 26.1044C22.18 26.1931 22.1175 26.2718 22.0415 26.3361C21.9654 26.4004 21.8773 26.4488 21.7823 26.4787C21.6873 26.5086 21.5874 26.5192 21.4882 26.51C21.3891 26.5008 21.2927 26.472 21.2048 26.4252C21.117 26.3784 21.0393 26.3145 20.9763 26.2374C20.9134 26.1603 20.8664 26.0713 20.8382 25.9759C20.8099 25.8804 20.801 25.7802 20.8119 25.6812C20.8228 25.5823 20.8533 25.4864 20.9016 25.3994C21.4593 24.3538 21.7511 23.1869 21.7511 22.0019C21.7511 20.8168 21.4593 19.65 20.9016 18.6044C20.8533 18.5173 20.8228 18.4215 20.8119 18.3225C20.801 18.2235 20.8099 18.1234 20.8382 18.0279C20.8664 17.9324 20.9134 17.8435 20.9763 17.7663C21.0393 17.6892 21.117 17.6254 21.2048 17.5786C21.2927 17.5318 21.3891 17.5029 21.4882 17.4937C21.5874 17.4845 21.6873 17.4952 21.7823 17.5251C21.8773 17.5549 21.9654 17.6034 22.0415 17.6677C22.1175 17.7319 22.18 17.8107 22.2253 17.8994Z" fill="white"/>
</svg>
