<svg width="25" height="24" viewBox="0 0 25 24" fill="none" xmlns="http://www.w3.org/2000/svg">
<path d="M11.2806 15.969C11.3503 16.0386 11.4057 16.1214 11.4434 16.2124C11.4812 16.3035 11.5006 16.4011 11.5006 16.4996C11.5006 16.5982 11.4812 16.6958 11.4434 16.7868C11.4057 16.8779 11.3503 16.9606 11.2806 17.0302L8.28061 20.0302C8.21096 20.1 8.12824 20.1553 8.0372 20.193C7.94615 20.2308 7.84855 20.2502 7.74999 20.2502C7.65143 20.2502 7.55383 20.2308 7.46278 20.193C7.37174 20.1553 7.28902 20.1 7.21936 20.0302L4.21936 17.0302C4.14968 16.9606 4.09441 16.8778 4.05669 16.7868C4.01898 16.6957 3.99957 16.5982 3.99957 16.4996C3.99957 16.4011 4.01898 16.3035 4.05669 16.2124C4.09441 16.1214 4.14968 16.0387 4.21936 15.969C4.3601 15.8283 4.55097 15.7492 4.74999 15.7492C4.84854 15.7492 4.94612 15.7686 5.03716 15.8063C5.12821 15.844 5.21093 15.8993 5.28061 15.969L6.99999 17.6893V4.49961C6.99999 4.3007 7.07901 4.10994 7.21966 3.96928C7.36031 3.82863 7.55108 3.74961 7.74999 3.74961C7.9489 3.74961 8.13967 3.82863 8.28032 3.96928C8.42097 4.10994 8.49999 4.3007 8.49999 4.49961V17.6893L10.2194 15.969C10.289 15.8993 10.3717 15.8439 10.4628 15.8062C10.5538 15.7684 10.6514 15.749 10.75 15.749C10.8486 15.749 10.9461 15.7684 11.0372 15.8062C11.1282 15.8439 11.211 15.8993 11.2806 15.969ZM20.2806 6.96899L17.2806 3.96899C17.211 3.89926 17.1282 3.84394 17.0372 3.80619C16.9461 3.76845 16.8486 3.74902 16.75 3.74902C16.6514 3.74902 16.5538 3.76845 16.4628 3.80619C16.3717 3.84394 16.289 3.89926 16.2194 3.96899L13.2194 6.96899C13.0786 7.10972 12.9996 7.30059 12.9996 7.49961C12.9996 7.69864 13.0786 7.88951 13.2194 8.03024C13.3601 8.17097 13.551 8.25003 13.75 8.25003C13.949 8.25003 14.1399 8.17097 14.2806 8.03024L16 6.30993V19.4996C16 19.6985 16.079 19.8893 16.2197 20.0299C16.3603 20.1706 16.5511 20.2496 16.75 20.2496C16.9489 20.2496 17.1397 20.1706 17.2803 20.0299C17.421 19.8893 17.5 19.6985 17.5 19.4996V6.30993L19.2194 8.03024C19.3601 8.17097 19.551 8.25003 19.75 8.25003C19.949 8.25003 20.1399 8.17097 20.2806 8.03024C20.4213 7.88951 20.5004 7.69864 20.5004 7.49961C20.5004 7.30059 20.4213 7.10972 20.2806 6.96899Z" fill="#757575"/>
</svg>
