<svg width="32" height="32" viewBox="0 0 32 32" fill="none" xmlns="http://www.w3.org/2000/svg">
<g clip-path="url(#clip0_124_11135)">
<path d="M32 16C32 24.8365 24.8365 32 16 32C7.1635 32 0 24.8365 0 16C0 16.0037 16 0.0018125 16 0C24.8365 0 32 7.1635 32 16Z" fill="#0052B4"/>
<path d="M15.9572 15.9998H16C16 15.9853 16 15.9715 16 15.957C15.9858 15.9713 15.9715 15.9856 15.9572 15.9998Z" fill="#F0F0F0"/>
<path d="M16 8.34781C16 5.5325 16 3.68769 16 0H15.9973C7.162 0.0014375 0 7.16425 0 15.9999H8.34781V11.2992L13.0486 15.9999H15.9572C15.9716 15.9857 15.9858 15.9714 16.0001 15.9571C16.0001 14.8792 16.0001 13.9174 16.0001 13.0486L11.2992 8.34781H16Z" fill="#F0F0F0"/>
<path d="M8.09466 2.08789C5.59223 3.51283 3.51185 5.5932 2.08691 8.09564V16.001H6.26085V6.26189V6.26183H16C16 4.94539 16 3.69127 16 2.08789H8.09466Z" fill="#D80027"/>
<path d="M16 14.0341L10.3154 8.34964H8.34784C8.34784 8.34957 8.34784 8.34964 8.34784 8.34964L15.9999 16.0017H16C16 16.0017 16 14.6451 16 14.0341Z" fill="#D80027"/>
<path d="M9.64966 18.7832L10.5278 20.6193L12.5107 20.161L11.6227 21.9924L13.2173 23.257L11.2319 23.7045L11.2375 25.7397L9.64966 24.4664L8.06191 25.7397L8.06747 23.7045L6.08197 23.257L7.67666 21.9924L6.78853 20.161L8.77159 20.6193L9.64966 18.7832Z" fill="#F0F0F0"/>
<path d="M23.9552 22.2617L24.3943 23.1798L25.3858 22.9506L24.9417 23.8663L25.7391 24.4986L24.7463 24.7223L24.7491 25.74L23.9552 25.1033L23.1613 25.74L23.1641 24.7223L22.1714 24.4986L22.9687 23.8663L22.5247 22.9506L23.5161 23.1798L23.9552 22.2617Z" fill="#F0F0F0"/>
<path d="M19.8708 12.5215L20.3098 13.4396L21.3013 13.2104L20.8573 14.126L21.6546 14.7584L20.6619 14.9821L20.6646 15.9997L19.8708 15.363L19.0769 15.9997L19.0796 14.9821L18.0869 14.7584L18.8842 14.126L18.4402 13.2104L19.4317 13.4396L19.8708 12.5215Z" fill="#F0F0F0"/>
<path d="M23.9552 6.95703L24.3943 7.87516L25.3858 7.64597L24.9418 8.56166L25.739 9.19391L24.7463 9.41772L24.7491 10.4353L23.9552 9.79866L23.1613 10.4353L23.1641 9.41772L22.1714 9.19391L22.9686 8.56166L22.5247 7.64597L23.5161 7.87516L23.9552 6.95703Z" fill="#F0F0F0"/>
<path d="M27.523 11.1309L27.962 12.049L28.9535 11.8197L28.5095 12.7354L29.3068 13.3677L28.314 13.5915L28.3168 14.6091L27.523 13.9725L26.7291 14.6091L26.7318 13.5915L25.7391 13.3677L26.5364 12.7354L26.0924 11.8197L27.0838 12.049L27.523 11.1309Z" fill="#F0F0F0"/>
<path d="M24.9718 16L25.3172 17.0629H26.4348L25.5306 17.7198L25.876 18.7826L24.9718 18.1257L24.0677 18.7826L24.413 17.7198L23.5089 17.0629H24.6265L24.9718 16Z" fill="#F0F0F0"/>
</g>
<defs>
<clipPath id="clip0_124_11135">
<rect width="32" height="32" fill="white"/>
</clipPath>
</defs>
</svg>
