<svg width="202" height="46" viewBox="0 0 202 46" fill="none" xmlns="http://www.w3.org/2000/svg">
<path d="M59.8447 14.2318C58.0406 12.1826 55.4464 11.2087 52.3928 11.2087C45.3555 11.2087 39.9375 16.2303 39.9375 24.095C39.9375 31.9596 45.3555 36.9813 52.3928 36.9813C55.7265 36.9813 58.3655 35.9116 60.1697 33.7273V36.6097H67.0669V2.09424H59.8447V14.2374V14.2318ZM53.6423 31.0251C50.034 31.0251 47.2549 28.4186 47.2549 24.095C47.2549 19.7714 50.034 17.1649 53.6423 17.1649C57.2505 17.1649 59.9848 19.7714 59.9848 24.095C59.9848 28.4186 57.2057 31.0251 53.6423 31.0251Z" fill="#F5F5F5"/>
<path d="M84.3803 28.6043L77.4831 11.5802H70.0312L80.4919 36.6097H87.9438L98.4549 11.5802H91.5073L84.3803 28.6043Z" fill="#F5F5F5"/>
<path d="M105.027 0C102.343 0 100.533 1.76771 100.533 4.04773C100.533 6.32774 102.337 8.09546 105.027 8.09546C107.716 8.09546 109.515 6.32774 109.515 3.90699C109.515 1.67201 107.711 0 105.027 0Z" fill="#F5F5F5"/>
<path d="M108.641 11.5802H101.419V36.6041H108.641V11.5802Z" fill="#F5F5F5"/>
<path d="M121.045 13.2578C121.045 11.2086 122.76 9.53662 127.203 9.53662C130.072 9.53662 133.176 10.3754 136.185 12.0925L138.499 6.37275C135.49 4.46429 131.321 3.49036 127.248 3.49036C118.037 3.49036 113.594 8.09542 113.594 13.6294C113.594 25.7219 132.436 21.5391 132.436 27.6304C132.436 29.6289 130.632 31.1208 126.189 31.1208C122.301 31.1208 118.227 29.7246 115.493 27.7261L112.949 33.4008C115.818 35.6357 121.006 37.167 126.144 37.167C135.4 37.167 139.894 32.5169 139.894 27.073C139.894 15.1212 121.051 19.259 121.051 13.2578H121.045Z" fill="#F5F5F5"/>
<path d="M151.739 11.5802H144.517V36.6041H151.739V11.5802Z" fill="#F5F5F5"/>
<path d="M148.13 0C145.446 0 143.637 1.76771 143.637 4.04773C143.637 6.32774 145.441 8.09546 148.13 8.09546C150.82 8.09546 152.618 6.32774 152.618 3.90699C152.618 1.67201 150.814 0 148.13 0Z" fill="#F5F5F5"/>
<path d="M166.367 11.0679C166.367 8.60212 167.527 7.44241 169.656 7.44241C170.766 7.44241 171.786 7.76893 172.576 8.32627L174.475 3.06816C173.13 2.13927 171.001 1.71704 168.967 1.71704C162.765 1.71704 159.336 5.39321 159.336 11.0172V12.1319H155.492V17.7109H159.336V36.5985H166.558V17.7222H171.5L172.76 12.1432H166.373V11.0735L166.367 11.0679Z" fill="#F5F5F5"/>
<path d="M194.606 11.5802L187.569 28.5593L180.577 11.5802H173.125L183.91 36.7898L183.821 37.0207C182.846 39.2556 181.737 40.1395 179.747 40.1395C178.313 40.1395 176.784 39.5371 175.674 38.5576L173.035 43.72C174.654 45.1612 177.433 46 179.977 46C184.465 46 187.894 44.1872 190.298 38.141L201.548 11.5802H194.606Z" fill="#F5F5F5"/>
<path d="M19.5878 2.32507C17.5147 2.32507 15.621 3.52419 14.7357 5.41013L0 36.6097H8.85262C8.85262 36.6097 16.0188 25.0183 21.3528 25.0183V23.3688H15.1055L19.8007 13.4268L30.7489 36.6154H39.6015L23.4146 2.32507H19.5878Z" fill="#F5F5F5"/>
</svg>
