<svg width="25" height="24" viewBox="0 0 25 24" fill="none" xmlns="http://www.w3.org/2000/svg">
<path d="M17.75 9V7C17.75 6.46957 17.5393 5.96086 17.1642 5.58579C16.7891 5.21071 16.2804 5 15.75 5H5.75C5.21957 5 4.71086 5.21071 4.33579 5.58579C3.96071 5.96086 3.75 6.46957 3.75 7V13C3.75 13.5304 3.96071 14.0391 4.33579 14.4142C4.71086 14.7893 5.21957 15 5.75 15H7.75M7.75 11C7.75 10.4696 7.96071 9.96086 8.33579 9.58579C8.71086 9.21071 9.21957 9 9.75 9H19.75C20.2804 9 20.7891 9.21071 21.1642 9.58579C21.5393 9.96086 21.75 10.4696 21.75 11V17C21.75 17.5304 21.5393 18.0391 21.1642 18.4142C20.7891 18.7893 20.2804 19 19.75 19H9.75C9.21957 19 8.71086 18.7893 8.33579 18.4142C7.96071 18.0391 7.75 17.5304 7.75 17V11ZM12.75 14C12.75 14.5304 12.9607 15.0391 13.3358 15.4142C13.7109 15.7893 14.2196 16 14.75 16C15.2804 16 15.7891 15.7893 16.1642 15.4142C16.5393 15.0391 16.75 14.5304 16.75 14C16.75 13.4696 16.5393 12.9609 16.1642 12.5858C15.7891 12.2107 15.2804 12 14.75 12C14.2196 12 13.7109 12.2107 13.3358 12.5858C12.9607 12.9609 12.75 13.4696 12.75 14Z" stroke="#0095A6" stroke-linecap="round" stroke-linejoin="round"/>
</svg>
