<svg width="50" height="50" viewBox="0 0 50 50" fill="none" xmlns="http://www.w3.org/2000/svg">
<circle cx="25" cy="25" r="25" fill="#D7FF8D"/>
<path d="M26.5583 17.8333C27.6979 18.0556 28.7451 18.6129 29.5661 19.4339C30.387 20.2548 30.9443 21.3021 31.1667 22.4416M26.5583 13.1666C28.9258 13.4296 31.1335 14.4898 32.819 16.1731C34.5044 17.8564 35.5673 20.0628 35.8333 22.43M34.6667 31.74V35.24C34.668 35.5649 34.6014 35.8865 34.4713 36.1842C34.3411 36.4819 34.1502 36.7491 33.9108 36.9688C33.6713 37.1885 33.3887 37.3557 33.0809 37.4598C32.7731 37.5639 32.4469 37.6025 32.1233 37.5733C28.5333 37.1832 25.0848 35.9565 22.055 33.9916C19.2361 32.2004 16.8462 29.8105 15.055 26.9916C13.0833 23.948 11.8563 20.4828 11.4733 16.8766C11.4442 16.554 11.4825 16.2288 11.5859 15.9219C11.6893 15.6149 11.8555 15.3328 12.0739 15.0935C12.2923 14.8543 12.5581 14.6631 12.8544 14.5322C13.1507 14.4013 13.4711 14.3336 13.795 14.3333H17.295C17.8612 14.3277 18.4101 14.5282 18.8394 14.8974C19.2687 15.2666 19.5491 15.7793 19.6283 16.34C19.7761 17.46 20.05 18.5598 20.445 19.6183C20.602 20.0359 20.6359 20.4897 20.5429 20.926C20.4498 21.3623 20.2337 21.7628 19.92 22.08L18.4383 23.5616C20.0992 26.4824 22.5175 28.9008 25.4383 30.5616L26.92 29.08C27.2372 28.7663 27.6377 28.5501 28.074 28.4571C28.5103 28.364 28.9641 28.398 29.3817 28.555C30.4402 28.9499 31.5399 29.2239 32.66 29.3716C33.2267 29.4516 33.7443 29.737 34.1143 30.1737C34.4843 30.6104 34.6809 31.1678 34.6667 31.74Z" stroke="#00426B" stroke-width="2" stroke-linecap="round" stroke-linejoin="round"/>
</svg>
