<svg width="30" height="30" viewBox="0 0 30 30" fill="none" xmlns="http://www.w3.org/2000/svg">
<g clip-path="url(#clip0_157_279)">
<path d="M21.8551 13.7252C21.8551 16.1625 19.9822 18.1363 17.6694 18.1363H4.18574C1.87292 18.1363 0 16.1625 0 13.7252C0 10.8664 2.19951 8.55543 4.90558 8.55543C5.02555 8.55543 5.14552 8.55543 5.2655 8.56947C6.13197 5.94246 8.49811 4.06702 11.2842 4.06702C14.3235 4.06702 16.8763 6.31473 17.5028 9.31403C17.5561 9.31403 17.6094 9.31403 17.6627 9.31403C19.9756 9.31403 21.8485 11.2878 21.8485 13.7252H21.8551Z" fill="white"/>
<path d="M30.0001 9.65816C30.0001 12.0955 28.1272 14.0693 25.8144 14.0693H22.7817C22.7817 13.9569 22.7884 13.8445 22.7884 13.7251C22.7884 10.9506 20.7888 8.65371 18.2294 8.3587C17.5229 6.12503 15.8633 4.36198 13.8037 3.56123C14.8768 1.43994 16.9963 0 19.4358 0C22.4751 0 25.0279 2.24772 25.6544 5.24701C25.7077 5.24701 25.7611 5.24701 25.8144 5.24701C28.1272 5.24701 30.0001 7.22079 30.0001 9.65816Z" fill="white"/>
<path d="M25.2344 25.2236C25.2344 26.3334 24.3812 27.2325 23.3281 27.2325C22.275 27.2325 21.4219 26.3334 21.4219 25.2236C21.4219 24.1138 23.3281 21.5289 23.3281 21.5289C23.3281 21.5289 25.2344 24.1138 25.2344 25.2236Z" fill="white"/>
<path d="M19.7158 23.5027C19.7158 24.6125 18.8627 25.5116 17.8096 25.5116C16.7565 25.5116 15.9033 24.6125 15.9033 23.5027C15.9033 22.3929 17.8096 19.808 17.8096 19.808C17.8096 19.808 19.7158 22.3929 19.7158 23.5027Z" fill="white"/>
<path d="M14.7305 27.9911C14.7305 29.1009 13.8773 30 12.8242 30C11.7711 30 10.918 29.1009 10.918 27.9911C10.918 26.8813 12.8242 24.2964 12.8242 24.2964C12.8242 24.2964 14.7305 26.8813 14.7305 27.9911Z" fill="white"/>
<path d="M8.43846 23.7766C8.43846 24.8864 7.58532 25.7855 6.53222 25.7855C5.47912 25.7855 4.62598 24.8864 4.62598 23.7766C4.62598 22.6668 6.53222 20.0819 6.53222 20.0819C6.53222 20.0819 8.43846 22.6668 8.43846 23.7766Z" fill="white"/>
</g>
<defs>
<clipPath id="clip0_157_279">
<rect width="30" height="30" fill="white"/>
</clipPath>
</defs>
</svg>
