<svg width="77" height="77" viewBox="0 0 77 77" fill="none" xmlns="http://www.w3.org/2000/svg">
<g clip-path="url(#clip0_221_289)">
<path d="M59.8669 0H17.1331C7.67073 0 0 7.67073 0 17.1331V59.8669C0 69.3293 7.67073 77 17.1331 77H59.8669C69.3293 77 77 69.3293 77 59.8669V17.1331C77 7.67073 69.3293 0 59.8669 0Z" fill="#D7FF8D"/>
<path d="M22.5856 40.9603C24.3107 40.9603 25.7092 38.8099 25.7092 36.1572C25.7092 33.5045 24.3107 31.3541 22.5856 31.3541C20.8604 31.3541 19.4619 33.5045 19.4619 36.1572C19.4619 38.8099 20.8604 40.9603 22.5856 40.9603Z" fill="#00426B"/>
<path d="M53.8365 40.9603C55.5617 40.9603 56.9602 38.8099 56.9602 36.1572C56.9602 33.5045 55.5617 31.3541 53.8365 31.3541C52.1114 31.3541 50.7129 33.5045 50.7129 36.1572C50.7129 38.8099 52.1114 40.9603 53.8365 40.9603Z" fill="#00426B"/>
<path d="M49.297 56.8138C51.9737 56.8138 53.8178 54.2829 52.6888 52.0625C50.3931 47.5605 44.9314 44.3898 38.5571 44.3898C32.1827 44.3898 26.721 47.5605 24.4253 52.0625C23.2963 54.2782 25.1357 56.8138 27.8171 56.8138H49.297Z" fill="#00426B"/>
<path d="M8.26575 28.8138C8.47274 29.1572 8.89612 29.4536 9.55943 29.6088C15.0917 30.9213 25.9727 29.2466 26.8619 22.8817C27.0077 21.8373 26.4196 19.297 24.7778 20.506C23.0514 21.7762 21.8659 23.545 20.083 24.7916C18.333 26.0148 16.2866 26.6875 14.0662 26.6169C12.6266 26.5699 11.0648 26.2782 9.65352 26.6781C8.38336 27.0356 7.80473 28.0517 8.26575 28.8138Z" fill="#00426B"/>
<path d="M68.7347 28.8138C68.5277 29.1572 68.1043 29.4536 67.441 29.6088C61.9088 30.9213 51.0277 29.2466 50.1386 22.8817C49.9928 21.8373 50.5808 19.297 52.2226 20.506C53.9491 21.7762 55.1346 23.545 56.9175 24.7916C58.6675 26.0148 60.7139 26.6875 62.9343 26.6169C64.3738 26.5699 65.9357 26.2782 67.347 26.6781C68.6171 27.0356 69.1957 28.0517 68.7347 28.8138Z" fill="#00426B"/>
</g>
<defs>
<clipPath id="clip0_221_289">
<rect width="77" height="77" fill="white"/>
</clipPath>
</defs>
</svg>
