<svg width="15" height="15" viewBox="0 0 15 15" fill="none" xmlns="http://www.w3.org/2000/svg">
<g clip-path="url(#clip0_220_984)">
<path d="M14.4887 2.37063L12.6298 0.511744C11.9476 -0.170468 10.8415 -0.170468 10.1593 0.511744L3.18397 7.48705C2.50176 8.16926 2.50176 9.27535 3.18397 9.95756L5.04285 11.8164C5.72506 12.4987 6.83115 12.4987 7.51336 11.8164L14.4887 4.84113C15.1709 4.15892 15.1709 3.05284 14.4887 2.37063Z" fill="#D7FF8D"/>
<path d="M0.0295847 13.9399L0.817692 10.999C0.985396 10.3737 1.76751 10.164 2.22521 10.6217L4.3779 12.7744C4.83609 13.2326 4.62646 14.0142 4.00057 14.1819L1.05976 14.97C0.43437 15.1377 -0.138119 14.5652 0.0295847 13.9399Z" fill="#D7FF8D"/>
</g>
<defs>
<clipPath id="clip0_220_984">
<rect width="15" height="15" fill="white"/>
</clipPath>
</defs>
</svg>
