<svg width="48" height="48" viewBox="0 0 48 48" fill="none" xmlns="http://www.w3.org/2000/svg">
<path d="M24 34C24.5667 34 25.042 33.808 25.426 33.424C25.81 33.04 26.0013 32.5653 26 32C25.9987 31.4347 25.8067 30.96 25.424 30.576C25.0413 30.192 24.5667 30 24 30C23.4333 30 22.9587 30.192 22.576 30.576C22.1933 30.96 22.0013 31.4347 22 32C21.9987 32.5653 22.1907 33.0407 22.576 33.426C22.9613 33.8113 23.436 34.0027 24 34ZM24 26C24.5667 26 25.042 25.808 25.426 25.424C25.81 25.04 26.0013 24.5653 26 24V16C26 15.4333 25.808 14.9587 25.424 14.576C25.04 14.1933 24.5653 14.0013 24 14C23.4347 13.9987 22.96 14.1907 22.576 14.576C22.192 14.9613 22 15.436 22 16V24C22 24.5667 22.192 25.042 22.576 25.426C22.96 25.81 23.4347 26.0013 24 26ZM24 44C21.2333 44 18.6333 43.4747 16.2 42.424C13.7667 41.3733 11.65 39.9487 9.85 38.15C8.05 36.3513 6.62534 34.2347 5.576 31.8C4.52667 29.3653 4.00134 26.7653 4 24C3.99867 21.2347 4.524 18.6347 5.576 16.2C6.628 13.7653 8.05267 11.6487 9.85 9.85C11.6473 8.05133 13.764 6.62667 16.2 5.576C18.636 4.52533 21.236 4 24 4C26.764 4 29.364 4.52533 31.8 5.576C34.236 6.62667 36.3527 8.05133 38.15 9.85C39.9473 11.6487 41.3727 13.7653 42.426 16.2C43.4793 18.6347 44.004 21.2347 44 24C43.996 26.7653 43.4707 29.3653 42.424 31.8C41.3773 34.2347 39.9527 36.3513 38.15 38.15C36.3473 39.9487 34.2307 41.374 31.8 42.426C29.3693 43.478 26.7693 44.0027 24 44ZM24 40C28.4667 40 32.25 38.45 35.35 35.35C38.45 32.25 40 28.4667 40 24C40 19.5333 38.45 15.75 35.35 12.65C32.25 9.55 28.4667 8 24 8C19.5333 8 15.75 9.55 12.65 12.65C9.55 15.75 8 19.5333 8 24C8 28.4667 9.55 32.25 12.65 35.35C15.75 38.45 19.5333 40 24 40Z" fill="#FF4A4D"/>
</svg>
