<svg width="50" height="50" viewBox="0 0 50 50" fill="none" xmlns="http://www.w3.org/2000/svg">
<circle cx="25" cy="25" r="25" fill="#D7FF8D"/>
<path d="M36.6668 26C36.6668 32.4434 31.4435 37.6667 25.0002 37.6667M36.6668 26C36.6668 19.5567 31.4435 14.3334 25.0002 14.3334M36.6668 26H13.3335M25.0002 37.6667C18.5568 37.6667 13.3335 32.4434 13.3335 26M25.0002 37.6667C27.9183 34.472 29.5767 30.326 29.6668 26C29.5767 21.6741 27.9183 17.5281 25.0002 14.3334M25.0002 37.6667C22.082 34.472 20.4236 30.326 20.3335 26C20.4236 21.6741 22.082 17.5281 25.0002 14.3334M13.3335 26C13.3335 19.5567 18.5568 14.3334 25.0002 14.3334" stroke="#00426B" stroke-width="2" stroke-linecap="round" stroke-linejoin="round"/>
</svg>
