<svg width="10" height="15" viewBox="0 0 10 15" fill="none" xmlns="http://www.w3.org/2000/svg">
<g clip-path="url(#clip0_220_1003)">
<path d="M4.96028 6.56238C6.7872 6.56238 8.26821 5.09334 8.26821 3.28119C8.26821 1.46904 6.7872 0 4.96028 0C3.13336 0 1.65234 1.46904 1.65234 3.28119C1.65234 5.09334 3.13336 6.56238 4.96028 6.56238Z" fill="#D7FF8D"/>
<path d="M8.60374 8.26001H1.39626C0.625126 8.26001 0 8.88008 0 9.64498V13.6151C0 14.38 0.625126 15.0001 1.39626 15.0001H8.60374C9.37487 15.0001 10 14.38 10 13.6151V9.64498C10 8.88008 9.37487 8.26001 8.60374 8.26001Z" fill="#D7FF8D"/>
</g>
<defs>
<clipPath id="clip0_220_1003">
<rect width="10" height="15" fill="white"/>
</clipPath>
</defs>
</svg>
