<svg width="15" height="15" viewBox="0 0 15 15" fill="none" xmlns="http://www.w3.org/2000/svg">
<g clip-path="url(#clip0_220_997)">
<path d="M7.5 0C3.35798 0 0 3.35798 0 7.5C0 11.642 3.35798 15 7.5 15C11.642 15 15 11.642 15 7.5C15 3.35798 11.642 0 7.5 0ZM11.0442 8.16955H9.59595C9.43247 9.17988 8.55666 9.95144 7.50044 9.95144C6.32751 9.95144 5.37687 9.0008 5.37687 7.82787C5.37687 6.90306 5.96846 6.1168 6.79348 5.82546V2.80292C6.79348 2.41269 7.10976 2.09596 7.50044 2.09596C7.89113 2.09596 8.20741 2.41224 8.20741 2.80292V5.82546C8.68362 5.99341 9.08143 6.32662 9.33313 6.75561H11.0446C11.4349 6.75561 11.7516 7.0719 11.7516 7.46258C11.7516 7.85326 11.4353 8.16955 11.0446 8.16955H11.0442Z" fill="#D7FF8D"/>
</g>
<defs>
<clipPath id="clip0_220_997">
<rect width="15" height="15" fill="white"/>
</clipPath>
</defs>
</svg>
