<svg width="28" height="28" viewBox="0 0 28 28" fill="none" xmlns="http://www.w3.org/2000/svg">
<path d="M23.625 4.375H4.375C3.91087 4.375 3.46575 4.55937 3.13756 4.88756C2.80937 5.21575 2.625 5.66087 2.625 6.125V21.875C2.625 22.3391 2.80937 22.7842 3.13756 23.1124C3.46575 23.4406 3.91087 23.625 4.375 23.625H23.625C24.0891 23.625 24.5342 23.4406 24.8624 23.1124C25.1906 22.7842 25.375 22.3391 25.375 21.875V6.125C25.375 5.66087 25.1906 5.21575 24.8624 4.88756C24.5342 4.55937 24.0891 4.375 23.625 4.375ZM23.625 21.875H4.375V6.125H23.625V21.875ZM19.25 9.625C19.25 11.0174 18.6969 12.3527 17.7123 13.3373C16.7277 14.3219 15.3924 14.875 14 14.875C12.6076 14.875 11.2723 14.3219 10.2877 13.3373C9.30312 12.3527 8.75 11.0174 8.75 9.625C8.75 9.39294 8.84219 9.17038 9.00628 9.00628C9.17038 8.84219 9.39294 8.75 9.625 8.75C9.85706 8.75 10.0796 8.84219 10.2437 9.00628C10.4078 9.17038 10.5 9.39294 10.5 9.625C10.5 10.5533 10.8687 11.4435 11.5251 12.0999C12.1815 12.7563 13.0717 13.125 14 13.125C14.9283 13.125 15.8185 12.7563 16.4749 12.0999C17.1313 11.4435 17.5 10.5533 17.5 9.625C17.5 9.39294 17.5922 9.17038 17.7563 9.00628C17.9204 8.84219 18.1429 8.75 18.375 8.75C18.6071 8.75 18.8296 8.84219 18.9937 9.00628C19.1578 9.17038 19.25 9.39294 19.25 9.625Z" fill="#757575"/>
</svg>
