<svg width="29" height="27" viewBox="0 0 29 27" fill="none" xmlns="http://www.w3.org/2000/svg">
<path d="M12.6534 1.43986C13.3365 -0.202727 15.6635 -0.202729 16.3466 1.43986L18.6597 7.00107C18.9477 7.69354 19.5989 8.16668 20.3465 8.22661L26.3503 8.70793C28.1236 8.8501 28.8427 11.0631 27.4916 12.2205L22.9173 16.1388C22.3477 16.6267 22.099 17.3923 22.273 18.1218L23.6705 23.9804C24.0833 25.7109 22.2008 27.0786 20.6826 26.1513L15.5425 23.0118C14.9025 22.6208 14.0975 22.6208 13.4575 23.0118L8.31741 26.1513C6.79921 27.0786 4.9167 25.7109 5.32948 23.9804L6.72699 18.1218C6.901 17.3923 6.65226 16.6267 6.08268 16.1388L1.50842 12.2205C0.157349 11.0631 0.8764 8.8501 2.64971 8.70793L8.65351 8.22661C9.40108 8.16668 10.0523 7.69354 10.3403 7.00107L12.6534 1.43986Z" fill="#D7FF8D"/>
</svg>
