<svg width="33" height="32" viewBox="0 0 33 32" fill="none" xmlns="http://www.w3.org/2000/svg">
<path d="M0.5 16C0.5 7.16344 7.66344 0 16.5 0C25.3366 0 32.5 7.16344 32.5 16C32.5 24.8366 25.3366 32 16.5 32C7.66344 32 0.5 24.8366 0.5 16Z" fill="#F59E0B"/>
<path d="M25.1875 13.6006C25.1118 13.3673 24.9692 13.1615 24.7773 13.0087C24.5855 12.8558 24.3529 12.7628 24.1086 12.7413L19.4688 12.3412L17.65 8.01625C17.5553 7.78931 17.3956 7.59546 17.191 7.45911C16.9863 7.32276 16.7459 7.25 16.5 7.25C16.2541 7.25 16.0137 7.32276 15.8091 7.45911C15.6044 7.59546 15.4447 7.78931 15.35 8.01625L13.5367 12.3412L8.89141 12.7436C8.64612 12.7642 8.41238 12.8568 8.2195 13.0097C8.02662 13.1626 7.88318 13.3691 7.80717 13.6032C7.73116 13.8373 7.72596 14.0887 7.79223 14.3257C7.8585 14.5628 7.99329 14.775 8.17969 14.9358L11.7039 18.0155L10.6477 22.5889C10.5918 22.8282 10.6077 23.0787 10.6935 23.309C10.7792 23.5394 10.9309 23.7393 11.1297 23.8839C11.3284 24.0284 11.5654 24.1112 11.8109 24.1218C12.0565 24.1324 12.2997 24.0704 12.5102 23.9436L16.4945 21.5217L20.4875 23.9436C20.698 24.0704 20.9412 24.1324 21.1867 24.1218C21.4323 24.1112 21.6692 24.0284 21.868 23.8839C22.0667 23.7393 22.2184 23.5394 22.3042 23.309C22.3899 23.0787 22.4059 22.8282 22.35 22.5889L21.2945 18.0108L24.818 14.9358C25.0043 14.7745 25.1389 14.5616 25.2046 14.3241C25.2704 14.0865 25.2644 13.8348 25.1875 13.6006ZM23.9984 13.9913L20.475 17.0662C20.3035 17.2154 20.1759 17.4085 20.106 17.6248C20.0361 17.841 20.0264 18.0723 20.0781 18.2936L21.1367 22.8748L17.1469 20.453C16.9522 20.3344 16.7287 20.2717 16.5008 20.2717C16.2729 20.2717 16.0493 20.3344 15.8547 20.453L11.8703 22.8748L12.9219 18.2967C12.9736 18.0754 12.9639 17.8442 12.894 17.6279C12.8241 17.4116 12.6965 17.2185 12.525 17.0694L9 13.9959C8.99972 13.9936 8.99972 13.9912 9 13.9889L13.6438 13.5873C13.8705 13.5674 14.0874 13.4859 14.2712 13.3516C14.455 13.2174 14.5987 13.0355 14.6867 12.8256L16.5 8.50609L18.3125 12.8256C18.4005 13.0355 18.5442 13.2174 18.728 13.3516C18.9118 13.4859 19.1287 13.5674 19.3555 13.5873L24 13.9889C24 13.9889 24 13.9936 24 13.9944L23.9984 13.9913Z" fill="white"/>
</svg>
