<svg width="15" height="12" viewBox="0 0 15 12" fill="none" xmlns="http://www.w3.org/2000/svg">
<path d="M13.6037 0H1.39628C0.625133 0 0 0.654394 0 1.46163V10.5384C0 11.3456 0.625133 12 1.39628 12H13.6037C14.3749 12 15 11.3456 15 10.5384V1.46163C15 0.654394 14.3749 0 13.6037 0ZM7.77606 9.00574H3.32713C2.97766 9.00574 2.69402 8.70924 2.69402 8.343C2.69402 7.97675 2.97726 7.68025 3.32713 7.68025H7.77606C8.12553 7.68025 8.40917 7.97675 8.40917 8.343C8.40917 8.70924 8.12593 9.00574 7.77606 9.00574ZM11.6729 6.35518H3.32713C2.97766 6.35518 2.69402 6.05867 2.69402 5.69243C2.69402 5.32619 2.97726 5.02969 3.32713 5.02969H11.6729C12.0223 5.02969 12.306 5.32619 12.306 5.69243C12.306 6.05867 12.0227 6.35518 11.6729 6.35518ZM11.6729 3.70461H3.32713C2.97766 3.70461 2.69402 3.40811 2.69402 3.04187C2.69402 2.67562 2.97726 2.37912 3.32713 2.37912H11.6729C12.0223 2.37912 12.306 2.67562 12.306 3.04187C12.306 3.40811 12.0227 3.70461 11.6729 3.70461Z" fill="#D7FF8D"/>
</svg>
