<svg width="33" height="32" viewBox="0 0 33 32" fill="none" xmlns="http://www.w3.org/2000/svg">
<path d="M0.5 16C0.5 7.16344 7.66344 0 16.5 0C25.3366 0 32.5 7.16344 32.5 16C32.5 24.8366 25.3366 32 16.5 32C7.66344 32 0.5 24.8366 0.5 16Z" fill="#6DA552"/>
<path d="M16.5 7.875C14.893 7.875 13.3221 8.35152 11.986 9.24431C10.6498 10.1371 9.60844 11.406 8.99348 12.8907C8.37852 14.3753 8.21761 16.009 8.53112 17.5851C8.84462 19.1612 9.61846 20.6089 10.7548 21.7452C11.8911 22.8815 13.3388 23.6554 14.9149 23.9689C16.491 24.2824 18.1247 24.1215 19.6093 23.5065C21.094 22.8916 22.3629 21.8502 23.2557 20.514C24.1485 19.1779 24.625 17.607 24.625 16C24.6227 13.8458 23.766 11.7805 22.2427 10.2573C20.7195 8.73403 18.6542 7.87727 16.5 7.875ZM16.5 22.875C15.1403 22.875 13.811 22.4718 12.6805 21.7164C11.5499 20.9609 10.6687 19.8872 10.1483 18.6309C9.62798 17.3747 9.49183 15.9924 9.7571 14.6588C10.0224 13.3251 10.6772 12.1001 11.6386 11.1386C12.6001 10.1772 13.8251 9.52237 15.1588 9.2571C16.4924 8.99183 17.8747 9.12798 19.1309 9.64833C20.3872 10.1687 21.4609 11.0499 22.2164 12.1805C22.9718 13.311 23.375 14.6403 23.375 16C23.3729 17.8227 22.6479 19.5702 21.3591 20.8591C20.0702 22.1479 18.3227 22.8729 16.5 22.875ZM19.625 17.5625C19.625 18.1427 19.3945 18.6991 18.9843 19.1093C18.5741 19.5195 18.0177 19.75 17.4375 19.75H17.125V20.375C17.125 20.5408 17.0592 20.6997 16.9419 20.8169C16.8247 20.9342 16.6658 21 16.5 21C16.3342 21 16.1753 20.9342 16.0581 20.8169C15.9408 20.6997 15.875 20.5408 15.875 20.375V19.75H14.625C14.4592 19.75 14.3003 19.6842 14.1831 19.5669C14.0658 19.4497 14 19.2908 14 19.125C14 18.9592 14.0658 18.8003 14.1831 18.6831C14.3003 18.5658 14.4592 18.5 14.625 18.5H17.4375C17.6861 18.5 17.9246 18.4012 18.1004 18.2254C18.2762 18.0496 18.375 17.8111 18.375 17.5625C18.375 17.3139 18.2762 17.0754 18.1004 16.8996C17.9246 16.7238 17.6861 16.625 17.4375 16.625H15.5625C14.9823 16.625 14.4259 16.3945 14.0157 15.9843C13.6055 15.5741 13.375 15.0177 13.375 14.4375C13.375 13.8573 13.6055 13.3009 14.0157 12.8907C14.4259 12.4805 14.9823 12.25 15.5625 12.25H15.875V11.625C15.875 11.4592 15.9408 11.3003 16.0581 11.1831C16.1753 11.0658 16.3342 11 16.5 11C16.6658 11 16.8247 11.0658 16.9419 11.1831C17.0592 11.3003 17.125 11.4592 17.125 11.625V12.25H18.375C18.5408 12.25 18.6997 12.3158 18.8169 12.4331C18.9342 12.5503 19 12.7092 19 12.875C19 13.0408 18.9342 13.1997 18.8169 13.3169C18.6997 13.4342 18.5408 13.5 18.375 13.5H15.5625C15.3139 13.5 15.0754 13.5988 14.8996 13.7746C14.7238 13.9504 14.625 14.1889 14.625 14.4375C14.625 14.6861 14.7238 14.9246 14.8996 15.1004C15.0754 15.2762 15.3139 15.375 15.5625 15.375H17.4375C18.0177 15.375 18.5741 15.6055 18.9843 16.0157C19.3945 16.4259 19.625 16.9823 19.625 17.5625Z" fill="white"/>
</svg>
